<svg xmlns="http://www.w3.org/2000/svg" width="141.351" height="142.259" viewBox="0 0 141.351 142.259"><defs><style>.a{fill:#ffa600;}.b{fill:#ffdb2d;}.c{fill:#ffca00;}</style></defs><path class="a" d="M142.282,83.8,127.065,70.378l14.679-14a2.075,2.075,0,0,0-.865-3.5l-19.537-5.638,7.221-18.909a2.071,2.071,0,0,0-.335-2.053,2.1,2.1,0,0,0-1.956-.738l-20.081,3.238L104.558,8.614A2.08,2.08,0,0,0,103.37,6.9a2.1,2.1,0,0,0-2.085.167L84.54,18.557,74.369,1.04a2.1,2.1,0,0,0-3.623,0L59.07,21.147,38.873,9.491a2.1,2.1,0,0,0-2.092-.005,2.077,2.077,0,0,0-1.05,1.8L35.682,31.51,15.408,29.839a2.1,2.1,0,0,0-1.891.887,2.068,2.068,0,0,0-.173,2.072l8.681,18.292L2.989,58.227A2.074,2.074,0,0,0,2.4,61.781L18.132,74.6,4.014,89.167a2.075,2.075,0,0,0,1,3.461L24.757,97.5l-6.473,19.175a2.071,2.071,0,0,0,.415,2.038,2.1,2.1,0,0,0,1.983.662l19.939-4.013,2.423,20.082a2.081,2.081,0,0,0,1.254,1.664,2.1,2.1,0,0,0,2.077-.248l16.281-12.127,10.851,16.55a2.094,2.094,0,0,0,1.769.97l.082,0a2.093,2.093,0,0,0,1.769-1.109L86.6,123.809l17.182,10.829a2.1,2.1,0,0,0,2.09.086,2.079,2.079,0,0,0,1.12-1.757l.842-20.209,20.192,2.456a2.1,2.1,0,0,0,1.925-.813,2.07,2.07,0,0,0,.254-2.064l-7.957-18.615,19.3-6.391a2.074,2.074,0,0,0,.728-3.528Z" transform="translate(-1.634 0)"/><ellipse class="b" cx="43.086" cy="43.053" rx="43.086" ry="43.053" transform="translate(27.131 27.713)"/><path class="c" d="M246.018,99.743q-1.619,0-3.207.119a43.051,43.051,0,0,1,0,85.867q1.588.117,3.207.119a43.053,43.053,0,1,0,0-86.105Z" transform="translate(-175.8 -72.029)"/></svg>