<svg xmlns="http://www.w3.org/2000/svg" xmlns:xlink="http://www.w3.org/1999/xlink" width="143.816" height="143.816" viewBox="0 0 143.816 143.816"><defs><style>.a{fill:url(#a);}</style><linearGradient id="a" x1="0.5" x2="0.5" y2="1" gradientUnits="objectBoundingBox"><stop offset="0" stop-color="#8e2de2"/><stop offset="1" stop-color="#4a00e0"/></linearGradient></defs><path class="a" d="M135.389,82.09V12.921a4.213,4.213,0,0,0-4.213-4.213H109.828V4.213a4.213,4.213,0,0,0-8.427,0V8.708H84.548V4.213a4.213,4.213,0,0,0-8.427,0V8.708H59.268V4.213a4.213,4.213,0,0,0-8.427,0V8.708H33.988V4.213a4.213,4.213,0,0,0-8.427,0V8.708H4.213A4.213,4.213,0,0,0,0,12.921V122.749a4.213,4.213,0,0,0,4.213,4.213H74.381A37.906,37.906,0,1,0,135.389,82.09ZM25.561,17.134v4.213a4.213,4.213,0,0,0,8.427,0V17.134H50.841v4.213a4.213,4.213,0,0,0,8.427,0V17.134H76.121v4.213a4.213,4.213,0,0,0,8.427,0V17.134H101.4v4.213a4.213,4.213,0,0,0,8.427,0V17.134h17.134V33.988H8.427V17.134ZM8.427,118.536V42.414H126.962V74.381a37.876,37.876,0,0,0-52.88,10.9,4.189,4.189,0,0,0-1.894-.453H63.762a4.213,4.213,0,1,0,0,8.427h6.383a37.606,37.606,0,0,0-1.933,8.427H63.762a4.213,4.213,0,0,0,0,8.427h4.449a37.545,37.545,0,0,0,1.933,8.427ZM105.9,135.389A29.493,29.493,0,1,1,135.389,105.9,29.526,29.526,0,0,1,105.9,135.389Zm0,0"/><path class="a" d="M383.067,318.853h-12.64v-12.64a4.213,4.213,0,0,0-8.427,0v16.853a4.213,4.213,0,0,0,4.213,4.213h16.853a4.213,4.213,0,1,0,0-8.427Zm0,0" transform="translate(-260.318 -217.171)"/><path class="a" d="M103.64,182H95.213a4.213,4.213,0,1,0,0,8.427h8.427a4.213,4.213,0,0,0,0-8.427Zm0,0" transform="translate(-65.439 -130.878)"/><path class="a" d="M103.64,242H95.213a4.213,4.213,0,1,0,0,8.427h8.427a4.213,4.213,0,0,0,0-8.427Zm0,0" transform="translate(-65.439 -174.025)"/><path class="a" d="M103.64,302H95.213a4.213,4.213,0,1,0,0,8.427h8.427a4.213,4.213,0,1,0,0-8.427Zm0,0" transform="translate(-65.439 -217.171)"/><path class="a" d="M216.213,190.427h8.427a4.213,4.213,0,1,0,0-8.427h-8.427a4.213,4.213,0,1,0,0,8.427Zm0,0" transform="translate(-152.451 -130.878)"/><path class="a" d="M216.213,250.427h8.427a4.213,4.213,0,0,0,0-8.427h-8.427a4.213,4.213,0,0,0,0,8.427Zm0,0" transform="translate(-152.451 -174.025)"/><path class="a" d="M103.64,362H95.213a4.213,4.213,0,1,0,0,8.427h8.427a4.213,4.213,0,1,0,0-8.427Zm0,0" transform="translate(-65.439 -260.318)"/><path class="a" d="M336.213,190.427h8.427a4.213,4.213,0,0,0,0-8.427h-8.427a4.213,4.213,0,0,0,0,8.427Zm0,0" transform="translate(-238.744 -130.878)"/></svg>