<svg xmlns="http://www.w3.org/2000/svg" xmlns:xlink="http://www.w3.org/1999/xlink" width="154" height="184.73" viewBox="0 0 154 184.73"><defs><style>.a{fill:url(#a);}</style><linearGradient id="a" x1="0.5" x2="0.5" y2="1" gradientUnits="objectBoundingBox"><stop offset="0" stop-color="#8e2de2"/><stop offset="1" stop-color="#0065ff"/></linearGradient></defs><g transform="translate(0)"><path class="a" d="M152.836,93.2a47.578,47.578,0,0,0-31.444,83.223c7.519,7.519,6.836,23.583,6.665,23.753a2.83,2.83,0,0,0,.854,2.222,3.153,3.153,0,0,0,2.051.854h43.577a2.83,2.83,0,0,0,2.051-.854,3.249,3.249,0,0,0,.854-2.222c0-.171-.854-16.234,6.665-23.753l.513-.513A47.435,47.435,0,0,0,152.836,93.2Zm27.342,78.779c-.171.171-.513.513-.513.684-6.665,7.177-7.861,18.969-8.032,24.608H133.867c-.171-5.639-1.367-17.943-8.544-25.291a41.612,41.612,0,1,1,54.855,0Z" transform="translate(-75.695 -53.383)"/><path class="a" d="M212.234,121.6a2.905,2.905,0,1,0,0,5.81,31.105,31.105,0,0,1,31.1,31.1,2.905,2.905,0,1,0,5.81,0A36.758,36.758,0,0,0,212.234,121.6Z" transform="translate(-135.264 -69.65)"/><path class="a" d="M200.044,358.4H162.106a7.177,7.177,0,0,0,0,14.355h37.766a7.37,7.37,0,0,0,7.348-7.177A7.221,7.221,0,0,0,200.044,358.4Zm0,8.374H162.106a1.348,1.348,0,0,1-1.367-1.367,1.258,1.258,0,0,1,1.367-1.367h37.766a1.348,1.348,0,0,1,1.367,1.367A1.219,1.219,0,0,1,200.044,366.773Z" transform="translate(-104.105 -205.284)"/><path class="a" d="M201.965,398.8H175.306a7.177,7.177,0,1,0,0,14.355h26.659a7.221,7.221,0,0,0,7.177-7.177A7.112,7.112,0,0,0,201.965,398.8Zm0,8.374H175.306a1.348,1.348,0,0,1-1.367-1.367,1.258,1.258,0,0,1,1.367-1.367h26.659a1.367,1.367,0,0,1,0,2.734Z" transform="translate(-111.666 -228.424)"/><path class="a" d="M212.234,25.633a2.88,2.88,0,0,0,2.905-2.905V2.905a2.905,2.905,0,1,0-5.81,0V22.728A3,3,0,0,0,212.234,25.633Z" transform="translate(-135.264)"/><path class="a" d="M308.6,33.663a2.756,2.756,0,0,0-3.931.684L293.73,50.752a2.815,2.815,0,0,0,.684,4.1,2.756,2.756,0,0,0,1.538.513A2.727,2.727,0,0,0,298.344,54l10.937-16.405A2.649,2.649,0,0,0,308.6,33.663Z" transform="translate(-183.266 -18.967)"/><path class="a" d="M116.663,53.42a2.756,2.756,0,0,0,1.538-.513,2.994,2.994,0,0,0,.854-4.1L108.46,32.23a2.962,2.962,0,1,0-4.956,3.247l10.6,16.576A2.835,2.835,0,0,0,116.663,53.42Z" transform="translate(-74.384 -17.704)"/><path class="a" d="M57.567,112.995l-17.26-9.4a3.009,3.009,0,0,0-3.93,1.2,2.728,2.728,0,0,0,1.2,3.93l17.26,9.4a4.022,4.022,0,0,0,1.367.342,2.819,2.819,0,0,0,2.563-1.538A3.009,3.009,0,0,0,57.567,112.995Z" transform="translate(-35.966 -59.165)"/><path class="a" d="M365.082,104.792a3.009,3.009,0,0,0-3.93-1.2l-17.431,9.4a3.009,3.009,0,0,0-1.2,3.93,2.819,2.819,0,0,0,2.563,1.538,3.219,3.219,0,0,0,1.367-.342l17.431-9.4A3.009,3.009,0,0,0,365.082,104.792Z" transform="translate(-211.384 -59.165)"/></g></svg>