<svg xmlns="http://www.w3.org/2000/svg" xmlns:xlink="http://www.w3.org/1999/xlink" width="144.457" height="173.284" viewBox="0 0 144.457 173.284"><defs><style>.a{fill:url(#a);}</style><linearGradient id="a" x1="0.5" x2="0.5" y2="1" gradientUnits="objectBoundingBox"><stop offset="0" stop-color="#8e2de2"/><stop offset="1" stop-color="#4a00e0"/></linearGradient></defs><g transform="translate(0)"><path class="a" d="M149.892,93.2a44.63,44.63,0,0,0-29.5,78.066c7.053,7.053,6.412,22.121,6.252,22.282a2.654,2.654,0,0,0,.8,2.084,2.958,2.958,0,0,0,1.924.8H170.25a2.655,2.655,0,0,0,1.924-.8,3.047,3.047,0,0,0,.8-2.084c0-.16-.8-15.228,6.252-22.282l.481-.481A44.5,44.5,0,0,0,149.892,93.2Zm25.648,73.9c-.16.16-.481.481-.481.641-6.252,6.733-7.374,17.793-7.534,23.083H132.1c-.16-5.29-1.282-16.831-8.015-23.724a39.033,39.033,0,1,1,51.456,0Z" transform="translate(-77.532 -55.85)"/><path class="a" d="M212.054,121.6a2.725,2.725,0,1,0,0,5.45,29.178,29.178,0,0,1,29.174,29.174,2.725,2.725,0,1,0,5.45,0A34.48,34.48,0,0,0,212.054,121.6Z" transform="translate(-139.854 -72.869)"/><path class="a" d="M197.248,358.4H161.662a6.733,6.733,0,1,0,0,13.465h35.426a6.914,6.914,0,0,0,6.893-6.732A6.773,6.773,0,0,0,197.248,358.4Zm0,7.855H161.662a1.264,1.264,0,0,1-1.282-1.282,1.18,1.18,0,0,1,1.282-1.282h35.426a1.264,1.264,0,0,1,1.282,1.282A1.143,1.143,0,0,1,197.248,366.255Z" transform="translate(-107.255 -214.772)"/><path class="a" d="M199.868,398.8H174.862a6.733,6.733,0,1,0,0,13.465h25.007a6.773,6.773,0,0,0,6.733-6.733A6.671,6.671,0,0,0,199.868,398.8Zm0,7.855H174.862a1.264,1.264,0,0,1-1.282-1.282,1.18,1.18,0,0,1,1.282-1.282h25.007a1.282,1.282,0,0,1,0,2.565Z" transform="translate(-115.165 -238.982)"/><path class="a" d="M212.054,24.045a2.7,2.7,0,0,0,2.725-2.725V2.725a2.725,2.725,0,1,0-5.45,0V21.32A2.809,2.809,0,0,0,212.054,24.045Z" transform="translate(-139.854)"/><path class="a" d="M307.639,33.629a2.586,2.586,0,0,0-3.687.641L293.693,49.659a2.641,2.641,0,0,0,.641,3.847,2.585,2.585,0,0,0,1.443.481,2.558,2.558,0,0,0,2.244-1.282L308.28,37.316A2.485,2.485,0,0,0,307.639,33.629Z" transform="translate(-190.074 -19.843)"/><path class="a" d="M115.819,52.025a2.586,2.586,0,0,0,1.443-.481,2.808,2.808,0,0,0,.8-3.847l-9.939-15.549a2.779,2.779,0,1,0-4.649,3.046l9.939,15.549A2.659,2.659,0,0,0,115.819,52.025Z" transform="translate(-76.159 -18.523)"/><path class="a" d="M56.229,112.394l-16.19-8.816a2.822,2.822,0,0,0-3.687,1.122,2.559,2.559,0,0,0,1.122,3.687l16.19,8.816a3.772,3.772,0,0,0,1.282.321,2.645,2.645,0,0,0,2.4-1.443A2.822,2.822,0,0,0,56.229,112.394Z" transform="translate(-35.966 -61.899)"/><path class="a" d="M363.666,104.7a2.822,2.822,0,0,0-3.687-1.122l-16.351,8.816a2.822,2.822,0,0,0-1.122,3.687,2.645,2.645,0,0,0,2.4,1.443,3.02,3.02,0,0,0,1.282-.321l16.351-8.816A2.822,2.822,0,0,0,363.666,104.7Z" transform="translate(-219.491 -61.899)"/></g></svg>