<svg xmlns="http://www.w3.org/2000/svg" xmlns:xlink="http://www.w3.org/1999/xlink" width="156.567" height="140.666" viewBox="0 0 156.567 140.666"><defs><style>.a{fill:url(#a);}</style><linearGradient id="a" x1="0.5" x2="0.5" y2="1" gradientUnits="objectBoundingBox"><stop offset="0" stop-color="#8e2de2"/><stop offset="1" stop-color="#4a00e0"/></linearGradient></defs><path class="a" d="M249.058,100a3.058,3.058,0,1,0,3.058,3.058A3.059,3.059,0,0,0,249.058,100Zm0,0" transform="translate(-170.775 -69.42)"/><path class="a" d="M83.058,266.116A3.058,3.058,0,1,0,80,263.058,3.059,3.059,0,0,0,83.058,266.116Zm0,0" transform="translate(-55.536 -180.493)"/><path class="a" d="M102.747,0C75.217,0,52.622,18.98,50.874,42.889,24.656,44.2,0,63.109,0,88.68a42.73,42.73,0,0,0,11.926,29.244,18.6,18.6,0,0,1-4.914,17.521,3.058,3.058,0,0,0,2.162,5.22,33.732,33.732,0,0,0,23.371-9.446,69.685,69.685,0,0,0,21.275,3.33c27.526,0,50.119-18.976,51.872-42.879a68.762,68.762,0,0,0,18.331-3.262,33.732,33.732,0,0,0,23.371,9.446,3.058,3.058,0,0,0,2.162-5.22,18.6,18.6,0,0,1-4.914-17.521,42.73,42.73,0,0,0,11.926-29.244C156.567,19.3,130.012,0,102.747,0ZM53.82,128.433c-7.217,0-15.441-1.417-20.951-3.609a3.058,3.058,0,0,0-3.388.776,27.592,27.592,0,0,1-13.724,8.144,24.73,24.73,0,0,0,1.865-18.2,3.052,3.052,0,0,0-.748-1.292A36.748,36.748,0,0,1,6.116,88.68c0-21.549,21.845-39.753,47.7-39.753,24.418,0,45.869,16.98,45.869,39.753,0,21.92-20.577,39.753-45.869,39.753Zm85.872-56.992a3.066,3.066,0,0,0-.748,1.292,24.73,24.73,0,0,0,1.865,18.2,27.583,27.583,0,0,1-13.724-8.144,3.06,3.06,0,0,0-3.388-.776,60.24,60.24,0,0,1-18.016,3.532c-.893-11.564-6.662-22.433-16.524-30.5h39.887a3.058,3.058,0,1,0,0-6.116H79.764A57.032,57.032,0,0,0,57.006,42.9c1.757-20.538,21.6-36.785,45.741-36.785,25.859,0,47.7,18.2,47.7,39.753a36.748,36.748,0,0,1-10.759,25.572Zm0,0" transform="translate(0 0)"/><path class="a" d="M161.588,260h-38.53a3.058,3.058,0,1,0,0,6.116h38.53a3.058,3.058,0,0,0,0-6.116Zm0,0" transform="translate(-83.305 -180.493)"/><path class="a" d="M133.82,320H83.058a3.058,3.058,0,0,0,0,6.116H133.82a3.058,3.058,0,0,0,0-6.116Zm0,0" transform="translate(-55.536 -222.146)"/><path class="a" d="M327.588,100h-38.53a3.058,3.058,0,1,0,0,6.116h38.53a3.058,3.058,0,1,0,0-6.116Zm0,0" transform="translate(-198.543 -69.42)"/></svg>