<svg xmlns="http://www.w3.org/2000/svg" xmlns:xlink="http://www.w3.org/1999/xlink" width="166.632" height="167.286" viewBox="0 0 166.632 167.286"><defs><style>.a{fill:url(#a);}</style><linearGradient id="a" x1="0.5" x2="0.5" y2="1" gradientUnits="objectBoundingBox"><stop offset="0" stop-color="#8e2de2"/><stop offset="1" stop-color="#0065ff"/></linearGradient></defs><path class="a" d="M210.981,141.631a2.47,2.47,0,0,0,2.47-2.47V136.4a2.47,2.47,0,0,0-4.939,0v2.762A2.469,2.469,0,0,0,210.981,141.631Zm0,0" transform="translate(-140.548 -90.171)"/><path class="a" d="M281.074,141.631a2.469,2.469,0,0,0,2.47-2.47V136.4a2.469,2.469,0,1,0-4.938,0v2.762A2.469,2.469,0,0,0,281.074,141.631Zm0,0" transform="translate(-187.74 -90.171)"/><path class="a" d="M223.211,342.077c0,4.946,4.468,8.968,9.96,8.968s9.969-4.023,9.969-8.968-4.472-8.96-9.969-8.96S223.211,337.137,223.211,342.077Zm9.96-4.02c2.773,0,5.03,1.8,5.03,4.02s-2.256,4.029-5.03,4.029-5.021-1.807-5.021-4.029S230.4,338.056,233.171,338.056Zm0,0" transform="translate(-150.445 -224.278)"/><path class="a" d="M165.226,139.511l-4.738-6.76c-1.985-2.835-4.607-6.578-8.461-7.759,1.312-3.27.781-7.2-1.588-11.709l-.013-.024c-.008-.015-.014-.029-.022-.043l-9.831-18.559c-5.626-10.633-10.615-18.213-23.643-18.916-5.225-.274-8.568-1.211-12.358-5.581-.369-.419-.962-1.035-1.556-1.64a37.853,37.853,0,0,0,10.066-16.139A11.069,11.069,0,0,0,118.3,49.42a9.83,9.83,0,0,0,3.133-6.817v-2.93A5.443,5.443,0,0,0,116,34.235h-1.959V31.264a17.568,17.568,0,0,0,6.547-10.739,17.105,17.105,0,0,0-2.491-11.859c-4.526-7.234-14.482-11.7-24.755-6.232-3.718,1.98-8.189,1.428-12.922.845-5.02-.619-10.209-1.258-15.206.938A23.114,23.114,0,0,0,54.081,14.229,32.051,32.051,0,0,0,50.4,30.056v4.179H48.444a5.443,5.443,0,0,0-5.437,5.438V42.6a9.826,9.826,0,0,0,3.136,6.819,11.05,11.05,0,0,0,5.214,2.96A38.27,38.27,0,0,0,62.478,69.518c-.228.243-.436.467-.6.656A14.541,14.541,0,0,1,55.6,74.733,21.415,21.415,0,0,1,49.53,75.74c-13.03.693-18.021,8.278-23.651,18.916l-9.821,18.559-.026.05c0,.005-.006.011-.009.018-2.463,4.681-2.938,8.737-1.428,12.081-3.3,1.469-5.64,4.805-7.45,7.386l-4.738,6.762a10.1,10.1,0,0,0-1.885,5.045,2.692,2.692,0,0,0-.023.324v14.851a7.562,7.562,0,0,0,7.553,7.554H159.56a7.563,7.563,0,0,0,7.554-7.554V145.7s0-.005,0-.008a9.7,9.7,0,0,0-1.888-6.185ZM49.608,45.905a5,5,0,0,1-1.662-3.3v-2.93a.505.505,0,0,1,.5-.5H50.4V46c0,.194.011.391.017.587a7.26,7.26,0,0,1-.812-.685ZM147.1,123.837c-1.563,2.595-6.745,5.686-22.543,5.7l1.421-14.069c9.328-2.1,15.386-1.884,20.391.711,1.589,3.251,1.837,5.826.731,7.66ZM116,39.174a.505.505,0,0,1,.5.5V42.6a4.993,4.993,0,0,1-1.66,3.3,7.308,7.308,0,0,1-.813.687c.006-.2.017-.392.017-.586V39.174ZM67.2,8.737c3.754-1.649,8.057-1.118,12.612-.558,5.288.652,10.753,1.326,15.848-1.386,7.958-4.233,15.037-.639,18.247,4.491,2.745,4.39,3.437,11.333-3.533,16.583C91.841,34.853,84.661,32.13,77.061,29.25c-4.1-1.556-8.3-3.146-14.1-3.146a37.667,37.667,0,0,0-7.489.8c.582-6.757,3.276-14.449,11.724-18.167ZM55.778,49.806a2.538,2.538,0,0,0-.055-.281A17.558,17.558,0,0,1,55.342,46V31.984c9.331-2.145,14.286-.269,19.968,1.885,4.214,1.6,8.731,3.308,15.24,3.308,4.846,0,10.8-.95,18.548-3.6V46a17.4,17.4,0,0,1-.36,3.413,2.471,2.471,0,0,0-.093.458C106.635,58.83,98.177,68.549,88.7,72.082a16.38,16.38,0,0,1-12.938.018c-9.513-3.537-18-13.305-19.987-22.294ZM65.6,73.416c.177-.2.443-.486.743-.8a34.227,34.227,0,0,0,7.7,4.112,21.235,21.235,0,0,0,16.381-.022,34.8,34.8,0,0,0,8.842-4.957c.608.618,1.256,1.284,1.585,1.658A21.373,21.373,0,0,0,106.227,78c-4.264,4.777-12.552,7.919-22.075,8.2-10.4.3-19.347-2.778-23.988-8.153a21.3,21.3,0,0,0,5.44-4.629Zm-35.36,23.55C35.89,86.3,39.659,81.211,49.79,80.673a30.469,30.469,0,0,0,5.571-.735c5.082,7,15.4,11.22,27.42,11.22.5,0,1.007-.008,1.514-.022,11.831-.346,21.837-4.595,26.729-11.217a30.313,30.313,0,0,0,5.644.754c10.131.548,13.9,5.63,19.541,16.294l6.757,12.755c-4.513-1-9.758-.8-16.464.578l1.071-10.611a5.493,5.493,0,0,0-1.443-4.273,6.243,6.243,0,0,0-4.619-2.047H89.5a2.47,2.47,0,1,0,0,4.939H121.51a1.347,1.347,0,0,1,.957.422.61.61,0,0,1,.191.466l-3.709,36.719c-.065.661-.453,1.372-1.147,1.372H48.651c-.735,0-1.084-.821-1.138-1.375l-2.286-22.572a2.488,2.488,0,0,0-.027-.276L43.8,99.2a.608.608,0,0,1,.191-.467,1.348,1.348,0,0,1,.956-.425H78.059a2.47,2.47,0,1,0,0-4.939H44.943a6.24,6.24,0,0,0-4.618,2.05,5.5,5.5,0,0,0-1.445,4.274L39.956,110.3c-6.707-1.376-11.951-1.579-16.462-.578ZM20.091,116.176c5-2.595,11.053-2.81,20.386-.712l1.424,14.07c-12.818-.009-18.649-2.045-21.227-4.2a2.25,2.25,0,0,0-.212-.185,5.827,5.827,0,0,1-1.108-1.313c-1.1-1.834-.856-4.41.736-7.662Zm68.4,36.9h69.462a11.212,11.212,0,0,0,4.225-.775v7.425a2.617,2.617,0,0,1-2.614,2.615H8.053a2.617,2.617,0,0,1-2.614-2.615V152.3a11.224,11.224,0,0,0,4.254.785l67.393-.038a2.47,2.47,0,0,0,0-4.939h0l-67.392.038c-1.937,0-3.385-.646-3.971-1.773a2.632,2.632,0,0,1-.282-1.039v-.415a5.167,5.167,0,0,1,1.013-2.569l4.738-6.761c1.8-2.562,4.029-5.745,6.5-6.014l.387-.006c4.463,3.3,12.352,4.909,23.9,4.909H42.4l.2,1.934a6.17,6.17,0,0,0,6.052,5.82H117.8a6.174,6.174,0,0,0,6.062-5.817l.2-1.936h.408c11.557,0,19.447-1.613,23.911-4.912.59,0,1.3.008,1.509.012,2.507.231,4.749,3.434,6.554,6.011l4.738,6.762c1.033,1.472,1.3,2.939.734,4.027-.585,1.124-2.029,1.769-3.964,1.769H88.489a2.47,2.47,0,1,0,0,4.939Zm0,0" transform="translate(-0.5 0)"/></svg>