<svg xmlns="http://www.w3.org/2000/svg" width="49.398" height="49.398" viewBox="0 0 49.398 49.398"><defs><style>.a{fill:#408cff;}</style></defs><g transform="translate(0 0)"><path class="a" d="M24.7,0A24.7,24.7,0,1,0,49.4,24.7,24.771,24.771,0,0,0,24.7,0Zm0,7.41a7.277,7.277,0,0,1,7.41,7.41,7.277,7.277,0,0,1-7.41,7.41,7.277,7.277,0,0,1-7.41-7.41A7.277,7.277,0,0,1,24.7,7.41Zm0,35.072a18.019,18.019,0,0,1-14.819-7.9c0-4.94,9.88-7.657,14.819-7.657s14.819,2.717,14.819,7.657A18.019,18.019,0,0,1,24.7,42.482Z" transform="translate(0 0)"/></g></svg>