<svg id="Layer_1" data-name="Layer 1" xmlns="http://www.w3.org/2000/svg" xmlns:xlink="http://www.w3.org/1999/xlink" viewBox="0 0 1924 956"><defs><style>.cls-1{fill:url(#linear-gradient);}.cls-2{opacity:0.08;}.cls-3{fill:#fff;}</style><linearGradient id="linear-gradient" x1="962" y1="-33.08" x2="962" y2="989.08" gradientUnits="userSpaceOnUse"><stop offset="0" stop-color="#0b133b"/><stop offset="1" stop-color="#054f90"/></linearGradient></defs><title>campus amb page bg</title><rect class="cls-1" x="-66.59" y="-33.08" width="2057.17" height="1022.17"/><g id="logomark" class="cls-2"><path id="Path_766" data-name="Path 766" class="cls-3" d="M1062.3,792.58a8.94,8.94,0,0,1-2.47-.25,53.92,53.92,0,0,0-6.84-1.84c-3.21-.8-6.34-1.91-9.53-2.82-2.62-.76-5.26-1.42-7.89-2.12l-4.15-1.11V639.57l2.15-.07.06.89c0,1-.07,1.91-.07,2.87V781.78c.1,1.84.41,2.21,2.17,2.8.46.16.9.3,1.38.42,5.64,1.56,11.29,3.14,16.94,4.66,2.76.74,5.55,1.37,8.33,2.05a1.17,1.17,0,0,0,.19.51Z"/><path id="Path_767" data-name="Path 767" class="cls-3" d="M1911.74,784.45c-1.11.66-2.08,1.51-3.52,1.51a10.88,10.88,0,0,0-2.35.68c-1.13.28-2.28.51-3.42.75l-1-.17a1.34,1.34,0,0,0,.11-.65l6.24-1.71c1.79-.5,2.39-1.16,2.47-3,.06-1.56,0-3.12,0-4.68V643.57a12.86,12.86,0,0,0-.11-2.15,1.17,1.17,0,0,0-1.31-1,6.66,6.66,0,0,0-1.4.27c-2,.57-3.9,1.16-5.85,1.79l-4.86.82-1-.16a32.73,32.73,0,0,1,3.56-1.38c2-.54,4.07-1.19,6.09-1.78s4.19-.32,6.31-.43Z"/><path id="Path_768" data-name="Path 768" class="cls-3" d="M1062.38,791.72c-2.77-.69-5.56-1.31-8.32-2.05-5.66-1.52-11.3-3.1-16.94-4.66-.46-.12-.89-.27-1.38-.42-1.78-.59-2.08-1-2.17-2.8V643.26c0-1,0-1.92.07-2.87a9.27,9.27,0,0,1,3.88.36c3.77,1.13,7.58,2.12,11.38,3.16,2.68.71,5.31,1.39,8,2.12,5.4,1.48,10.79,3,16.19,4.45,3.12.84,6.25,1.52,9.37,2.39,4.36,1.22,8.68,2.54,13.09,3.62s9,2.31,13.5,3.57c5.28,1.47,10.54,3,15.81,4.53a11.7,11.7,0,0,0,1.78.22,2.73,2.73,0,0,0,.64.07c.84.81,1.92.63,2.93.7,1.24.42,2.46.89,3.73,1.25,2.86.77,5.76,1.43,8.62,2.21,5.86,1.6,11.7,3.26,17.56,4.86a17,17,0,0,0,2.47.33,29.53,29.53,0,0,0,3.3,1.33c3.93,1.05,7.88,2,11.83,3a3.18,3.18,0,0,0,.89.56c3.57.89,7.13,1.73,10.7,2.67,4.83,1.27,9.64,2.61,14.46,3.92,3.21.89,6.42,1.9,9.63,2.8s6.25,1.6,9.35,2.44,6.25,1.79,9.34,2.68c5.42,1.46,10.87,2.82,16.29,4.29,6,1.63,12,3.32,18,5,1.84.51,3.68,1.06,5.53,1.53,3.48.89,7,1.74,10.45,2.63q3.12.79,6.24,1.68c3.34,1,6.65,2,10,2.91a6.63,6.63,0,0,0,1.78,0c1.33-1,.83-2.4.83-3.66V580.74c0-1,0-1.92-.05-2.87-.15-1.57-.66-2-2.18-2.42-3.57-.89-7.2-1.78-10.77-2.78-5.08-1.4-10.1-3-15.23-4.23-2.68-.62-5.35-1.51-8-2.22-3.23-.89-6.48-1.64-9.71-2.52s-6.24-1.78-9.34-2.61c-3.35-.89-6.81-1.43-10.08-2.55-3.53-1.21-7.14-2-10.7-3-5.87-1.67-11.8-3.13-17.7-4.68-2.9-1-5.86-1.78-8.79-2.68-3.26-1-6.61-1.78-9.92-2.67-3-.8-5.92-1.7-8.91-2.47a9.39,9.39,0,0,0-2.12-.06c-2.67-.69-5.35-1.35-8-2.08-5.64-1.54-11.27-3.12-16.89-4.69-2.3-.64-4.58-1.29-6.88-1.9q-5.71-1.5-11.44-3c-.17-.17-.33-.41-.53-.46q-7.41-2-14.83-4l-15.5-4.18c-3.69-1-7.36-2-11-3-5.06-1.36-10.12-2.67-15.16-4.09a13.65,13.65,0,0,1-2-.85c-.07-1.31-.19-2.63-.19-3.95V381.53c0-1,.05-1.93,0-2.88a7.8,7.8,0,0,0-.56-1.69v-.35c.75-1.61,1.91-1.78,3.56-1.3,3.52,1.12,7.07,2.1,10.63,3.09s6.88,1.78,10.32,2.68l9.31,2.44c.7.15,1.4.25,2.09.45,3.57,1,7,2,10.57,3a10.53,10.53,0,0,0,1.78.18l18.63,5.16a2.65,2.65,0,0,0,.6.38c5.09,1.34,10.24,2.49,15.26,4,4.45,1.38,9,2.51,13.5,3.67,2.31.6,4.61,1.24,6.92,1.87,5.54,1.52,11.08,3.06,16.63,4.56,5.07,1.38,10.15,2.73,15.23,4.1q6.26,1.69,12.49,3.45c3.68,1,7.35,2.07,11,3.07s7.42,1.89,11.11,2.88c3.37.9,6.69,1.92,10,2.81,5.2,1.39,10.44,2.68,15.63,4.08,7.74,2.12,15.44,4.36,23.18,6.46a47.42,47.42,0,0,1,5.84,1.67,1.46,1.46,0,0,0,1.92-.77,1.57,1.57,0,0,0,.12-.6c.09-1.08.07-2.16.07-3.25V312.92a2.57,2.57,0,0,0-2.29-2.78c-1.4-.33-2.82-.56-4.2-.94-5-1.37-9.91-2.8-14.87-4.17a7.57,7.57,0,0,0-1.78,0c-3.36-.83-6.74-1.64-10.1-2.51-2.43-.62-4.85-1.3-7.27-2-3-.89-6-1.78-8.92-2.59s-6.24-1.51-9.4-2.35-6-1.78-8.92-2.62-5.78-1.56-8.68-2.32c-3.46-.89-6.94-1.78-10.41-2.73-3.12-.84-6.25-1.73-9.34-2.59l-11.42-3.11c-2.89-.79-5.77-1.59-8.66-2.37l-10.07-2.67-10-2.68c-3.12-.89-6.25-1.65-9.36-2.51-3.56-1-7.13-2-10.7-3a5.53,5.53,0,0,0-1.18-.73c-3.57-1-7.14-2-10.7-2.94l-10-2.68-8.92-2.4-7.36-2.08-11.37-3-5.33-1.43-9.52-2.73-10.31-2.68c-2.06-.53-4.12-1-6.17-1.62-3.07-.89-6.12-1.86-9.19-2.75a8.17,8.17,0,0,0-1.78-.14q-7.14-1.92-14.27-3.8a2.39,2.39,0,0,1-1.84-2,22.26,22.26,0,0,1-.32-3.91v-130c0-.84,0-1.68,0-2.52a3.14,3.14,0,0,1,2-3.43c1.39.34,2.78.65,4.14,1,3,.84,5.91,1.79,8.92,2.56a4.76,4.76,0,0,0,1.41,0h0c.08.09.15.23.24.25,4.46,1.29,8.85,2.59,13.29,3.84,3.87,1.08,7.76,2.11,11.65,3.18,4.46,1.85,9.16,2.68,13.72,4.06,5.26,1.59,10.7,2.67,16,4.22s10.71,2.68,15.91,4.46c4,1.32,8.11,2.06,12.18,3.06a7.63,7.63,0,0,0,1.31.57c3.45.89,7,1.47,10.36,2.6,3.62,1.22,7.33,2,11,3.07,5.83,1.64,11.72,3.11,17.59,4.65a3.49,3.49,0,0,0,.89.53l10.7,2.68c2,.49,3.92,1,5.86,1.53,3.32,1,6.59,2.07,9.93,3,5.35,1.46,10.82,2.77,16.22,4.24,4.94,1.34,9.81,2.83,14.86,3.84a7.77,7.77,0,0,0,1.32.58c4.42,1.07,8.81,2.21,13.15,3.57,3.42,1.07,7,1.73,10.45,2.61,3.24.83,6.48,1.7,9.71,2.56l5.49,1.42,8.91,2.31c4.72,1.33,9.44,2.68,14.16,4,3.91,1.09,7.83,2.14,11.76,3.21.18.14.34.37.55.42,5.19,1.36,10.39,2.68,15.56,4.07s10.34,2.92,15.5,4.39c2.87.81,5.74,1.62,8.61,2.4q5.36,1.44,10.7,2.84c3,.8,6,1.58,9,2.34,1.16.29,2.34.55,3.49.9,3.23.89,6.42,1.9,9.68,2.72,4.09,1,4.11,1,4.11,5.22V781.14a21,21,0,0,0,0,2.51,3.43,3.43,0,0,0,2.28,2.88c1,.37,2.12.42,3.14.74,5,1.54,10.07,3.14,15.16,4.66a35.71,35.71,0,0,0,4.23.89,1.46,1.46,0,0,0,1.8-1,1.7,1.7,0,0,0,0-.22,8.83,8.83,0,0,0,.21-1.78c0-2.28.09-4.55.09-6.84V204.49c0-4.18.56-4.57,4.71-3.41,1.62.46,3.2,1,4.83,1.47,3.35.89,6.73,1.7,10.09,2.57,2.2.58,4.39,1.21,6.58,1.79,3.57,1,7.13,1.92,10.7,3,3.22.89,6.41,1.94,9.61,2.91,0,1.45.08,2.88.08,4.33V895.44c0,1.21-.07,2.4-.1,3.57a15.46,15.46,0,0,1-3.9-.31c-3.4-1.18-6.92-1.88-10.37-2.85-4.83-1.35-9.69-2.6-14.52-3.92-3.57-1-7.14-2-10.7-3-5.19-1.39-10.41-2.67-15.6-4.11s-10.36-2.93-15.55-4.38q-4.14-1.17-8.31-2.26c-3.93-1-7.88-2-11.79-3.07-4.85-1.31-9.68-2.75-14.53-4.06-5.41-1.46-10.86-2.82-16.28-4.27-3.24-.89-6.45-1.84-9.67-2.73-2.88-.8-5.77-1.59-8.66-2.35-3.11-.82-6.25-1.58-9.36-2.43s-6.24-1.78-9.32-2.62a10.25,10.25,0,0,0-2.14-.11q-3.64-.94-7.27-1.92c-2.42-.64-5.07-1.33-7.6-2-2.86-.82-5.7-1.71-8.57-2.51a7.65,7.65,0,0,0-1.79-.06h0l-1.46-.71a9.18,9.18,0,0,0-3.93-1.54c-3.36-.84-6.72-1.69-10.06-2.61s-6.63-2-10-2.94-6.67-1.58-10.06-2.41c-2.2-.56-4.39-1.15-6.57-1.79-3.33-1-6.63-2-10-2.94-5.65-1.54-11.31-3-16.94-4.46-3.23-.89-6.43-1.84-9.67-2.67-3-.81-6-1.51-9-2.3-3.7-1-7.38-2-11.07-3l-15.21-4.09c-4-1.09-8.1-2.1-12.1-3.32-3.57-1.07-7.13-1.78-10.7-3s-7.42-1.85-11.1-2.85c-7.73-2.11-15.41-4.39-23.19-6.41-2.09-.54-4.12-1.22-6.19-1.78-6.24-1.69-12.48-3.32-18.72-5-.89-.25-1.85-.53-2.77-.77l-8.27-2.23c-.51-.89-1.35-.73-2.16-.74h0C1064.53,791.36,1063.4,791.77,1062.38,791.72Z"/><path id="Path_769" data-name="Path 769" class="cls-3" d="M1527.31,177.27c-5.68,1.5-11.36,3-17,4.46-11.59,3-23.18,6-34.77,9a10.83,10.83,0,0,1-5.65,0q-24.74-6.34-49.5-12.61c-1-.27-2.07-.58-3.16-.89-.11-1.39.79-2.26,1.37-3.25q11.32-19.41,22.7-38.82,14.4-24.54,28.77-49.1c.65-1.1,1.09-2.38,2.25-3.14C1474.43,85.66,1526.31,174.6,1527.31,177.27Z"/><path id="Path_770" data-name="Path 770" class="cls-3" d="M1529,555.91a6.59,6.59,0,0,1,.61,1.62c.1,1.07,0,2.15,0,3.24v231.9a131.84,131.84,0,0,0,13.35-3.95c2.35-.85,4.79-1.42,7.2-2.09.45-.13,1-.06,1.42-.22,2.41-.9,3.47-.38,3.33-4.11V196.23c0-3.84,0-4.07,4.39-5.09a29.54,29.54,0,0,0,3.09-.89c.34-.1.66-.4,1-.4,3.67,0,6.91-1.78,10.42-2.54a98.23,98.23,0,0,0,10-2.68v.77a22,22,0,0,1-2.6,1.1c-3.23.89-6.49,1.57-9.72,2.45a36.6,36.6,0,0,0-3.65,1.4c-3.56.19-6.69,1.78-10.12,2.41a2.57,2.57,0,0,0-2,2.68V784c-.11,1.82-.46,2.2-2.22,2.81s-3.57.54-5,1.84c-1.23.17-2.55-.12-3.57.83l-1.5.65c-1.78.41-3.5.77-5.22,1.26-2.54.72-5,1.56-7.57,2.32a1.23,1.23,0,0,1-1.53-.82,1,1,0,0,1,0-.24c-.1-1.07-.12-2.15-.12-3.23V560.22A41.34,41.34,0,0,1,1529,555.91Z"/><path id="Path_771" data-name="Path 771" class="cls-3" d="M1483.54,899.78c0-1.32-.08-2.67-.08-4V217.07c0-1.32,0-2.67.11-4a1.9,1.9,0,0,1,1.56-1.78c4.17-1.05,8.33-2.12,12.43-3.45a7.6,7.6,0,0,1,1.78-.21v.67a31.35,31.35,0,0,1-3,1.14q-5.11,1.34-10.26,2.56c-1.18.27-2,.78-1.78,2.14,0,2.15-.08,4.32-.08,6.48V896c0,1.2.12,2.39.18,3.57a3.61,3.61,0,0,1-.25.3,4.48,4.48,0,0,0-.64-.05Z"/><path id="Path_772" data-name="Path 772" class="cls-3" d="M1460.35,212.79c-3.2-1-6.39-2-9.61-2.91-3.57-1-7.13-2-10.7-3-2.2-.59-4.38-1.22-6.58-1.78-3.36-.89-6.74-1.68-10.1-2.57-1.62-.44-3.21-1-4.82-1.47-4.16-1.16-4.68-.77-4.72,3.41V783c0,2.29,0,4.57-.09,6.84a9.81,9.81,0,0,1-.2,1.79,1.46,1.46,0,0,1-1.63,1.27l-.22,0a38.17,38.17,0,0,1-4.22-.9c-5-1.51-10.07-3.12-15.16-4.65-1-.32-2.14-.38-3.14-.75a7.47,7.47,0,0,1-1.67-1.24c.08-.32.17-.63.25-.95a4.43,4.43,0,0,0,3.11,1.61,7.29,7.29,0,0,1,2.1.44c2.84.89,5.61,2.1,8.51,2.75a68.39,68.39,0,0,1,6.81,2.07,6.81,6.81,0,0,0,1.41.3c2.31.26,3-.33,3.11-2.74.08-1.92.06-3.84.06-5.77V205.56a27.74,27.74,0,0,1,.49-5c.26-1.33.85-1.65,2.06-1.25,2.51.82,5.21.89,7.59,2.19a7,7,0,0,0,2.12.38,6,6,0,0,1,1.78.31,26.92,26.92,0,0,0,5.51,1.58c3.34.89,6.62,2.12,10,2.82s6.83,2.11,10.41,2.67a67.19,67.19,0,0,1,6.52,1.85,1.25,1.25,0,0,1,1.07,1.44,1.74,1.74,0,0,1-.05.22Z"/><path id="Path_773" data-name="Path 773" class="cls-3" d="M1387.76,784.34c-.08.32-.17.63-.25.94a7.1,7.1,0,0,1-.61-1.63,17.52,17.52,0,0,1,0-2.51V197c0-4.26,0-4.2-4.11-5.22-3.26-.81-6.45-1.79-9.68-2.72-1.16-.32-2.33-.58-3.49-.89v-.73a14.8,14.8,0,0,1,6.28,1.4,3.46,3.46,0,0,0,1.35.47c2.83,0,5.26,1.6,8,2,1.64.21,2.26,1,2.43,2.67a27.69,27.69,0,0,1,.07,2.88v585C1387.69,782.66,1387.76,783.5,1387.76,784.34Z"/><path id="Path_774" data-name="Path 774" class="cls-3" d="M1528.94,555.91c-.06,1.44-.18,2.87-.18,4.31V789.45a31.59,31.59,0,0,0,.11,3.23,1.22,1.22,0,0,0,1.34,1.1.85.85,0,0,0,.23,0c2.53-.76,5-1.6,7.57-2.32,1.72-.49,3.48-.89,5.23-1.26l.11.13V791c-1.5.4-3,.76-4.46,1.21-2.39.74-4.74,1.58-7.13,2.29a5.93,5.93,0,0,1-2.14.09,1.38,1.38,0,0,1-1.38-1.36v0c-.07-1.32-.08-2.67-.08-4V202h.74V551.23C1528.88,552.79,1528.92,554.4,1528.94,555.91Z"/><path id="Path_775" data-name="Path 775" class="cls-3" d="M1278,305a6.63,6.63,0,0,1,1.78,0c5,1.36,9.91,2.8,14.87,4.16,1.38.38,2.8.61,4.2.94a2.57,2.57,0,0,1,2.29,2.78c.06.84,0,1.67,0,2.51V430.78c0,1.09,0,2.17-.07,3.25a1.46,1.46,0,0,1-1.44,1.49,1.39,1.39,0,0,1-.6-.11,49.28,49.28,0,0,0-5.84-1.68c-7.75-2.09-15.46-4.34-23.18-6.46-5.19-1.41-10.43-2.67-15.63-4.07-3.35-.89-6.67-1.9-10-2.81-3.69-1-7.41-1.89-11.11-2.89s-7.36-2.05-11-3.07q-6.26-1.74-12.49-3.44c-5.08-1.38-10.16-2.72-15.24-4.1q-8.31-2.26-16.62-4.57c-2.31-.62-4.61-1.27-6.93-1.86-4.51-1.17-9-2.3-13.5-3.68-5-1.54-10.16-2.67-15.25-4a2.65,2.65,0,0,1-.6-.38l1.71-.22a6.93,6.93,0,0,1,1.44.1c3.22.9,6.43,1.88,9.66,2.76s6.24,1.61,9.36,2.41c.81.21,1.62.41,2.43.64,3.78,1.11,7.56,2.23,11.42,3.07,3.26.72,6.42,1.84,9.65,2.76,3,.84,6,1.68,9,2.49,3.68,1,7.41,1.79,11.06,3,3.17,1,6.5,1.6,9.73,2.48s6.67,1.91,10,2.88a5,5,0,0,0,1,.35,33.24,33.24,0,0,1,6.59,1.7c3.1.89,6.28,1.49,9.4,2.34s6.42,1.89,9.63,2.82a60.15,60.15,0,0,0,6.57,1.78c3.44.58,6.61,2.11,10.08,2.59a45.88,45.88,0,0,1,5.87,1.6c3.34.94,6.67,1.9,10,2.8q6.4,1.74,12.82,3.37a.88.88,0,0,0,1.17-.46.91.91,0,0,0,.07-.43c.07-.83.1-1.67.09-2.51V315.44c0-3.71-.35-4.07-3.9-4.69a15.47,15.47,0,0,1-3.48-.89,15.7,15.7,0,0,0-5.57-1.27,4.54,4.54,0,0,0-3.69-1.33l-1.34-.13a9.15,9.15,0,0,0-4.39-1.41h0A5.21,5.21,0,0,1,1278,305Z"/><path id="Path_776" data-name="Path 776" class="cls-3" d="M1207.44,550.83c5.9,1.55,11.83,3,17.7,4.68,3.57,1,7.19,1.78,10.7,3,3.27,1.12,6.73,1.67,10.08,2.55,3.13.82,6.25,1.78,9.35,2.61s6.47,1.65,9.7,2.52c2.67.71,5.26,1.59,8,2.22,5.13,1.18,10.15,2.83,15.23,4.23,3.57,1,7.18,1.87,10.77,2.78,1.53.38,2,.89,2.18,2.42.09.95.05,1.91.05,2.88V707.94c0,1.26.5,2.68-.83,3.67l0-.81c0-1.56.11-3.11.11-4.67V581.48c0-4.69,0-4.59-4.46-5.63-3.37-.79-6.68-1.88-10-2.84-.58-.17-1.15-.35-1.73-.5-4-1.1-8.07-2.23-12.12-3.29-3.35-.89-6.73-1.65-10.09-2.51-2.2-.56-4.39-1.19-6.57-1.78-3.22-.89-6.42-1.89-9.66-2.77s-6.72-1.71-10.07-2.57c-2.21-.58-4.39-1.17-6.57-1.79-3.23-.89-6.45-1.86-9.68-2.74s-6.7-1.79-10.07-2.62a7.43,7.43,0,0,1-3.57-1.48Z"/><path id="Path_777" data-name="Path 777" class="cls-3" d="M1299.61,856.6a10.21,10.21,0,0,1,2.14.1c3.12.83,6.25,1.79,9.33,2.63s6.25,1.61,9.35,2.43q4.33,1.15,8.66,2.35c3.23.89,6.44,1.86,9.68,2.72,5.42,1.46,10.86,2.81,16.28,4.27,4.85,1.31,9.67,2.75,14.52,4.07,3.92,1.06,7.87,2,11.8,3.07q4.17,1.1,8.31,2.26c5.19,1.45,10.35,3,15.54,4.38s10.41,2.72,15.6,4.11c3.56,1,7.13,2,10.7,3,4.83,1.32,9.69,2.57,14.52,3.92,3.45,1,7,1.67,10.37,2.85a15.46,15.46,0,0,0,3.9.31,1,1,0,0,1-.74,1.28,1.07,1.07,0,0,1-.47,0,22.06,22.06,0,0,1-3.5-.76c-3.7-1-7.38-2-11.06-3.05-1.15-.31-2.3-.68-3.44-1-.9-.26-1.84-.51-2.78-.72a19.26,19.26,0,0,1-2.12-.39,127.87,127.87,0,0,0-12.48-3.42c-3.36-.82-6.65-2-10-3-2.06-.62-4.2-.74-6.25-1.56a57.94,57.94,0,0,0-8.29-2.33c-3.82-.94-7.64-1.92-11.41-3.06-3-.89-6-1.56-9-2.32-.47-.12-1-.18-1.4-.31-3.21-1-6.4-2-9.61-2.86s-6.51-1.59-9.74-2.46-6.66-1.9-10-2.86c-.8-.22-1.62-.42-2.43-.63l-3.8-1c-3-.83-6-1.71-9-2.49-3.71-.94-7.43-1.78-11-3a22.72,22.72,0,0,0-2.79-.69c-.59-.12-1.21-.1-1.79-.27l-8.91-2.68c-3-.89-5.77-1.54-8.66-2.31C1299.61,857,1299.61,856.8,1299.61,856.6Z"/><path id="Path_778" data-name="Path 778" class="cls-3" d="M1278,305a5,5,0,0,0,0,.67,9.73,9.73,0,0,1-5.92-1,8.53,8.53,0,0,0-3.08-.89c-1.33-.17-2.54-.77-3.78-1-3.07-.6-6-1.71-8.92-2.53-1.59-.43-3.34-.27-4.74-1.39a.55.55,0,0,0-.33-.11c-3.74.36-6.79-2.3-10.44-2.37-2.88-1.54-6.19-1.63-9.23-2.68s-6.06-2.21-9.33-2.39a10,10,0,0,1-2.07-.58c-2-.51-4-1-5.89-1.56s-4-1.68-6.24-1.52c-2.38-1.21-5-1.47-7.53-2.3a15,15,0,0,0-5.19-1.25c-3.12-1.63-6.78-1.42-9.93-3a2.74,2.74,0,0,0-1-.38c-3.42,0-6.52-1.5-9.67-2.48-3-.89-6-1.33-8.92-2.41-2.31-.89-4.87-1.11-7.13-2.24a.72.72,0,0,0-.35-.11c-3.33.2-6.24-1.6-9.37-2.17-2.46-.44-4.68-1.79-7.28-1.79-.68,0-1.36-.89-2-1.29.77.17,1.54.39,2.32.51s1.78.19,2.68.27q5.34,1.5,10.7,3c3.11.9,6.24,1.67,9.35,2.52l10,2.67,10.08,2.68,8.65,2.36,11.43,3.11c3.11.9,6.24,1.79,9.33,2.6,3.47.89,7,1.78,10.42,2.73,2.9.76,5.79,1.5,8.67,2.32s6,1.78,8.92,2.62,6.25,1.5,9.41,2.34,6,1.74,8.91,2.6c2.42.68,4.84,1.36,7.27,2C1271.26,303.38,1274.64,304.19,1278,305Z"/><path id="Path_779" data-name="Path 779" class="cls-3" d="M1038.62,98.16a3.12,3.12,0,0,0-2,3.43c.06.84,0,1.69,0,2.53v130a22.45,22.45,0,0,0,.31,3.92,2.42,2.42,0,0,0,1.85,2c4.75,1.24,9.48,2.52,14.26,3.79v.66a11.65,11.65,0,0,1-2.5-.12c-3.23-.89-6.44-1.84-9.65-2.76-.89-.27-1.84-.54-2.77-.78a3,3,0,0,1-2.41-2.78c-.07-.72-.07-1.44-.07-2.16V99.49a1.48,1.48,0,0,1,.06-.66c.47-.33.89-.69,1.43-1a.9.9,0,0,1,1.26-.06A.76.76,0,0,1,1038.62,98.16Z"/><path id="Path_780" data-name="Path 780" class="cls-3" d="M1126.58,664.81a12,12,0,0,1-1.78-.23c-5.27-1.49-10.53-3.06-15.81-4.53-4.46-1.25-9-2.45-13.5-3.56s-8.73-2.4-13.09-3.62c-3.1-.89-6.24-1.55-9.36-2.39-5.41-1.47-10.8-3-16.2-4.46-2.67-.72-5.35-1.4-7.95-2.12-3.8-1-7.62-2-11.38-3.15a9.32,9.32,0,0,0-3.89-.37c0-.29,0-.6-.06-.89,1.78-.62,3.5,0,5.21.46,4,1.06,8.09,2.13,12.12,3.25,3,.83,6,1.78,8.92,2.6,3.23.89,6.48,1.65,9.71,2.52,1.38.37,2.68.9,4.11,1.29,3.24.84,6.52,1.55,9.76,2.41s6.43,1.88,9.63,2.83a4.28,4.28,0,0,0,.68.25c3.15.21,6,1.62,9,2.32,3.38.77,6.7,1.83,10,2.73s6.49,1.66,9.7,2.55c1.39.38,2.68.89,4.08,1.39A5.79,5.79,0,0,1,1126.58,664.81Z"/><path id="Path_781" data-name="Path 781" class="cls-3" d="M1300.28,710.79l0,.81a6.63,6.63,0,0,1-1.78,0c-3.35-.9-6.66-2-10-2.92q-3.1-.88-6.24-1.68c-3.48-.89-7-1.73-10.45-2.63-1.85-.47-3.69-1-5.53-1.53-6-1.68-12-3.37-18-5-5.42-1.46-10.87-2.83-16.29-4.29-3.12-.83-6.25-1.78-9.34-2.68s-6.24-1.58-9.35-2.44-6.42-1.86-9.63-2.8v-.89c3.08,1,6.29,1.34,9.35,2.51a71.82,71.82,0,0,0,8.67,2.17c.7.17,1.39.37,2.08.56,3.81,1,7.63,2,11.44,3,3.33.89,6.65,2,10,2.92,2.87.82,5.75,1.62,8.65,2.38,3.81,1,7.65,1.83,11.41,3.07,2.94,1,6,1.56,9,2.31.82.21,1.65.36,2.44.61,3.88,1.23,7.8,2.26,11.76,3.17,3.26.73,6.41,1.94,9.61,2.9A14.05,14.05,0,0,0,1300.28,710.79Z"/><path id="Path_782" data-name="Path 782" class="cls-3" d="M1074.79,376.59V377c0,1.44-.08,2.87-.08,4.31V510.8c0,1.32,0,2.63.08,3.95l-.11.11a9.13,9.13,0,0,1-.69-2q-.08-1.62,0-3.24V378.91c0-1.39-.5-2.91.67-4.12Z"/><path id="Path_783" data-name="Path 783" class="cls-3" d="M1869.87,375c0,1.07.08,2.16.08,3.24v133c0,1.21,0,2.4-.06,3.57l-.79-.07c0-1.2.08-2.4.08-3.57V378.36c0-1.07-.1-2.14-.16-3.22l.2-.21C1869.44,375,1869.66,375,1869.87,375Z"/><path id="Path_784" data-name="Path 784" class="cls-3" d="M1908.15,99.55V235.11c0,1.2,0,2.39-.05,3.57h-.68l-.15-.12v-139Z"/><path id="Path_785" data-name="Path 785" class="cls-3" d="M1643.61,709.55v.57c0,.19-.1.58-.15.89-1.13-1.24-.6-2.75-.6-4.14q-.06-62.42,0-124.83a27.67,27.67,0,0,1,0-2.88,7.19,7.19,0,0,1,.58-1.63c0,1.91.07,3.83.07,5.75v122C1643.53,706.68,1643.58,708.12,1643.61,709.55Z"/><path id="Path_786" data-name="Path 786" class="cls-3" d="M1643.61,709.55c0-1.45-.08-2.88-.08-4.32v-122c0-1.92,0-3.84-.06-5.75h.72l.07.09V705.44C1644.2,706.79,1644.66,708.3,1643.61,709.55Z"/><path id="Path_787" data-name="Path 787" class="cls-3" d="M1644.27,312.25V429.56c0,1.08,0,2.16,0,3.24,0,.89.64,1.2,1.41,1.33-.5.84-1.29.69-2.06.63,0-1.2-.09-2.39-.09-3.56V316.33a27.68,27.68,0,0,1,.06-2.88,4.24,4.24,0,0,1,.62-1.24Z"/><path id="Path_788" data-name="Path 788" class="cls-3" d="M1626.73,173.54a9.27,9.27,0,0,1,1.78-1.1c2.6-.8,5.22-1.61,7.87-2.2a30.85,30.85,0,0,0,6.19-1.7,8.2,8.2,0,0,1,2.07-.48,6.67,6.67,0,0,0,1.78-.21c2.68-1.43,5.74-1.53,8.54-2.53,3-1.07,6.18-1.65,9.28-2.45.69-.18,1.38-.38,2.06-.61a100.39,100.39,0,0,1,11.73-3c.58-.13,1.14-.36,1.71-.53l9.94-2.89v.79a13.9,13.9,0,0,1-1.92.89c-3.08.89-6.19,1.68-9.27,2.53-1.72.47-3.42,1-5.15,1.46-3.44.89-6.91,1.73-10.35,2.68a13.39,13.39,0,0,0-2.25,1c-1.41.26-2.83.45-4.21.82l-9.7,2.67q-5.88,1.62-11.78,3.2c-2.42.65-4.85,1.29-7.29,1.88A2.57,2.57,0,0,1,1626.73,173.54Z"/><path id="Path_789" data-name="Path 789" class="cls-3" d="M1075.54,514.77a13.65,13.65,0,0,0,2,.85c5,1.38,10.11,2.73,15.16,4.09l11,3,15.51,4.18q7.42,2,14.83,4c.21.05.37.29.54.46l-1.56.14-6.59-1.7c-2.67-.69-5.35-1.38-7.94-2.1-1.83-.5-3.66-1.05-5.48-1.59-2-.61-4.19-.73-6.25-1.56a53.65,53.65,0,0,0-8.24-2.32,119.29,119.29,0,0,1-12.06-3.28,10.79,10.79,0,0,0-1.38-.37c-2.77-.67-5.55-1.32-8.31-2a2.61,2.61,0,0,1-2.12-1.71l.11-.1Z"/><path id="Path_790" data-name="Path 790" class="cls-3" d="M1369.56,187.46v.72l-9-2.34c-3.56-.94-7.13-1.88-10.7-2.85-2.87-.77-5.74-1.59-8.61-2.4-5.16-1.46-10.32-3-15.5-4.38s-10.37-2.68-15.56-4.07c-.21-.06-.37-.29-.55-.42l1.59-.21a18.14,18.14,0,0,1,4.87,1.12,88.38,88.38,0,0,0,8.63,2.44q5.92,1.4,11.74,3.18a51.4,51.4,0,0,0,6.57,1.78c3.43.58,6.61,2.09,10.07,2.58a27.76,27.76,0,0,1,6.19,1.72C1362.66,185.6,1366.36,185.62,1369.56,187.46Z"/><path id="Path_791" data-name="Path 791" class="cls-3" d="M1626.73,173.54a2.65,2.65,0,0,0,1,.21c2.44-.59,4.87-1.23,7.29-1.88q5.89-1.58,11.78-3.2c3.24-.89,6.46-1.86,9.7-2.68,1.38-.36,2.8-.55,4.21-.82H1663c-2.12,1.14-4.59,1-6.79,2a49.52,49.52,0,0,1-6.55,1.78c-2.18.62-4.66.79-6.92,1.79-2,.89-4.37,1.11-6.52,1.9s-4.38,1-6.55,1.71c-3.38,1.14-7,1.72-10.42,2.61a67.78,67.78,0,0,0-8.26,2.39c-2.8,1.11-5.9,1-8.59,2.35V181c1.2-.44,2.37-1,3.57-1.33,2.45-.75,4.92-1.44,7.38-2.15a1.32,1.32,0,0,0,.59-.07,2.29,2.29,0,0,0,2.18-.71c1.27-.27,2.59-.42,3.83-.81,2.23-.71,4.64-.89,6.61-2.38Z"/><path id="Path_792" data-name="Path 792" class="cls-3" d="M1136,124.78c-4.06-1-8.22-1.79-12.17-3.06-5.24-1.79-10.64-2.84-15.91-4.46s-10.69-2.68-16-4.23c-4.56-1.37-9.3-2.21-13.72-4.06l1.6-.19a12.91,12.91,0,0,1,2.14.27c3.32,1,6.63,2,10,3,2.16.64,4.39.89,6.56,1.68,3.13,1.12,6.47,1.65,9.7,2.48,2.89.74,5.79,1.46,8.63,2.36,3.57,1.11,7.14,2,10.7,2.89,1.28.33,2.5.81,3.77,1.17,1.59.46,3.19.89,4.79,1.32Z"/><path id="Path_793" data-name="Path 793" class="cls-3" d="M1234.73,151.47c-5-1-9.92-2.5-14.86-3.84-5.4-1.48-10.83-2.78-16.22-4.24-3.33-.89-6.61-2-9.92-3-2-.56-3.91-1-5.87-1.53l-10.7-2.68a3.36,3.36,0,0,1-.89-.54l1.68-.1a16,16,0,0,1,5.59,1.11c1.23.44,2.53.69,3.79,1,2.42.64,4.84,1.24,7.25,1.91,3.21.89,6.4,1.89,9.61,2.76s6.7,1.7,10,2.57c2.3.59,4.61,1.19,6.89,1.85,3.21.89,6.38,1.92,9.58,2.85,1.37.4,2.75.68,4.13,1A4.48,4.48,0,0,0,1234.73,151.47Z"/><path id="Path_794" data-name="Path 794" class="cls-3" d="M1759.58,545.82a4.34,4.34,0,0,0-.71.06c-3.08.89-6.11,2-9.23,2.68s-6.31,2.1-9.65,2.41a3.47,3.47,0,0,0-1,.23c-4.07,1.74-8.41,2.54-12.7,3.5a31.25,31.25,0,0,0-3,1,14.76,14.76,0,0,1-5.25,1c-.65-.06-1.25,0-1.57.69h0l-2.35-.11a13.93,13.93,0,0,1,2.54-1.25c5.74-1.54,11.51-3,17.26-4.46,2.3-.6,4.61-1.17,6.9-1.79,3.66-1,7.29-2.11,11-3.18a7.54,7.54,0,0,0,3.8-.67,8.39,8.39,0,0,1,4.13-.76C1759.59,545.38,1759.58,545.59,1759.58,545.82Z"/><path id="Path_795" data-name="Path 795" class="cls-3" d="M1688.25,698.72a6.64,6.64,0,0,0,2.13-.22c2.94-1.38,6.16-1.79,9.23-2.72,3.64-1.1,7.36-1.93,11-2.89.69-.18,1.36-.43,2-.67a6.1,6.1,0,0,1,1.32-.54c5.45-.67,10.45-3.18,15.88-3.92,3-1.51,6.49-1.46,9.56-2.77h2.23c-1.19.47-2.38.89-3.56,1.42-.53.21-1,.46-1.56.7h0a5.62,5.62,0,0,0-1.42,0q-7.24,1.95-14.47,3.95c-1.15.32-2.29.67-3.44,1l-7.56,2.22a2.81,2.81,0,0,0-.71,0c-5.49,1.49-11,3-16.47,4.46-1.37.36-2.79.49-4.19.73l-.14-.17a2.93,2.93,0,0,0,.11-.59Z"/><path id="Path_796" data-name="Path 796" class="cls-3" d="M1643.67,434.73c.76,0,1.56.2,2.06-.64l8.24-2.22c1.48-.41,3-.89,4.45-1.27,1.15-.31,2.3-.59,3.44-.89a5.63,5.63,0,0,0,1.4-.24c1.78-1,3.93-1,5.79-1.71,3.12-1.21,6.54-1.36,9.56-2.86,3.89,0,7.22-2.46,11.11-2.41v.7l-19.44,5.48c-2.08.59-4.15,1.21-6.25,1.79-3.36.89-6.76,1.63-10.11,2.54-1.79.5-3.57,1.21-5.35,1.82h0l-3,.67a1.79,1.79,0,0,1-2.14-.56Z"/><path id="Path_797" data-name="Path 797" class="cls-3" d="M1741.66,685h-2.24c.17-.16.35-.45.53-.46,3.73-.17,7-2.34,10.7-2.51,2.87-1.53,6.16-1.63,9.21-2.68a41.65,41.65,0,0,1,9.27-2.43c1.38-.13,2.67-1,4.06-1.31,4.58-1.25,9.19-2.43,13.79-3.63v.83a18.25,18.25,0,0,1-2.26,1c-3.09.89-6.24,1.69-9.31,2.53a4.79,4.79,0,0,0-1.07,0q-6.19,1.67-12.37,3.36c-5.86,1.61-11.7,3.27-17.56,4.86a23.48,23.48,0,0,1-2.75.44Z"/><path id="Path_798" data-name="Path 798" class="cls-3" d="M1133,531.5l1.56-.14,11.44,3c2.3.62,4.58,1.27,6.88,1.9,5.63,1.57,11.25,3.15,16.89,4.69,2.67.73,5.29,1.39,8,2.08,0,.22,0,.44.07.65a7.05,7.05,0,0,1-2.82-.13c-2.83-1.39-6-1.69-8.92-2.56-3.16-.89-6.29-2.17-9.63-2.47a8.75,8.75,0,0,1-2.74-.81,10.23,10.23,0,0,0-4.46-1.19,1.55,1.55,0,0,1-.71-.1c-2.16-1.07-4.57-1.29-6.83-2a34.73,34.73,0,0,0-6.25-1.67A8.13,8.13,0,0,1,1133,531.5Z"/><path id="Path_799" data-name="Path 799" class="cls-3" d="M1714,557.3l2.34.11c-.08.08-.15.21-.26.24l-9.95,2.67c-.69.19-1.36.44-2,.68a9.08,9.08,0,0,1-1.33.55c-4.61.67-9,2.31-13.43,3.56a21.34,21.34,0,0,1-3.19.36,1.35,1.35,0,0,0-1.56.64h0l-1.45.69a3.12,3.12,0,0,1-.68.05c-1,.06-2.12-.34-2.92.66h-.74v-.81c4.24-1.22,8.47-2.45,12.7-3.65,3.67-1,7.36-2,11-3,2.88-.8,5.74-1.65,8.64-2.38A17.9,17.9,0,0,1,1714,557.3Z"/><path id="Path_800" data-name="Path 800" class="cls-3" d="M1717.08,148.61c4-1.23,8.13-1.85,12-3.43,5.46-.7,10.5-3,15.9-4a71.11,71.11,0,0,0,9.25-2.74,14.16,14.16,0,0,1,4.56-.76l1.57.1a8.31,8.31,0,0,1-1.61.64,39.29,39.29,0,0,0-7.1,2.24h0a6.74,6.74,0,0,0-1.42,0c-4.82,1.31-9.64,2.62-14.44,4a16.87,16.87,0,0,0-2.26,1,25.38,25.38,0,0,0-3.48.51c-3.29.89-6.53,2-9.81,2.89a18.5,18.5,0,0,1-3.15.33C1717.09,149.11,1717.08,148.86,1717.08,148.61Z"/><path id="Path_801" data-name="Path 801" class="cls-3" d="M1177.9,135.55l-1.69.1c-5.86-1.53-11.75-3-17.58-4.64-3.66-1-7.37-1.85-11-3.07-3.37-1.13-6.91-1.78-10.37-2.6a8,8,0,0,1-1.31-.57l.06-.89c3.08.89,6.24,1.39,9.31,2.5a76.16,76.16,0,0,0,8.29,2.09c.69.17,1.4.32,2.08.51,4.14,1.12,8.26,2.28,12.4,3.39,2.53.67,4.94,1.78,7.6,2A7.94,7.94,0,0,1,1177.9,135.55Z"/><path id="Path_802" data-name="Path 802" class="cls-3" d="M1719.33,291.4a3.55,3.55,0,0,1-.9.58c-1.94.54-3.9,1-5.86,1.55s-3.71,1.52-5.84,1.56c-1.49,0-3,.89-4.46,1.36-1.79.58-3.63,1.14-5.45,1.71-.22.07-.45.25-.67.25-3.66-.08-6.78,2.27-10.41,2.38a9.67,9.67,0,0,0-2,.7c-.89.25-1.83.43-2.75.63v-.74c3.66-1.79,7.71-2.31,11.59-3.46,4.31-1.3,8.75-2.1,13-3.71,1.27-.22,2.57-.39,3.82-.69,3-.73,6-1.52,9-2.29Z"/><path id="Path_803" data-name="Path 803" class="cls-3" d="M1681,301.37v.75l-2.06.1-.81.63c-.68.24-1.34.53-2,.72-1.5.39-3,.68-4.52,1.12a15.08,15.08,0,0,1-4.87,1.11,1.4,1.4,0,0,0-.7.09c-2.59,1.36-5.51,1.57-8.24,2.4a82.86,82.86,0,0,1-12.78,3.26l-.09-.07v-.75a4.81,4.81,0,0,1,.94-.46,107.32,107.32,0,0,0,13.54-3.76c1-.16,2.1-.29,3.13-.51,1.49-.33,3-.71,4.45-1.12,3.19-.89,6.39-1.71,9.53-2.72a12.55,12.55,0,0,1,4.5-.79Z"/><path id="Path_804" data-name="Path 804" class="cls-3" d="M1712,416c.17-.15.35-.41.55-.43,2.17-.15,4.14-1.05,6.25-1.56,4.17-1,8.28-2.18,12.36-3.47a11,11,0,0,1,1.79-.3,13.66,13.66,0,0,0,2.11-.35c2.49-.81,4.87-2,7.57-2,1.88-1.2,4.13-1.14,6.17-1.78a7.47,7.47,0,0,1,1.42-.19l1.54.05c-.18.16-.34.39-.55.45l-16.28,4.46c-3,.8-6,1.54-9,2.37s-6.25,1.78-9.34,2.63a18.23,18.23,0,0,1-2.86.28l-1.62-.07Z"/><path id="Path_805" data-name="Path 805" class="cls-3" d="M1751.7,406l-1.54-.05a2.83,2.83,0,0,1,.89-.61c3-.79,5.93-1.55,8.92-2.32.68-.18,1.38-.36,2-.59a96,96,0,0,1,12-3.09c.58-.13,1.13-.37,1.7-.54l9.86-2.89a4.68,4.68,0,0,0,.05.84c-1.41,1.35-3.32,1.16-5,1.63l-19.54,5.48a8,8,0,0,0-4.38,1.35,4.51,4.51,0,0,0-2.93.66Z"/><path id="Path_806" data-name="Path 806" class="cls-3" d="M1074.79,376.59l-.14-1.78c1.65-1.4,3.4-.59,5.1-.21s3.23.84,4.83,1.3l9.94,2.84c.89.26,1.87.38,2.76.7,3.71,1.32,7.73,1.6,11.28,3.41v.71l-9.31-2.45-10.32-2.67c-3.57-1-7.13-2-10.63-3.1C1076.68,374.77,1075.52,375,1074.79,376.59Z"/><path id="Path_807" data-name="Path 807" class="cls-3" d="M1234.73,151.46a5.64,5.64,0,0,1,0-.82c3.06.89,6.24,1.36,9.25,2.51a59.3,59.3,0,0,0,6.52,1.78c3.22.81,6.47,1.54,9.68,2.4s6.12,1.78,9.18,2.68v.78c-3.24-.89-6.47-1.73-9.72-2.56-3.48-.89-7-1.53-10.44-2.61-4.34-1.37-8.74-2.51-13.15-3.57A7.86,7.86,0,0,1,1234.73,151.46Z"/><path id="Path_808" data-name="Path 808" class="cls-3" d="M1162.54,674.23a18.56,18.56,0,0,1-2.47-.33c-5.86-1.6-11.7-3.26-17.56-4.86-2.86-.78-5.76-1.44-8.62-2.22-1.27-.33-2.49-.82-3.73-1.24v-.76a5.93,5.93,0,0,1,1.78.24,12.23,12.23,0,0,0,4.47,1.2,3.49,3.49,0,0,1,1.38.29,26.08,26.08,0,0,0,5.47,1.56c3.21.9,6.37,1.92,9.57,2.82,1.38.39,2.81.54,4.18.89a43.9,43.9,0,0,0,7.23,1.88c.19,0,.35.29.53.45Z"/><path id="Path_809" data-name="Path 809" class="cls-3" d="M1144.61,269c-.89-.08-1.78-.12-2.67-.26s-1.55-.34-2.32-.51c-3.09-.81-6.19-1.59-9.26-2.43-3.42-.89-6.82-1.94-10.22-2.91a11.39,11.39,0,0,0-1.72-.43,19.3,19.3,0,0,1-6.41-2l1.79-.14,8.91,2.4,10,2.67c3.56,1,7.13,1.94,10.7,2.95a5,5,0,0,1,1.17.7Z"/><path id="Path_810" data-name="Path 810" class="cls-3" d="M1848.3,522.06c-5.76,1.47-11.6,2.75-17.23,4.45-3.62,1.12-7.35,1.85-10.94,3a14,14,0,0,1-2.81.41l-.08-.09a4.48,4.48,0,0,0,0-.64q7.74-2.06,15.46-4.13c4.23-1.14,8.46-2.33,12.7-3.46.92-.19,1.86-.35,2.8-.45C1848.27,521.51,1848.29,521.78,1848.3,522.06Z"/><path id="Path_811" data-name="Path 811" class="cls-3" d="M1177.8,543.7c0-.21,0-.44-.07-.65a9.39,9.39,0,0,1,2.12.06c3,.77,5.93,1.67,8.91,2.47,3.31.89,6.66,1.62,9.92,2.67,2.92.9,5.88,1.68,8.79,2.68l-1.66.12c-1.79-.33-3.57-.56-5.25-1-3-.8-5.94-1.79-8.92-2.59C1187,546.08,1182.4,544.87,1177.8,543.7Z"/><path id="Path_812" data-name="Path 812" class="cls-3" d="M1759.58,545.82v-.67c3.9-1.16,7.78-2.36,11.69-3.45s8.07-2.15,12.13-3.19c1.15-.29,2.34-.44,3.51-.66l2.23.07c-.17.15-.34.43-.53.44-3.56.21-6.79,1.95-10.28,2.62-1.78.35-3.56,1.22-5.46,1.41a28.08,28.08,0,0,0-5.08,1.54c-1.91.58-4,.65-5.78,1.66A6.43,6.43,0,0,1,1759.58,545.82Z"/><path id="Path_813" data-name="Path 813" class="cls-3" d="M1865,251.82a20.36,20.36,0,0,1-6.44,2.09,2.62,2.62,0,0,0-1,.18c-1.79,1-3.93,1-5.79,1.72-3.11,1.22-6.53,1.36-9.54,2.85-2.68-.08-5,1.48-7.6,1.79v-.72l6.13-1.82,11.92-3.38c3.11-.82,6.24-1.67,9.34-2.47.89-.24,1.88-.35,2.82-.53Z"/><path id="Path_814" data-name="Path 814" class="cls-3" d="M1717.08,148.61v.74a25.82,25.82,0,0,1-3,1.24c-2.85.82-5.72,1.54-8.59,2.31a6.09,6.09,0,0,0-4.46,1.32c-1.21.19-2.51-.1-3.57.74l-7.81,1.65v-.79a27.42,27.42,0,0,0,2.76-.63,112.19,112.19,0,0,1,12.37-3.18c1-.22,2-.71,3-1C1710.92,150.17,1714,149.2,1717.08,148.61Z"/><path id="Path_815" data-name="Path 815" class="cls-3" d="M1789.18,537.92l-2.24-.07c1-.43,1.93-.89,2.87-1.29.53-.25,1-.52,1.55-.78.7-.13,1.41-.2,2.09-.38l11.59-3.27c1.15-.19,2.3-.37,3.45-.6s2.52-.51,3.78-.77v.65c-3.56,1.05-7.07,2.18-10.63,3.15-2.88.78-5.81,1.34-8.7,2.07A38.77,38.77,0,0,0,1789.18,537.92Z"/><path id="Path_816" data-name="Path 816" class="cls-3" d="M1908.15,99.55h-.84c-1.5-1.24-3.17-.89-4.8-.39-5.18,1.44-10.35,2.94-15.53,4.39a20.47,20.47,0,0,1-2.47.39l-1.06-.2a21.2,21.2,0,0,1,6.44-2.07,6.56,6.56,0,0,0,1.4-.28c4.17-1.42,8.44-2.52,12.69-3.72a7.47,7.47,0,0,1,2.1-.31,2.48,2.48,0,0,1,1.64.5C1908.06,98.25,1908,99,1908.15,99.55Z"/><path id="Path_817" data-name="Path 817" class="cls-3" d="M1895.75,643.1l1,.17a1,1,0,0,1-.31.19c-5.17,1.39-10.36,2.73-15.52,4.16a15.29,15.29,0,0,0-2.54,1.24,16.06,16.06,0,0,0-5.52,1.1,12.69,12.69,0,0,1-5.15,1.12v-.69c3.8-1.07,7.58-2.18,11.39-3.21,3.45-.89,6.93-1.74,10.39-2.62a7.32,7.32,0,0,0,1.69-.57A8.88,8.88,0,0,1,1895.75,643.1Z"/><path id="Path_818" data-name="Path 818" class="cls-3" d="M1053,244.48v-.67a8.79,8.79,0,0,1,1.78.15c3.07.89,6.12,1.87,9.2,2.75,2,.59,4.11,1.09,6.17,1.62l10.3,2.68v.77a23.8,23.8,0,0,1-6.24-1.33c-3.15-1-6.4-1.67-9.6-2.51-.89-.23-1.78-.53-2.72-.78-1.49-.41-3-.75-4.46-1.2S1054.49,245,1053,244.48Z"/><path id="Path_819" data-name="Path 819" class="cls-3" d="M1613.35,177.48c-2.46.72-4.93,1.4-7.38,2.16-1.21.37-2.39.89-3.57,1.33-4.15.27-7.94,2.07-12,2.95a34.51,34.51,0,0,0-3.92,1.4h0l-2.85.08v-.77a12.64,12.64,0,0,0,2.11-.39c4.76-1.64,9.77-2.41,14.5-4,3.06-1,6.36-1.14,9.27-2.63a6.21,6.21,0,0,1,2.14-.23Z"/><path id="Path_820" data-name="Path 820" class="cls-3" d="M1719.33,291.4l-1-.16,3.16-1.23,2.13-.75a4.91,4.91,0,0,0,2.94-.72,1.3,1.3,0,0,0,.59-.08,7.84,7.84,0,0,0,4.4-1.4,27.27,27.27,0,0,0,2.83-.44c3.12-.8,6.24-1.67,9.33-2.5l1.59.1a7.17,7.17,0,0,1-3.23,1.44c-1.84.43-3.65,1.08-5.46,1.64-.24.07-.45.26-.67.26-3.67-.06-6.78,2.28-10.42,2.4a3.7,3.7,0,0,0-1.67.57A8.9,8.9,0,0,1,1719.33,291.4Z"/><path id="Path_821" data-name="Path 821" class="cls-3" d="M1805.06,390.83c5.61-1.45,11.22-2.88,16.82-4.38,2-.54,3.92-1.78,6.16-1.47l1.57.12a10.3,10.3,0,0,1-1.62.64,38.74,38.74,0,0,0-7.06,2.19l-13,3.57-2.82.12-.11-.13A3.68,3.68,0,0,0,1805.06,390.83Z"/><path id="Path_822" data-name="Path 822" class="cls-3" d="M1311.25,171.51l-1.59.2c-3.92-1.07-7.85-2.11-11.75-3.21-4.73-1.31-9.44-2.67-14.16-4v-.71c2.33.43,4.71.58,6.86,1.78a6.94,6.94,0,0,0,1.73.32c1.15.27,2.29.58,3.43.89l4.46,1.2a1,1,0,0,0,.35,0c2,0,3.36,1.63,5.42,1.58A8.55,8.55,0,0,1,1311.25,171.51Z"/><path id="Path_823" data-name="Path 823" class="cls-3" d="M1678.83,566.65v.81h0c-.81,0-1.66-.13-2.15.76h0c-.8,0-1.63-.15-2.2.66l-1.36.09c-.83-.05-1.69-.2-2.21.7h0l-1.48.67a45,45,0,0,0-5.48,1.42,13.35,13.35,0,0,1-4.51.84,1.36,1.36,0,0,0-1.54.64h0c-.8,0-1.64-.12-2.16.74h0l-2.28-.11a1.92,1.92,0,0,0,.09-.63c2.42-.63,4.86-1.22,7.26-1.89,5.4-1.51,10.78-3.07,16.18-4.58a8,8,0,0,1,1.83-.12Z"/><path id="Path_824" data-name="Path 824" class="cls-3" d="M1203.78,684.82v.89c-4.82-1.3-9.62-2.67-14.46-3.92l-10.7-2.67a3.57,3.57,0,0,1-.89-.55l1.68-.11a17.42,17.42,0,0,1,6.24,1.39,17.56,17.56,0,0,0,2.76.74c1,.27,2.07.5,3.1.78q5.35,1.41,10.7,2.88C1202.69,684.38,1203.23,684.62,1203.78,684.82Z"/><path id="Path_825" data-name="Path 825" class="cls-3" d="M1883.46,103.77l1.06.19-6.65,2.15a9.72,9.72,0,0,0-1.78.15c-3.45,1-6.87,2-10.33,2.95-2.68.71-5.35,1.31-8,2l-1-.18a20.71,20.71,0,0,1,6.4-2.08,3.82,3.82,0,0,0,1.38-.28c1.7-1,3.65-1,5.47-1.57,1.25-.35,2.48-.79,3.74-1.14.89-.26,1.84-.4,2.76-.62a9.88,9.88,0,0,0,2.39-.61A9.57,9.57,0,0,1,1883.46,103.77Z"/><path id="Path_826" data-name="Path 826" class="cls-3" d="M1643.49,711c0-.29.09-.58.14-.89a2.19,2.19,0,0,0,2,.47c4-1.28,8-2.4,12-3.45,2.68-.69,5.35-1.34,7.91-2.19.8-.26,1.63-.38,2.44-.57l1.64.12c-1.44.51-2.86,1.11-4.33,1.52-3.2.89-6.43,1.62-9.64,2.52s-6.58,2-9.88,3a1.93,1.93,0,0,1-2.27-.48Z"/><path id="Path_827" data-name="Path 827" class="cls-3" d="M1079.82,108.81l-1.61.19c-3.89-1.06-7.77-2.09-11.64-3.18-4.46-1.25-8.87-2.54-13.3-3.84-.09,0-.16-.16-.24-.25a9.41,9.41,0,0,1,5.26.72c1.19.51,2.6.47,3.79,1,3.21,1.35,6.76,1.54,10,3a7,7,0,0,0,2.12.39A11.49,11.49,0,0,1,1079.82,108.81Z"/><path id="Path_828" data-name="Path 828" class="cls-3" d="M1299.61,856.6a4.74,4.74,0,0,0,.05.65,9.57,9.57,0,0,1-2.77-.29c-3.06-1.32-6.39-1.57-9.5-2.63a16.13,16.13,0,0,0-1.66-.55c-3.37-.67-6.65-1.68-9.94-2.67-.52-.16-.89-.69-1.38-1.05a7.59,7.59,0,0,1,1.78.07c2.87.8,5.72,1.69,8.58,2.5,2.52.72,5.06,1.38,7.6,2.06S1297.19,856,1299.61,856.6Z"/><path id="Path_829" data-name="Path 829" class="cls-3" d="M1813,266.08c-3.63,1.09-7.2,2.53-10.91,3.16s-7.38,2.62-11.36,2.68l-1.55-.07c1.13-1.13,2.68-.72,4-1.18,2.25-.76,4.6-1.19,6.88-1.86,1.92-.58,3.79-1.31,5.68-2h0c1.15-.21,2.3-.4,3.44-.63s2.51-.51,3.77-.77Z"/><path id="Path_830" data-name="Path 830" class="cls-3" d="M1528.87,202h-.74a1.36,1.36,0,0,0-1.76-.75l0,0q-4.33,1.14-8.66,2.37c-2.87.82-5.72,1.72-8.6,2.53a8.19,8.19,0,0,1-1.78.11v-.69c2.15-.67,4.19-1.78,6.55-1.67,3-1.54,6.48-1.69,9.6-2.92a9.05,9.05,0,0,1,4.25-.52C1528.55,200.55,1528.88,201.13,1528.87,202Z"/><path id="Path_831" data-name="Path 831" class="cls-3" d="M1887.36,246c-2.14.69-4.27,1.42-6.42,2a52.08,52.08,0,0,1-5.53,1.41c-3.51.66-6.76,2.41-10.42,2.34l-.22-.28,12.25-3.57c1.78-.53,3.65-1.07,5.49-1.51,1.26-.29,2.56-.42,3.85-.61Z"/><path id="Path_832" data-name="Path 832" class="cls-3" d="M1848.3,522.06v-.82c1.21-.43,2.41-.9,3.63-1.27.79-.25,1.63-.35,2.42-.58,3.31-.89,6.6-1.89,9.91-2.77a20.43,20.43,0,0,1,2.8-.36h1.45l.07.06c-1.09,1.2-2.72.47-4,1.16a11.87,11.87,0,0,1-4,1.49C1856.35,519.52,1852.42,521.14,1848.3,522.06Z"/><path id="Path_833" data-name="Path 833" class="cls-3" d="M1760.36,137.78l-1.57-.1a7.33,7.33,0,0,1,1.78-1.07c3.3-.89,6.62-1.66,9.93-2.52,1.26-.31,2.48-.75,3.72-1.13a12.69,12.69,0,0,1,4.83-1v.64Z"/><path id="Path_834" data-name="Path 834" class="cls-3" d="M1810.8,123.37a96.38,96.38,0,0,1,10.82-3.15c3.12-.58,6-2.12,9.24-2.06l.24.26q-.13.26-.24.51l-4.82,1.35q-6.55,1.78-13.13,3.45a16.88,16.88,0,0,1-2.12.29C1810.79,123.8,1810.8,123.58,1810.8,123.37Z"/><path id="Path_835" data-name="Path 835" class="cls-3" d="M1143.33,392.11l-1.71.23L1123,387.18v-.63a27.29,27.29,0,0,1,3.13.38c2.19.52,4.35,1.09,6.5,1.73,3.29.95,6.54,1.95,9.81,3a4.47,4.47,0,0,1,.91.5Z"/><path id="Path_836" data-name="Path 836" class="cls-3" d="M1810.8,123.37V124c-3.5,1-7,2.16-10.51,3.12-2.68.75-5.49,1.33-8.23,2v-.7a22.9,22.9,0,0,1,5-1.56c3.45-.8,6.85-1.79,10.23-2.91a8.87,8.87,0,0,1,3.46-.58Z"/><path id="Path_837" data-name="Path 837" class="cls-3" d="M1867.75,650.39v.69l-5.91,2.1c-3,.76-6,1.55-9,2.27-1.27.3-2.56.49-3.83.73v-.71c4.78-1.3,9.49-2.82,14.35-3.8C1864.86,651.36,1866.11,650.18,1867.75,650.39Z"/><path id="Path_838" data-name="Path 838" class="cls-3" d="M1038.62,98.16a.89.89,0,0,0-1.17-.47.78.78,0,0,0-.26.17c-.49.32-1,.68-1.43,1,.65-1.89,1.39-2.41,3-2,1.36.38,2.73.78,4,1.26,2.56.95,5.26,1.42,7.85,2.2a11.55,11.55,0,0,1,2.39,1.43,4.76,4.76,0,0,1-1.41,0c-3-.82-5.91-1.72-8.91-2.56C1041.4,98.82,1040,98.5,1038.62,98.16Z"/><path id="Path_839" data-name="Path 839" class="cls-3" d="M1844.68,380c3-.6,5.85-1.94,8.92-2.3,1.86-.22,3.63-1.13,5.47-1.64a22.3,22.3,0,0,1,2.82-.42l1.55.08a5.76,5.76,0,0,1-1.22.66c-3.21.81-6.51,1.39-9.64,2.44a48.75,48.75,0,0,1-7.9,1.95l-.07-.09A5.41,5.41,0,0,0,1844.68,380Z"/><path id="Path_840" data-name="Path 840" class="cls-3" d="M1770.43,277.62c-.8.26-1.57.56-2.37.8-1.79.57-3.65,1.11-5.48,1.67a3.65,3.65,0,0,1-1,.31c-2.12-.09-4,.8-5.87,1.5a3.85,3.85,0,0,1-1.07.1l-2.33-.12a157.33,157.33,0,0,1,18.08-5.05l.09.11C1770.44,277.17,1770.43,277.39,1770.43,277.62Z"/><path id="Path_841" data-name="Path 841" class="cls-3" d="M1834.6,259.64v.72c-3,.5-5.78,2-8.92,2.27a22,22,0,0,0-4,1.3c-1.94.53-3.9,1-5.85,1.44v-.8a3.85,3.85,0,0,1,.08-.58,2.16,2.16,0,0,0,.67-.08c1,0,2.12.13,3-.66a79.13,79.13,0,0,0,7.89-2.13Z"/><path id="Path_842" data-name="Path 842" class="cls-3" d="M1809.37,666.26c3.56-1.08,7.19-2.22,10.82-3.23a22.92,22.92,0,0,1,3.5-.43h1.49l.11.15q-2.36.66-4.7,1.35c-3,.89-6.08,1.84-9.13,2.68a10.65,10.65,0,0,1-2.11.15C1809.36,666.75,1809.36,666.5,1809.37,666.26Z"/><path id="Path_843" data-name="Path 843" class="cls-3" d="M1179.34,678.45l-1.67.1c-4-1-7.9-1.94-11.83-3a27.68,27.68,0,0,1-3.3-1.32h2.22c4.1.67,7.93,2.45,12.07,3A9.06,9.06,0,0,1,1179.34,678.45Z"/><path id="Path_844" data-name="Path 844" class="cls-3" d="M1669.62,704.52l-1.65-.12c.82-.93,2.08-.37,3-.84,3-1.51,6.47-1.33,9.49-2.81a13.1,13.1,0,0,1,3.46-.62v.71c-3.72,1.11-7.43,2.25-11.16,3.29a20.6,20.6,0,0,1-3.13.39Z"/><path id="Path_845" data-name="Path 845" class="cls-3" d="M1789.2,272.63c-.09.08-.16.21-.26.23-5,1.13-9.93,2.78-14.93,4a4.09,4.09,0,0,1-.7,0v-.7l6.49-2.13c1-.24,2-.51,3-.71,1.57-.3,3.16-.57,4.75-.84h1.58Z"/><path id="Path_846" data-name="Path 846" class="cls-3" d="M1809.37,666.26V667c-3.63,1.09-7.25,2.21-10.9,3.25a18.83,18.83,0,0,1-2.8.37v-.71a48.86,48.86,0,0,1,7.87-2.19,9.91,9.91,0,0,0,2.35-.81A6.6,6.6,0,0,1,1809.37,666.26Z"/><path id="Path_847" data-name="Path 847" class="cls-3" d="M1122.94,386.59v.63a10.75,10.75,0,0,1-1.79-.18c-3.56-1-7-2-10.56-3.05-.69-.19-1.39-.29-2.09-.44v-.71a14.31,14.31,0,0,1,5.56,1.09,8.92,8.92,0,0,0,2.38.75,26.36,26.36,0,0,1,6.5,1.9Z"/><path id="Path_848" data-name="Path 848" class="cls-3" d="M1080.41,251.79V251l9.53,2.73,5.07,1.44-1.66.12a35.68,35.68,0,0,1-3.86-.63,42,42,0,0,0-6.89-1.78A7.08,7.08,0,0,1,1080.41,251.79Z"/><path id="Path_849" data-name="Path 849" class="cls-3" d="M1283.74,163.85v.7l-8.92-2.31-5.48-1.42V160c3.8.89,7.6,1.71,11.38,2.68a23.4,23.4,0,0,1,3,1.14Z"/><path id="Path_850" data-name="Path 850" class="cls-3" d="M1907.42,240.16a6.76,6.76,0,0,1-1.52.82c-2.88.67-5.54,2.2-8.6,2.23a7.65,7.65,0,0,0-2,.59l-1-.12a6.74,6.74,0,0,1,3.23-1.36c2.39-.61,4.76-1.39,7.13-2.09,1.29.14,1.94-.76,2.67-1.61l.16.11Z"/><path id="Path_851" data-name="Path 851" class="cls-3" d="M1689.67,423.24v-.7a10.85,10.85,0,0,1,5.26-1.56,8.07,8.07,0,0,0,2-.56c.78,0,1.62.08,2.12-.76h0l2.24.07-.15.6c-3.36.95-6.71,1.89-10.08,2.82a6.46,6.46,0,0,1-1.39.09Z"/><path id="Path_852" data-name="Path 852" class="cls-3" d="M1093.35,255.32l1.67-.13,11.38,3v.69a6.83,6.83,0,0,1-1.43-.07q-5.35-1.41-10.7-2.89A3.29,3.29,0,0,1,1093.35,255.32Z"/><path id="Path_853" data-name="Path 853" class="cls-3" d="M1856.78,111l1,.18a1.55,1.55,0,0,0-.13.63h0a11,11,0,0,0-2.14.15c-3,.79-6,1.69-9,2.51a22.83,22.83,0,0,1-2.48.38l-.21-.28A60,60,0,0,1,1856.78,111Z"/><path id="Path_854" data-name="Path 854" class="cls-3" d="M1626.58,173.51c-2,1.46-4.37,1.68-6.6,2.39-1.24.38-2.55.54-3.83.81l-1.56-.07c.48-.32,1-.9,1.46-.9C1619.66,175.44,1622.89,173.37,1626.58,173.51Z"/><path id="Path_855" data-name="Path 855" class="cls-3" d="M1830.86,118.15a22.13,22.13,0,0,1,6.44-2.06,5.78,5.78,0,0,0,2-.59,9.93,9.93,0,0,1,4.52-.94l.21.28c-3.57,1.58-7.52,2.09-11.21,3.38a8.23,8.23,0,0,1-1.78.2Z"/><path id="Path_856" data-name="Path 856" class="cls-3" d="M1789.18,395.19a17.35,17.35,0,0,1,2-.75c2.49-.63,5.09-.89,7.44-2.05a3.85,3.85,0,0,1,1.39-.1V393c-3.43,1.54-7.13,2-10.7,3l-.11-.15C1789.17,395.62,1789.17,395.4,1789.18,395.19Z"/><path id="Path_857" data-name="Path 857" class="cls-3" d="M1487.07,900.54h-2.87a4.91,4.91,0,0,0-.06-.66l.25-.3,3-.74,4.68-1.15,2.83-.05.06.78h-.7c-1,.06-2.12-.31-2.92.67h-.68l-1.47.68c-.23,0-.46,0-.68.06Z"/><path id="Path_858" data-name="Path 858" class="cls-3" d="M1795.66,669.86v.71a26.87,26.87,0,0,1-8.62,2.26V672a32.58,32.58,0,0,0,6-1.78A9,9,0,0,1,1795.66,669.86Z"/><path id="Path_859" data-name="Path 859" class="cls-3" d="M1701.29,419.75l-2.25-.07c.18-.15.36-.44.54-.44,3,0,5.61-2.06,8.69-1.78l1,.15C1706.63,418.38,1704.11,419.59,1701.29,419.75Z"/><path id="Path_860" data-name="Path 860" class="cls-3" d="M1106.4,258.87v-.69l7.35,2.08-1.78.15a9,9,0,0,1-5.57-1.54Z"/><path id="Path_861" data-name="Path 861" class="cls-3" d="M1833.11,659.71c1-1,2.37-.53,3.57-.72l1.5-.68h2.16l.09.12a7,7,0,0,1-5,1.38h-2.29Z"/><path id="Path_862" data-name="Path 862" class="cls-3" d="M1278,305.7a9.26,9.26,0,0,1,4.39,1.41A4.24,4.24,0,0,1,1278,305.7Z"/><path id="Path_863" data-name="Path 863" class="cls-3" d="M1283.75,307.25a4.56,4.56,0,0,1,3.69,1.32A4.19,4.19,0,0,1,1283.75,307.25Z"/><path id="Path_864" data-name="Path 864" class="cls-3" d="M1745.32,284.22l-1.58-.1c1-1,2.35-.68,3.57-.77v.74Z"/><path id="Path_865" data-name="Path 865" class="cls-3" d="M1838.94,381.49l2.68-.13.89.05.09.12c-1.07.89-2.37.59-3.57.74l-.1-.13A4.7,4.7,0,0,0,1838.94,381.49Z"/><path id="Path_866" data-name="Path 866" class="cls-3" d="M1785.61,396.73a5.91,5.91,0,0,0,0-.84l2.07-.08h1.48l.12.16C1788.12,396.8,1786.83,396.57,1785.61,396.73Z"/><path id="Path_867" data-name="Path 867" class="cls-3" d="M1865.6,374.28l1.37-.07,2.23.05h0V375l-.21.2-3.37-.13Z"/><path id="Path_868" data-name="Path 868" class="cls-3" d="M1788.46,129.13l1.32-.08,1.68.13-3,.72Z"/><path id="Path_869" data-name="Path 869" class="cls-3" d="M1783.41,130.58l2-.12,1,.17c-.89.78-2,.64-3,.66C1783.4,131.05,1783.4,130.86,1783.41,130.58Z"/><path id="Path_870" data-name="Path 870" class="cls-3" d="M1849,655.47v.71a1.08,1.08,0,0,1-.59.05l-2.28-.05-.08-.09C1846.9,655.15,1848,655.48,1849,655.47Z"/><path id="Path_871" data-name="Path 871" class="cls-3" d="M1499.33,208.37v-.67l1.33-.09,1.57.1C1501.41,208.56,1500.34,208.34,1499.33,208.37Z"/><path id="Path_872" data-name="Path 872" class="cls-3" d="M1773.31,276.2v.71L1772,277h-1.52l-.09-.12C1771.23,276.05,1772.29,276.2,1773.31,276.2Z"/><path id="Path_873" data-name="Path 873" class="cls-3" d="M1841.08,657.59l.65-.06h2.2l.1.14a4.42,4.42,0,0,1-3,.61Z"/><path id="Path_874" data-name="Path 874" class="cls-3" d="M1827.35,661.22l2-.12,1.06.19a4.92,4.92,0,0,1-3,.69l-.09-.11A2.89,2.89,0,0,0,1827.35,661.22Z"/><path id="Path_875" data-name="Path 875" class="cls-3" d="M1679.58,567.43c.81-1,1.92-.59,2.93-.65C1681.7,567.71,1680.6,567.41,1679.58,567.43Z"/><path id="Path_876" data-name="Path 876" class="cls-3" d="M1812.24,531.41v-.65l1.3-.14,1.54,0,.11.12C1814.36,531.66,1813.26,531.39,1812.24,531.41Z"/><path id="Path_877" data-name="Path 877" class="cls-3" d="M1800,393v-.71l1.35-.07h1.5l.11.15A4.23,4.23,0,0,1,1800,393Z"/><path id="Path_878" data-name="Path 878" class="cls-3" d="M1126.58,664.81v-.72a4.51,4.51,0,0,1,3,.63l-2.37.16A3.59,3.59,0,0,1,1126.58,664.81Z"/><path id="Path_879" data-name="Path 879" class="cls-3" d="M1127.23,664.88l2.37-.16a.93.93,0,0,1,.59.1v.76C1129.18,665.51,1128.06,665.69,1127.23,664.88Z"/><path id="Path_880" data-name="Path 880" class="cls-3" d="M1653.52,573.88l2.28.1c-.78,1-1.9.61-2.89.69V574a2.48,2.48,0,0,1,.61-.07Z"/><path id="Path_881" data-name="Path 881" class="cls-3" d="M1752.29,281.89l2.33.11c-.82.89-1.93.61-2.94.68V282l.3-.07Z"/><path id="Path_882" data-name="Path 882" class="cls-3" d="M1647.85,576.11l-1.36.09-1.56-.14c.84-.89,1.92-.63,3-.63Z"/><path id="Path_883" data-name="Path 883" class="cls-3" d="M1647.85,576.11v-.68a2,2,0,0,1,.64-.08h2.16l.1.1C1650,576.39,1648.87,576.08,1647.85,576.11Z"/><path id="Path_884" data-name="Path 884" class="cls-3" d="M1035.7,99.49v2.31a1.5,1.5,0,0,1-.2-2.11,1.26,1.26,0,0,1,.2-.2Z"/><path id="Path_885" data-name="Path 885" class="cls-3" d="M1791.46,129.18l-1.68-.11a2.66,2.66,0,0,1,2.28-.62v.7a1.22,1.22,0,0,1-.6,0Z"/><path id="Path_886" data-name="Path 886" class="cls-3" d="M1783.41,130.58v.71a1,1,0,0,1-.56.06l-1.59-.06-.06-.07C1781.77,130.47,1782.6,130.55,1783.41,130.58Z"/><path id="Path_887" data-name="Path 887" class="cls-3" d="M1779.08,132.64V132l.62-.06,1.53,0A2.21,2.21,0,0,1,1779.08,132.64Z"/><path id="Path_888" data-name="Path 888" class="cls-3" d="M1747.33,284.09v-.74h2.19l.06.07C1749,284.22,1748.15,284.13,1747.33,284.09Z"/><path id="Path_889" data-name="Path 889" class="cls-3" d="M1613.35,177.48l-1.67-.13a2.66,2.66,0,0,1,2.26-.64v.71A1.19,1.19,0,0,1,1613.35,177.48Z"/><path id="Path_890" data-name="Path 890" class="cls-3" d="M1507.24,205.58v.69a1.31,1.31,0,0,1-.59.06l-1.7-.15A2.6,2.6,0,0,1,1507.24,205.58Z"/><path id="Path_891" data-name="Path 891" class="cls-3" d="M1817.32,530c-.54.74-1.35.7-2.12.78l-.1-.11q0-.34,0-.69h0l2.1-.06Z"/><path id="Path_892" data-name="Path 892" class="cls-3" d="M1505,206.18l1.69.15-2.28.67v-.75a3.81,3.81,0,0,1,.59-.08Z"/><path id="Path_893" data-name="Path 893" class="cls-3" d="M1751.67,282v.72a4.87,4.87,0,0,0-.65.05l-1.54-.08a2.2,2.2,0,0,1,2.19-.69Z"/><path id="Path_894" data-name="Path 894" class="cls-3" d="M1893.71,244.46l-2.07.14-.18-.28,2.25-.56Z"/><path id="Path_895" data-name="Path 895" class="cls-3" d="M1614,177.42v-.71a4.22,4.22,0,0,1,.61-.07l1.56.07A2.32,2.32,0,0,1,1614,177.42Z"/><path id="Path_896" data-name="Path 896" class="cls-3" d="M1813,266.08v-.66a1.5,1.5,0,0,1,.63-.08l1.66.1a2.59,2.59,0,0,1-2.29.64Z"/><path id="Path_897" data-name="Path 897" class="cls-3" d="M1699,419.66c-.5.84-1.34.73-2.12.76C1697.41,419.56,1698.24,419.65,1699,419.66Z"/><path id="Path_898" data-name="Path 898" class="cls-3" d="M1676.72,568.24c.49-.9,1.35-.75,2.15-.76C1678.34,568.26,1677.55,568.21,1676.72,568.24Z"/><path id="Path_899" data-name="Path 899" class="cls-3" d="M1674.53,568.89c.56-.81,1.39-.69,2.19-.66C1676.16,569,1675.34,568.92,1674.53,568.89Z"/><path id="Path_900" data-name="Path 900" class="cls-3" d="M1671,569.68c.53-.89,1.38-.75,2.21-.7A2.71,2.71,0,0,1,1671,569.68Z"/><path id="Path_901" data-name="Path 901" class="cls-3" d="M1815.25,265.44l-1.66-.1a2.92,2.92,0,0,0,.21-.56l2-.21v.8a2.67,2.67,0,0,1-.56.06Z"/><path id="Path_902" data-name="Path 902" class="cls-3" d="M1655.79,574c.52-.89,1.37-.72,2.16-.74C1657.43,574.06,1656.6,574,1655.79,574Z"/><path id="Path_903" data-name="Path 903" class="cls-3" d="M1652.91,574v.72h-.7l-1.52-.1A2.36,2.36,0,0,1,1652.91,574Z"/><path id="Path_904" data-name="Path 904" class="cls-3" d="M1887.36,246l-1-.15,2.24-.74.08.1v.67Z"/><path id="Path_905" data-name="Path 905" class="cls-3" d="M1709.87,416.79a3.15,3.15,0,0,0,.61-.06l1.54.06a2.31,2.31,0,0,1-2.15.7Z"/><path id="Path_906" data-name="Path 906" class="cls-3" d="M1843.92,657.55h-2.19a2.59,2.59,0,0,1,2.24-.65A4.62,4.62,0,0,1,1843.92,657.55Z"/><path id="Path_907" data-name="Path 907" class="cls-3" d="M1843.93,657.55c0-.22,0-.45,0-.68l.64-.07,1.55.11c-.53.76-1.35.73-2.13.78Z"/><path id="Path_908" data-name="Path 908" class="cls-3" d="M1840.35,658.31h-2.16c.53-.82,1.37-.72,2.17-.72C1840.36,657.83,1840.36,658.07,1840.35,658.31Z"/><path id="Path_909" data-name="Path 909" class="cls-3" d="M1831,660.5a3.79,3.79,0,0,1,.6-.07l1.58.08a2.38,2.38,0,0,1-2.18.75Z"/><path id="Path_910" data-name="Path 910" class="cls-3" d="M1825.22,661.91l.59-.06h1.53l.09.12-2.14.76-.11-.15A6.71,6.71,0,0,0,1825.22,661.91Z"/><path id="Path_911" data-name="Path 911" class="cls-3" d="M1802.87,391.59a3.63,3.63,0,0,0,.65-.09H1805l.1.13-2.15.74-.1-.14a4.58,4.58,0,0,0,0-.64Z"/><path id="Path_912" data-name="Path 912" class="cls-3" d="M1831.7,383.6l.65-.05,1.67.17-2.3.64C1831.71,384.09,1831.71,383.85,1831.7,383.6Z"/><path id="Path_913" data-name="Path 913" class="cls-3" d="M1831.7,383.6v.76h-2.13l-.07-.07C1830.07,383.54,1830.92,383.6,1831.7,383.6Z"/><path id="Path_914" data-name="Path 914" class="cls-3" d="M1834.59,382.93l1.3-.12.83.05.11.15a2.65,2.65,0,0,1-2.24.62Z"/><path id="Path_915" data-name="Path 915" class="cls-3" d="M1834.59,382.93v.7a1.11,1.11,0,0,1-.57.09l-1.67-.17A2.49,2.49,0,0,1,1834.59,382.93Z"/><path id="Path_916" data-name="Path 916" class="cls-3" d="M1836.76,382.18l.63-.05h1.49l.1.13-2.15.74-.11-.15C1836.74,382.64,1836.76,382.41,1836.76,382.18Z"/><path id="Path_917" data-name="Path 917" class="cls-3" d="M1686.08,699.42a4.93,4.93,0,0,0,.66-.07h1.44l.13.17-2.15.75-.13-.18a4.87,4.87,0,0,0,0-.66Z"/><path id="Path_918" data-name="Path 918" class="cls-3" d="M1683.91,700.84v-.71H1686l.13.19Z"/><path id="Path_919" data-name="Path 919" class="cls-3" d="M1842.51,380.75l.63-.06h1.49l.07.09a2.52,2.52,0,0,1-2.14.76l0-.13q0-.33,0-.66Z"/><path id="Path_920" data-name="Path 920" class="cls-3" d="M1484.19,900.56h2.19C1485.26,901.43,1485.26,901.43,1484.19,900.56Z"/><path id="Path_921" data-name="Path 921" class="cls-3" d="M1865.6,374.28V375h-2.18l-.05,0C1864,374.15,1864.8,374.28,1865.6,374.28Z"/><path id="Path_922" data-name="Path 922" class="cls-3" d="M1869.2,374.28l-2.23,0C1867.72,373.43,1868.47,373.3,1869.2,374.28Z"/><path id="Path_923" data-name="Path 923" class="cls-3" d="M1788.46,129.13v.77H1787l-.07-.06Z"/><path id="Path_924" data-name="Path 924" class="cls-3" d="M1786.41,130.62l-1-.16,1.54-.68.06.06v.69a1.23,1.23,0,0,1-.63.1Z"/><path id="Path_925" data-name="Path 925" class="cls-3" d="M1781.23,132l-1.53-.05,1.49-.72.06.06V132Z"/><path id="Path_926" data-name="Path 926" class="cls-3" d="M1502.2,207l1.46-.69a4,4,0,0,1,0,.69l-1.38.06Z"/><path id="Path_927" data-name="Path 927" class="cls-3" d="M1712,416.79l-1.54-.06,1.52-.7v0A5.77,5.77,0,0,1,1712,416.79Z"/><path id="Path_928" data-name="Path 928" class="cls-3" d="M1502.23,207.71l-1.57-.1,1.54-.66,0,.06c0,.23,0,.47,0,.71Z"/><path id="Path_929" data-name="Path 929" class="cls-3" d="M1907.42,240.16v-1.43h.68Z"/><path id="Path_930" data-name="Path 930" class="cls-3" d="M1686,700.09h-1.43l1.48-.68A5.31,5.31,0,0,1,1686,700.09Z"/><path id="Path_931" data-name="Path 931" class="cls-3" d="M1716.37,557.42c.32-.69.9-.75,1.57-.69Z"/><path id="Path_932" data-name="Path 932" class="cls-3" d="M1684.63,566a1.35,1.35,0,0,1,1.56-.64Z"/><path id="Path_933" data-name="Path 933" class="cls-3" d="M1683.19,566.72l1.45-.69Z"/><path id="Path_934" data-name="Path 934" class="cls-3" d="M1669.53,570.34l1.48-.67Z"/><path id="Path_935" data-name="Path 935" class="cls-3" d="M1657.94,573.24a1.35,1.35,0,0,1,1.54-.64Z"/><path id="Path_936" data-name="Path 936" class="cls-3" d="M1650.69,574.6l1.52.11-1.44.72-.09-.1v-.72Z"/><path id="Path_937" data-name="Path 937" class="cls-3" d="M1644.93,576.06l1.56.14-1.5.66-.09-.08a2.89,2.89,0,0,0,0-.72Z"/><path id="Path_938" data-name="Path 938" class="cls-3" d="M1891.64,244.6l-1.53.59v-.68l1.34-.19Z"/><path id="Path_939" data-name="Path 939" class="cls-3" d="M1709.87,416.79v.7a1.28,1.28,0,0,1-.61.07l-1-.15Z"/><path id="Path_940" data-name="Path 940" class="cls-3" d="M1688.18,699.35h-1.44l1.5-.63A3.36,3.36,0,0,1,1688.18,699.35Z"/><path id="Path_941" data-name="Path 941" class="cls-3" d="M1890.11,244.51v.68a3.18,3.18,0,0,0-.62.05h-.81l-.08-.11Z"/><path id="Path_942" data-name="Path 942" class="cls-3" d="M1749.48,282.64l1.54.09-1.46.73-.06-.08v-.74Z"/><path id="Path_943" data-name="Path 943" class="cls-3" d="M1829.58,385.1,1828,385l1.51-.67.07.07a4.33,4.33,0,0,0,0,.72Z"/><path id="Path_944" data-name="Path 944" class="cls-3" d="M1489.23,899.82l1.47-.69v.7h-1.47Z"/><path id="Path_945" data-name="Path 945" class="cls-3" d="M1805,391.5h-1.46l1.51-.67A5,5,0,0,1,1805,391.5Z"/><path id="Path_946" data-name="Path 946" class="cls-3" d="M1770.46,277H1772l-1.55.65c0-.22,0-.44,0-.65Z"/><path id="Path_947" data-name="Path 947" class="cls-3" d="M1825.22,661.91v.69h-1.53Z"/><path id="Path_948" data-name="Path 948" class="cls-3" d="M1827.35,661.87h-1.52l1.56-.64A3.44,3.44,0,0,0,1827.35,661.87Z"/><path id="Path_949" data-name="Path 949" class="cls-3" d="M1487.07,900.54l1.49-.66Z"/><path id="Path_950" data-name="Path 950" class="cls-3" d="M1831,660.5v.76a1,1,0,0,1-.54.06l-1.06-.19Z"/><path id="Path_951" data-name="Path 951" class="cls-3" d="M1789.14,271.84l1.55.07-1.49.7-.06-.05v-.73Z"/><path id="Path_952" data-name="Path 952" class="cls-3" d="M1833.17,660.5l-1.58-.08,1.52-.69.06.06v.72Z"/><path id="Path_953" data-name="Path 953" class="cls-3" d="M1893.71,244.46v-.7a1.68,1.68,0,0,1,.59-.08l1,.11Z"/><path id="Path_954" data-name="Path 954" class="cls-3" d="M1838.88,382.14h-1.49l1.52-.64a4.5,4.5,0,0,1,0,.64Z"/><path id="Path_955" data-name="Path 955" class="cls-3" d="M1838.19,658.31l-1.5.68Z"/><path id="Path_956" data-name="Path 956" class="cls-3" d="M1846.16,656.94l-1.55-.11,1.46-.71.09.09v.73Z"/><path id="Path_957" data-name="Path 957" class="cls-3" d="M1789.13,395.83h-1.49l1.54-.62C1789.17,395.42,1789.15,395.63,1789.13,395.83Z"/><path id="Path_958" data-name="Path 958" class="cls-3" d="M1863.47,375.73l-1.54-.09,1.47-.71,0,.05v.75Z"/><path id="Path_959" data-name="Path 959" class="cls-3" d="M1802.87,391.59a3.42,3.42,0,0,1,0,.64h-1.49Z"/><path id="Path_960" data-name="Path 960" class="cls-3" d="M1844.64,380.68h-1.49l1.53-.69A5.32,5.32,0,0,1,1844.64,380.68Z"/><path id="Path_961" data-name="Path 961" class="cls-3" d="M1503.68,206.94a3.86,3.86,0,0,0,0-.68h.72V207h0Z"/><path id="Path_962" data-name="Path 962" class="cls-3" d="M1869.26,515.61l-.72.72-.07-.05v-.72h.72Z"/><path id="Path_963" data-name="Path 963" class="cls-3" d="M1645,576.86l-.73.71-.07-.09.71-.7Z"/><path id="Path_964" data-name="Path 964" class="cls-3" d="M1869.1,514.74l.79.07-.62.8-.07-.06v-.77Z"/><path id="Path_965" data-name="Path 965" class="cls-3" d="M1645,311.55l-.74.7h-.06l.71-.73Z"/><path id="Path_966" data-name="Path 966" class="cls-3" d="M1836.75,382.18v.68l-.82-.05Z"/><path id="Path_967" data-name="Path 967" class="cls-3" d="M1869.26,374.94v-.69l.68.72C1869.71,375,1869.48,375,1869.26,374.94Z"/><path id="Path_968" data-name="Path 968" class="cls-3" d="M1840.35,658.31v-.72h.72v.72a1.41,1.41,0,0,1-.64.12Z"/><path id="Path_969" data-name="Path 969" class="cls-3" d="M1678.14,302.85l.81-.63Z"/><path id="Path_970" data-name="Path 970" class="cls-3" d="M1888.68,245.2h.81l-.83.64C1888.66,245.65,1888.67,245.43,1888.68,245.2Z"/><path id="Path_971" data-name="Path 971" class="cls-3" d="M1484.14,899.9a3.67,3.67,0,0,1,0,.66l-.65-.78a4.25,4.25,0,0,1,.6.12Z"/><path id="Path_972" data-name="Path 972" class="cls-3" d="M1842.51,380.75q0,.33,0,.66l-.89-.05Z"/><path id="Path_973" data-name="Path 973" class="cls-3" d="M1067.47,793.15l8.26,2.22,2.77.78c6.25,1.65,12.49,3.28,18.73,5,2.07.57,4.1,1.24,6.19,1.79,7.75,2,15.43,4.29,23.18,6.41,3.69,1,7.49,1.63,11.1,2.84s7.14,1.91,10.71,3c4,1.21,8,2.23,12.1,3.32l15.21,4.09c3.69,1,7.37,2,11.06,3,3,.8,6,1.49,9,2.3,3.23.89,6.44,1.85,9.66,2.68,5.66,1.51,11.32,3,16.94,4.46,3.35.89,6.65,2,10,2.94,2.19.63,4.37,1.23,6.57,1.78,3.36.85,6.75,1.58,10.1,2.48s6.63,2,10,2.93,6.7,1.79,10.06,2.62a9.18,9.18,0,0,1,3.93,1.54h-2.85l-1.49-.65c-4.45-1-8.81-2.15-13.17-3.5-3.19-1-6.5-1.58-9.74-2.45s-6.45-1.85-9.67-2.79a4.6,4.6,0,0,0-1-.36c-3.29-.18-6.25-1.79-9.39-2.38s-6.25-1.71-9.35-2.55l-10.07-2.67c-2.89-.77-5.81-1.45-8.66-2.36-3.57-1.12-7.14-2-10.7-2.92-3.36-.89-6.67-1.95-10.05-2.75-3.61-.89-7.14-2.15-10.75-2.86-2.33-.44-4.58-1.33-6.92-1.89-3.25-.77-6.43-1.89-9.66-2.76s-6.74-1.64-10.1-2.5c-1.85-.47-3.68-1-5.52-1.57-3.33-1-6.66-1.93-10-2.87-3.11-.89-6.25-1.7-9.35-2.54l-10.41-2.75c-3.24-.89-6.47-1.72-9.7-2.57-.7-.19-1.4-.34-2.1-.52-4-1.08-8.1-2.11-12.13-3.24-3.35-.94-6.65-2-10-3-2.3-.67-4.62-1.25-6.93-1.88a7,7,0,0,1-1-.46l.29-.34,2.73.17h0C1065.87,793.21,1066.66,793.13,1067.47,793.15Z"/><path id="Path_974" data-name="Path 974" class="cls-3" d="M1270.06,849.32h2.86l1.46.71C1272.92,850.14,1271.35,850.64,1270.06,849.32Z"/><path id="Path_975" data-name="Path 975" class="cls-3" d="M1268.61,848.64l1.48.66A1.32,1.32,0,0,1,1268.61,848.64Z"/><path id="Path_976" data-name="Path 976" class="cls-3" d="M1743,830.58l-1.31.11a1.4,1.4,0,0,0-1.57.67h0c-.81,0-1.66-.13-2.19.72-8.11,2.33-16.26,4.45-24.45,6.5l-2.37-.09a25.3,25.3,0,0,1,3.22-1.37c3.43-1,6.9-1.78,10.33-2.72,5.16-1.42,10.29-2.92,15.46-4.33a16,16,0,0,1,2.84-.28Z"/><path id="Path_977" data-name="Path 977" class="cls-3" d="M1564.2,879h-.68a6.25,6.25,0,0,0-4.34,1.42h0c-3.12-.23-5.86,1.07-8.66,2.15h0l-1.44.07-.72-.06v-.7c2.41-.69,4.81-1.5,7.25-2.07,3.72-.89,7.39-1.88,11-3,.89-.28,1.85-.49,2.77-.73,3.25-.83,6.57-1.44,9.7-2.57a26.81,26.81,0,0,1,7-1.36,3.87,3.87,0,0,0,.21.34l-.56.64c-1.4.23-2.81.39-4.19.7-3.94.89-7.7,2.42-11.69,3.17a42.35,42.35,0,0,0-5.67,2Z"/><path id="Path_978" data-name="Path 978" class="cls-3" d="M1862.13,798.28a22.25,22.25,0,0,1-6.4,2.09,10.32,10.32,0,0,0-2,.54c-3.25,1.12-6.59,2-9.89,2.8-3.66.9-7.31,1.9-11,2.89a17.39,17.39,0,0,1-1.78.3l-1.67-.12a32.59,32.59,0,0,1,3.31-1.32c5.42-1.51,10.85-2.94,16.27-4.4a2.46,2.46,0,0,0,2.2-.67c.69-.15,1.39-.25,2.07-.41l7.85-1.87Z"/><path id="Path_979" data-name="Path 979" class="cls-3" d="M1627.67,862.33a3.75,3.75,0,0,1-.67,0h-2.16l-.13-.16c3.63-1.85,7.71-2.22,11.54-3.47,3.49-1.13,7.06-2,10.62-2.91,1.48-.39,3-.57,4.51-.84l.15.18a3.4,3.4,0,0,0-.08.63,4.15,4.15,0,0,0-1.4.18c-3.31,1.71-7.24,1.41-10.51,3.22-3.81.25-7.25,2.17-11,2.45Z"/><path id="Path_980" data-name="Path 980" class="cls-3" d="M1711.15,838.48l2.37.1c-.09.08-.16.21-.26.24l-9.93,2.67c-2.28.62-4.55,1.29-6.83,1.89a13.15,13.15,0,0,1-1.78.25l-1.52,0,1.48-.7,1.48-.69c3.57-1,7.21-2.08,10.83-3C1708.35,838.84,1709.77,838.7,1711.15,838.48Z"/><path id="Path_981" data-name="Path 981" class="cls-3" d="M1564.2,879a41.3,41.3,0,0,1,5.68-1.93c4-.75,7.75-2.3,11.69-3.18,1.38-.3,2.79-.46,4.19-.7l1.56.07c-.08.09-.16.22-.25.24a60.55,60.55,0,0,0-7.14,1.9c-1.35.42-2.8.54-4.1,1.07-2.68,1.09-5.54,1.13-8.15,2.37C1566.74,879.22,1565.39,878.88,1564.2,879Z"/><path id="Path_982" data-name="Path 982" class="cls-3" d="M1673.9,849.42a5.56,5.56,0,0,1-1.23.65c-2.06.5-4.08,1.21-6.11,1.7-2.62.63-5.18,1.48-7.83,2h-2.87l-.1-.14,6.52-2.1c2.85,0,5.35-1.13,7.92-2.18h2.17Z"/><path id="Path_983" data-name="Path 983" class="cls-3" d="M1829.43,806.78l1.67.12c-2.12.68-4.21,1.42-6.33,2.06-1.79.53-3.64,1-5.49,1.42-1.36.32-2.77.52-4.15.78v-.64l3.69-1.46a35.8,35.8,0,0,0,7.13-1.79,14.05,14.05,0,0,1,3.48-.49Z"/><path id="Path_984" data-name="Path 984" class="cls-3" d="M1743,830.58v-.79l5.8-2,3.79-.72,4.15-.73V827c-.9.23-1.84.44-2.74.71a89.28,89.28,0,0,1-11,2.85Z"/><path id="Path_985" data-name="Path 985" class="cls-3" d="M1774.11,822.05a22.79,22.79,0,0,1-2.83,1.33c-1.56.51-3.18.9-4.78,1.26-2.28.58-4.57,1.14-6.85,1.71l-.08-.09v-.74a2.28,2.28,0,0,1,.59-.4c4.13-1.06,8.28-2.12,12.42-3.15Z"/><path id="Path_986" data-name="Path 986" class="cls-3" d="M1901.5,787.25l1,.17c-2.46.9-4.77,2.19-7.48,2.19a3.51,3.51,0,0,0-1.69.54,9.3,9.3,0,0,1-4.52,1l-.19-.26c3.9-1.78,8.14-2.37,12.23-3.52a3.26,3.26,0,0,1,.7-.07Z"/><path id="Path_987" data-name="Path 987" class="cls-3" d="M1862.13,798.28l-1-.17,12.66-3.56a6.36,6.36,0,0,1,1.07-.11l.24.32c-2.18.89-4.25,2.16-6.76,2.09a3.33,3.33,0,0,0-1.68.53A8.92,8.92,0,0,1,1862.13,798.28Z"/><path id="Path_988" data-name="Path 988" class="cls-3" d="M1807.19,813.33c-1.44.46-2.89.95-4.35,1.4a26.76,26.76,0,0,0-3,.89,7,7,0,0,1-3.45.59v-.63l10.8-2.94C1807.19,812.85,1807.19,813.08,1807.19,813.33Z"/><path id="Path_989" data-name="Path 989" class="cls-3" d="M1673.9,849.42l-1.53,0a15,15,0,0,1,2.18-1c2.24-.65,4.51-1.22,6.77-1.78a11.94,11.94,0,0,1,1.79-.19l.25.27a22.25,22.25,0,0,1-6.71,2.07A17.08,17.08,0,0,0,1673.9,849.42Z"/><path id="Path_990" data-name="Path 990" class="cls-3" d="M1885.06,792.47c-3.33.76-6.51,2.11-10,2.31l-.24-.32,1.53-.62,8.67-2.1Z"/><path id="Path_991" data-name="Path 991" class="cls-3" d="M1516,892.05a5.11,5.11,0,0,1-1.2.74c-3,.74-5.95,1.43-8.92,2.12l-.17-.25c3.15-1.68,6.69-2,10.09-2.89Z"/><path id="Path_992" data-name="Path 992" class="cls-3" d="M1546.94,884a2.88,2.88,0,0,1-.85.57c-1.56.41-3.13.8-4.7,1.12-1.24.25-2.51.38-3.77.57l-.17-.26c2.67-.69,5.1-2,7.94-2.07Z"/><path id="Path_993" data-name="Path 993" class="cls-3" d="M1790,817.79c-2.68.76-5.16,2-8,2.11l-.89-.18c2.81-1,5.58-2.14,8.63-2.24Z"/><path id="Path_994" data-name="Path 994" class="cls-3" d="M1550.52,882.53c2.8-1.08,5.53-2.38,8.65-2.15C1556.39,881.52,1553.61,882.8,1550.52,882.53Z"/><path id="Path_995" data-name="Path 995" class="cls-3" d="M1524,889.88c-2.35,1.78-5.17,1.83-7.92,2.17l-.2-.28a38.06,38.06,0,0,1,7.92-2.16Z"/><path id="Path_996" data-name="Path 996" class="cls-3" d="M1619.74,864.51l-2.06.09h-1.49l-.12-.16c2.86-.89,5.56-2.23,8.64-2.17l.12.16a4.48,4.48,0,0,0,0,.64l-2,.09-.83.64a5,5,0,0,1-.67.05Z"/><path id="Path_997" data-name="Path 997" class="cls-3" d="M1537.62,886.25a15.89,15.89,0,0,1-7.28,2.06v-.62c1.24-.32,2.47-.65,3.72-.94s2.25-.51,3.38-.76Z"/><path id="Path_998" data-name="Path 998" class="cls-3" d="M1530.35,887.69v.62a11.1,11.1,0,0,1-6.39,1.56l-.19-.26Z"/><path id="Path_999" data-name="Path 999" class="cls-3" d="M1693.21,843.57l1.53,0c-1.88,1.52-4.18,1.39-6.4,1.57l-.2-.29c.51-.19,1-.36,1.54-.58s1-.47,1.43-.71h0Z"/><path id="Path_1000" data-name="Path 1000" class="cls-3" d="M1796.4,815.57v.63c-2.16.35-4.1,1.66-6.36,1.59l-.23-.3,4.46-2h0Z"/><path id="Path_1001" data-name="Path 1001" class="cls-3" d="M1595.22,871c-.21,0-.42,0-.65,0h-1.45l-.14-.18c1.45-1.3,3.25-1.39,5.06-1.41l.13.16a4.2,4.2,0,0,0-.07.62l-2,.11Z"/><path id="Path_1002" data-name="Path 1002" class="cls-3" d="M1616.13,865.21l-.66,0L1614,866h0l-2.83.06-.1-.12a9.49,9.49,0,0,1,5-1.48l.12.15a4.46,4.46,0,0,0,0,.63Z"/><path id="Path_1003" data-name="Path 1003" class="cls-3" d="M1688.34,845.19c-1.44,1.31-3.23,1.37-5,1.45l-.24-.27a1.41,1.41,0,0,0,.11-.61h0c1.78.39,3.27-.76,5-.89Z"/><path id="Path_1004" data-name="Path 1004" class="cls-3" d="M1606.76,868.09l-2.07.09L1603,868l5.15-1.45.12.17a3.75,3.75,0,0,0,0,.67h0Z"/><path id="Path_1005" data-name="Path 1005" class="cls-3" d="M1655.79,854.41h-.65l-.79.66h-2.83l-.13-.17a8.93,8.93,0,0,1,4.37-1.38l.1.13a3.26,3.26,0,0,0-.07.76Z"/><path id="Path_1006" data-name="Path 1006" class="cls-3" d="M1559.17,880.37a6.29,6.29,0,0,1,4.34-1.42A4.8,4.8,0,0,1,1559.17,880.37Z"/><path id="Path_1007" data-name="Path 1007" class="cls-3" d="M1601,869.55h-2.82l-.13-.16a9.09,9.09,0,0,1,4.39-1.36v.76h0Z"/><path id="Path_1008" data-name="Path 1008" class="cls-3" d="M1885.06,792.47v-.73a6.54,6.54,0,0,1,3.51-.89l.19.25Z"/><path id="Path_1009" data-name="Path 1009" class="cls-3" d="M1587.32,873.18l-1.56-.07.56-.64h0l3-.89.12.15a3.47,3.47,0,0,0-.06.64c-.21,0-.42,0-.65.06l-.79.65a6.53,6.53,0,0,1-.66.1Z"/><path id="Path_1010" data-name="Path 1010" class="cls-3" d="M1778.41,821.32c-1.08,1-2.42.55-3.67.65v-.69a2,2,0,0,1,.65-.07h2.92Z"/><path id="Path_1011" data-name="Path 1011" class="cls-3" d="M1505.91,894.91l-2.22.64h-1.48c1-1.09,2.34-.62,3.53-.85Z"/><path id="Path_1012" data-name="Path 1012" class="cls-3" d="M1593.06,871.72l-2.06.08h-1.48l-.12-.15c1.07-.82,2.36-.6,3.57-.76l.14.18C1593.09,871.28,1593.07,871.5,1593.06,871.72Z"/><path id="Path_1013" data-name="Path 1013" class="cls-3" d="M1611.09,866.66l-1.38.06h-1.45l-.13-.16c.84-.8,1.9-.66,2.93-.67l.1.12A2.81,2.81,0,0,0,1611.09,866.66Z"/><path id="Path_1014" data-name="Path 1014" class="cls-3" d="M1756.72,827v-.67a1.42,1.42,0,0,1,.64-.09h2.23l.07.08C1758.83,827.29,1757.74,827,1756.72,827Z"/><path id="Path_1015" data-name="Path 1015" class="cls-3" d="M1655.79,854.41a3.38,3.38,0,0,1,.07-.63h2.87C1657.94,854.67,1656.8,854.33,1655.79,854.41Z"/><path id="Path_1016" data-name="Path 1016" class="cls-3" d="M1810.79,812.59l-2,.09-1-.13c.89-.77,2-.62,3-.68C1810.8,812.09,1810.8,812.34,1810.79,812.59Z"/><path id="Path_1017" data-name="Path 1017" class="cls-3" d="M1611.09,866.66a2.73,2.73,0,0,1,.07-.64L1614,866C1613.2,867,1612.1,866.59,1611.09,866.66Z"/><path id="Path_1018" data-name="Path 1018" class="cls-3" d="M1500.05,896.94l-2.11.1-.89-.16c.89-.81,1.94-.62,3-.65A4.18,4.18,0,0,1,1500.05,896.94Z"/><path id="Path_1019" data-name="Path 1019" class="cls-3" d="M1780.56,820.57c-.55.75-1.37.69-2.15.75l-.09-.1c0-.23,0-.45,0-.67h0l2.08-.09Z"/><path id="Path_1020" data-name="Path 1020" class="cls-3" d="M1738,832.07c.53-.85,1.38-.71,2.18-.72C1739.61,832.15,1738.78,832.08,1738,832.07Z"/><path id="Path_1021" data-name="Path 1021" class="cls-3" d="M1651.53,855.2h2.14c-.57.78-1.4.69-2.22.67a3.72,3.72,0,0,1,.08-.67Z"/><path id="Path_1022" data-name="Path 1022" class="cls-3" d="M1624.78,863a4.48,4.48,0,0,1,.06-.64H1627C1626.42,863.15,1625.59,863.07,1624.78,863Z"/><path id="Path_1023" data-name="Path 1023" class="cls-3" d="M1774.74,821.28V822l-.63.08-1.54-.08C1773.13,821.17,1773.94,821.23,1774.74,821.28Z"/><path id="Path_1024" data-name="Path 1024" class="cls-3" d="M1602.45,868.85v-.76l.27-.09h.29l1.69.16A2.66,2.66,0,0,1,1602.45,868.85Z"/><path id="Path_1025" data-name="Path 1025" class="cls-3" d="M1598.19,869.62h2.16c-.58.76-1.41.68-2.22.65A4.62,4.62,0,0,1,1598.19,869.62Z"/><path id="Path_1026" data-name="Path 1026" class="cls-3" d="M1546.94,884l-1.56-.07,2.24-.69V884A5.17,5.17,0,0,1,1546.94,884Z"/><path id="Path_1027" data-name="Path 1027" class="cls-3" d="M1500.05,896.94v-.71h2.14l0,.07C1501.69,897.06,1500.85,897,1500.05,896.94Z"/><path id="Path_1028" data-name="Path 1028" class="cls-3" d="M1815.13,810.52v.64h-.66l-1.52,0A2.26,2.26,0,0,1,1815.13,810.52Z"/><path id="Path_1029" data-name="Path 1029" class="cls-3" d="M1810.79,812.59v-.72l.29-.06h1.84C1812.42,812.69,1811.59,812.59,1810.79,812.59Z"/><path id="Path_1030" data-name="Path 1030" class="cls-3" d="M1497.1,896.88l.89.16-1.49.64h0c0-.22,0-.45,0-.67A3.75,3.75,0,0,1,1497.1,896.88Z"/><path id="Path_1031" data-name="Path 1031" class="cls-3" d="M1496.45,898.39H1495l0-.78h1.45A4.09,4.09,0,0,1,1496.45,898.39Z"/><path id="Path_1032" data-name="Path 1032" class="cls-3" d="M1740.15,831.36a1.39,1.39,0,0,1,1.57-.66Z"/><path id="Path_1033" data-name="Path 1033" class="cls-3" d="M1812.94,811.14l1.53.05-1.49.7h0c0-.24,0-.48,0-.71Z"/><path id="Path_1034" data-name="Path 1034" class="cls-3" d="M1807.82,812.55l.94.13-1.57.65v-.71a1.68,1.68,0,0,1,.63-.07Z"/><path id="Path_1035" data-name="Path 1035" class="cls-3" d="M1619.74,864.51l1.49-.69Z"/><path id="Path_1036" data-name="Path 1036" class="cls-3" d="M1616.13,865.21a3.47,3.47,0,0,1,.06-.64h1.49Z"/><path id="Path_1037" data-name="Path 1037" class="cls-3" d="M1614,866l1.48-.7Z"/><path id="Path_1038" data-name="Path 1038" class="cls-3" d="M1608.26,866.74h1.45l-1.49.69A4,4,0,0,1,1608.26,866.74Z"/><path id="Path_1039" data-name="Path 1039" class="cls-3" d="M1606.76,868.09l1.46-.68Z"/><path id="Path_1040" data-name="Path 1040" class="cls-3" d="M1601,869.55l1.46-.7Z"/><path id="Path_1041" data-name="Path 1041" class="cls-3" d="M1781.15,819.72l.9.18-1.49.67-.1-.11a3.68,3.68,0,0,0,.06-.66A4.52,4.52,0,0,1,1781.15,819.72Z"/><path id="Path_1042" data-name="Path 1042" class="cls-3" d="M1593.06,871.72a5,5,0,0,1,0-.67h1.46Z"/><path id="Path_1043" data-name="Path 1043" class="cls-3" d="M1589.52,871.83H1591l-1.54.62A3.18,3.18,0,0,1,1589.52,871.83Z"/><path id="Path_1044" data-name="Path 1044" class="cls-3" d="M1549.09,882.61l1.43-.07-1.41.75,0-.06C1549.08,883,1549.09,882.82,1549.09,882.61Z"/><path id="Path_1045" data-name="Path 1045" class="cls-3" d="M1547.64,884v-.72h1.44l0,.06Z"/><path id="Path_1046" data-name="Path 1046" class="cls-3" d="M1502.22,895.51h1.47l-1.44.72,0-.06v-.7Z"/><path id="Path_1047" data-name="Path 1047" class="cls-3" d="M1654.37,855.12l.79-.66Z"/><path id="Path_1048" data-name="Path 1048" class="cls-3" d="M1621.9,863.8l.83-.63Z"/><path id="Path_1049" data-name="Path 1049" class="cls-3" d="M1588,873.13l.78-.65Z"/><path id="Path_1050" data-name="Path 1050" class="cls-3" d="M1595.22,871l.84-.64Z"/><path id="Path_1051" data-name="Path 1051" class="cls-3" d="M1627.67,862.33l.81-.65Z"/><path id="Path_1052" data-name="Path 1052" class="cls-3" d="M1065.31,792.41l-2.73-.17a1.44,1.44,0,0,1-.2-.52C1063.4,791.77,1064.52,791.36,1065.31,792.41Z"/><path id="Path_1053" data-name="Path 1053" class="cls-3" d="M1748.8,827.79l-5.8,2a17,17,0,0,0-2.84.27c-5.16,1.41-10.29,2.92-15.45,4.34-3.43.94-6.9,1.78-10.34,2.72a25.87,25.87,0,0,0-3.22,1.36,40.79,40.79,0,0,0-4.15.68c-3.62.94-7.22,2-10.82,3-1.87-.13-3.71-.19-5.07,1.42h0c-2.83,0-5.61.25-7.94,2.14h0a9.35,9.35,0,0,0-4.16.53c-1.32.45-2.73.61-4.07,1-1.67.49-3.49.64-4.75,2.06h0a11.25,11.25,0,0,0-5.53.78c-.77.29-1.58.48-2.36.71a5.85,5.85,0,0,0-3.49.59,7.1,7.1,0,0,1-1.66.69c-3.47.89-7,1.62-10.42,2.53-4.46,1.18-8.83,2.92-13.47,3.57-2.9,1.48-6.24,1.64-9.23,2.78-2.23.84-4.68,1-6.84,2-3.64,0-6.76,2.39-10.43,2.38a5.74,5.74,0,0,0-1.65.65,5.5,5.5,0,0,1-1.7.57c-3.51.17-6.46,2.59-10,2.48a.85.85,0,0,0-.34.14,13,13,0,0,1-4.09,1.2c-1.07.17-2.47.15-3,1.53l.16.19a26,26,0,0,0-7,1.35,92.3,92.3,0,0,1-9.7,2.57c-.89.25-1.85.45-2.77.73-3.65,1.11-7.32,2.14-11,3-2.44.57-4.84,1.38-7.25,2.06l-11.69,3.22q-5.49,1.51-11,3c-2.76.76-5.52,1.55-8.29,2.25-3.34.89-6.78,1.43-10,2.49-4,1.29-8,2.26-12.06,3.34-1.16.31-2.34.49-3.13,1.51l-4.71,1.2-3,.74c-.06-1.21-.18-2.4-.18-3.57V220.72c0-2.16,0-4.33.08-6.48a7,7,0,0,1,3.56-1.55,34,34,0,0,0,5.16-1.42,7.39,7.39,0,0,1,1.71-.54c3,0,5.77-1.43,8.64-2.15,4.61-1.16,9.17-2.56,13.8-3.69.7-.17,1.37-.42,2-.61,2.87-.77,5.73-1.52,8.59-2.27a1.09,1.09,0,0,1,.36,0h0v587.2c0,1.33,0,2.67.08,4a1.36,1.36,0,0,0,1.34,1.39h0a5.92,5.92,0,0,0,2.14-.09c2.4-.71,4.75-1.55,7.14-2.29,1.48-.45,3-.81,4.45-1.21l1.47-.7h0l1.51-.69,2.07-.1c1.93-.59,3.87-1.16,5.8-1.79a2.77,2.77,0,0,0,2.15-2.93V196.28a2.24,2.24,0,0,1,1.48-2.27,40.25,40.25,0,0,1,4.45-1.39c2.54-.59,4.94-1.68,7.56-2,.1,0,.17-.15.26-.24,3-1.19,6.3-1.26,9.22-2.67a3.2,3.2,0,0,1,1.4-.19,11.88,11.88,0,0,0,5.9-2.2h0a15.4,15.4,0,0,0,3.18-.19c3.33-.89,6.62-1.86,9.93-2.79.89-.25,1.84-.43,2.77-.63,2.67-1.38,5.79-1.24,8.59-2.35a67.78,67.78,0,0,1,8.26-2.39c3.47-.89,7-1.47,10.42-2.61,2.17-.73,4.45-.94,6.55-1.71s4.46-1,6.52-1.9c2.25-1,4.64-1.09,6.92-1.79s4.52-.89,6.55-1.78c2.2-1,4.67-.89,6.79-2,3-1.15,6.24-1.25,9.19-2.67a6.68,6.68,0,0,1,1.78-.22,13.26,13.26,0,0,0,2.08-.44,120,120,0,0,1,11.59-3.23c3.34-.8,6.61-1.88,9.91-2.83l1.5-.64,2.09-.1c.81,0,1.65.14,2.18-.7h0l1.47-.69a3.12,3.12,0,0,0,.68,0,9,9,0,0,0,2.13-.11c2.82-.85,5.5-2.21,8.52-2.33,1.84-1.27,4.11-1,6.12-1.78a50.08,50.08,0,0,1,6.15-1.73c2-.47,4-1.37,6.15-1.52.2,0,.37-.28.56-.42,4.46-1.26,8.92-2.58,13.38-3.57a4.53,4.53,0,0,0,3.1-1.54h0c1.31-.07,2.75.2,3.9-.27,3.11-1.29,6.45-1.68,9.61-2.78,2.1-.75,4.32-1.26,6.49-1.89,3.57-1,7.13-1.79,10.7-2.77,3.34-.89,6.62-2,10-2.79,4.05-1,8-2.07,12-3.29,2.16-.66,4.46-.8,6.49-1.9a1.36,1.36,0,0,1,.72-.1,13.72,13.72,0,0,0,5.19-1.24c2.57-1,5.35-1.05,7.88-2.3a2.13,2.13,0,0,1,.71-.09,19.54,19.54,0,0,0,6.4-2.12,6.85,6.85,0,0,0,1.43-.12l9.59-2.67c.89-.26,1.78-.58,2.73-.81,3-.78,6-1.47,8.92-2.31a21.57,21.57,0,0,0,3.19-1.4h0a14.1,14.1,0,0,0,2.83-.13c2.3-.51,4.57-1.15,6.85-1.78,3.51-1,7-2.07,10.51-3.11a21.6,21.6,0,0,0,3.49-.61c3.07-1,6.34-1.3,9.28-2.75a6.31,6.31,0,0,1,1.78-.23,6,6,0,0,0,1.78-.3c3.18-1.46,6.74-1.6,9.94-3,1.16-.51,1.78,0,1.89,1.31V235.84c0,3,0,3-3,4.27-2.53.6-5.06,1.16-7.59,1.79-2.18.57-4.32,1.29-6.52,1.84s-4.45,1.78-6.88,1.68c-2.89,1.48-6.16,1.78-9.22,2.75s-6.16,1.78-9.25,2.62c-2,.56-4.13,1.05-6.17,1.63-1.6.45-3.18,1-4.75,1.46-3.57.83-7.22,1.61-10.79,2.51-4.46,1.13-8.85,2.86-13.47,3.57a4.09,4.09,0,0,0-1,.44c-1.28.25-2.59.44-3.85.78-1.72.45-3.57.77-5,2l-2,.09h-.72l-1.49.67a5.08,5.08,0,0,0-.67.07l-.81.63c-2.59.06-5.11.33-7.13,2.21h0c-1.32.08-2.77-.18-3.91.29-3.13,1.28-6.48,1.65-9.63,2.82-2.45.89-5.09,1.28-7.63,2-1.6.42-3.19,1-4.79,1.44-1.51.3-3.19.27-4.53.94-2.83,1.41-6.06,1.18-8.91,2.54-1.46.7-3.36.45-4.86,1.1-3.1,1.33-6.47,1.59-9.61,2.82-1.86.74-4,.69-5.8,1.72a5.13,5.13,0,0,1-1.78.23,8.27,8.27,0,0,0-1.79.3,93.41,93.41,0,0,1-12.72,3.57c-.21,0-.38.28-.56.43l-.66.06-1.46.7h0a2.57,2.57,0,0,0-2.23.64l-1.37.08c-.8,0-1.64-.11-2.17.72h0l-1.49.67c-1,.17-2.12.25-3.13.52-3.75,1-7.49,2.11-11.22,3.16a30.56,30.56,0,0,0-3.14.49c-1.6.42-3.15,1-4.76,1.48-2.86.78-5.73,1.44-8.59,2.2-5.61,1.51-11.2,3.08-16.8,4.59-.89.25-1.85.4-2.78.59l-1.46.7a3.21,3.21,0,0,0-.69.05l-1.49.65-2.12.07-1.47.67a3.07,3.07,0,0,0-.68.05l-.78.65-1.38.08a6.69,6.69,0,0,0-3.5.6,8.4,8.4,0,0,1-3.35,1.21c-2.85,0-5.24,1.61-8,1.87a2.76,2.76,0,0,0-2.45,2.68c-.1,1.19,0,2.4-.06,3.57V428.19c0,1.78-.23,3.57-.39,5.35a2.33,2.33,0,0,0,1.79,2.77l.29,0a4.91,4.91,0,0,0,4.83-1.6h0a13.36,13.36,0,0,0,5.64-.69c2.36-.81,4.86-1.24,7.19-2.12s5.24-.6,7.51-2.09c3.57,0,6.44-2.68,10-2.38,2.46-1.36,5.26-1.46,7.9-2.18,1.14-.32,2.21-1.12,3.35-1.2,3.14-.21,5.92-1.73,9-2.24a11.79,11.79,0,0,0,2.86-1.38,12.54,12.54,0,0,0,4.2-.73,23.17,23.17,0,0,1,4.07-1.28c2.75-.72,5.58-1.17,8.25-2.1,5.28-1.84,10.7-2.95,16.1-4.46,5.7-1.61,11.39-3.35,17.22-4.51a14.14,14.14,0,0,0,2-.75l.89-.59,2-.11c.81,0,1.64.1,2.23-.67a3.88,3.88,0,0,0,.67-.06l.81-.65a3.31,3.31,0,0,0,.63,0,11,11,0,0,0,2.14-.15c3.1-.83,6.25-1.64,9.27-2.62s6.32-1.32,9.25-2.75a6,6,0,0,1,1.78-.24,6.38,6.38,0,0,0,1.79-.29c3.16-1.46,6.66-1.78,9.92-3a86.94,86.94,0,0,1,9.65-2.47c1.18-.27,2.34-.47,3.1-1.55l13-3.56c1.31-.07,2.77.18,3.91-.29,3.12-1.3,6.5-1.6,9.63-2.83,1.87-.73,4-.66,5.83-1.72.37-.22.89-.11,1.4-.2a11.55,11.55,0,0,0,3.13-.7c2.92-1.5,6.37-1.15,9.22-2.77a82.82,82.82,0,0,0,12.76-3.51,1.09,1.09,0,0,1,1.47.5,1,1,0,0,1,.11.39c.07,1,.07,1.92.07,2.87v133a2,2,0,0,1-1.61,2.11,74.09,74.09,0,0,0-9.61,2.83,5.72,5.72,0,0,1-1.43.12,4.46,4.46,0,0,0-1.4.27c-3.06,1.46-6.46,1.72-9.62,2.84-2,.7-4.16,1-6.15,1.84-3.81-.16-7,2.58-10.77,2.47-3,1.49-6.47,1.66-9.61,2.88-1.87.74-4,.67-5.81,1.74a2.1,2.1,0,0,1-1,.17,12.52,12.52,0,0,0-6.33,2.2c-3.85,1.08-7.71,2.18-11.59,3.26a20.58,20.58,0,0,1-2.08.38,7.74,7.74,0,0,0-4.2.58,19.56,19.56,0,0,1-3.07.89c-3.22.89-6.46,1.69-9.64,2.68a14.05,14.05,0,0,1-3.79.89,7.41,7.41,0,0,0-2.06.51c-1.59.48-3.16,1.06-4.79,1.45a106.62,106.62,0,0,0-11,3,5.54,5.54,0,0,0-1.17.75c-3.65,1.06-7.29,2.15-11,3.18-2.29.66-4.6,1.23-6.9,1.79-5.75,1.49-11.52,2.93-17.26,4.46a14.17,14.17,0,0,0-2.53,1.25,19.36,19.36,0,0,0-2.85.27c-2.9.73-5.76,1.58-8.64,2.37-3.67,1-7.35,2-11,3.06-4.23,1.2-8.46,2.43-12.69,3.65a8.26,8.26,0,0,0-1.79.13c-5.4,1.51-10.78,3.07-16.17,4.58-2.41.66-4.85,1.27-7.26,1.89a21.82,21.82,0,0,0-4.26.42,29.5,29.5,0,0,1-4.11,1.15,3.31,3.31,0,0,0-3.13,3.38c-.1,1.07,0,2.16,0,3.24V687.67c0,7,.08,13.93,0,20.89-.06,3.83,1.12,4.07,4.32,3.8a8.78,8.78,0,0,0,2-.61c.68-.23,1.33-.55,2-.74,4.15-1.1,8.31-2.18,12.48-3.27,2.78-.72,5.51-1.78,8.27-2.31,3.06-.59,6-1.64,9-2.32,4.54-1,9-2.38,13.49-3.63a31.51,31.51,0,0,1,4.46-1.38c3.34-.4,6.43-1.74,9.69-2.42a15.28,15.28,0,0,0,2.95-1.25,8.57,8.57,0,0,0,4.51-.89A4.39,4.39,0,0,1,1717,693c3.57-.29,6.74-2.44,10.41-2.42.44,0,.9-.4,1.32-.53.9-.28,1.79-.49,2.73-.74,1.79-.5,3.79-.6,5.18-2.14h0a25,25,0,0,0,4.23-.39c3.32-.89,6.57-2,9.88-3,2.28-.65,4.61-1.12,6.91-1.71,1.5-.37,3-.78,4.46-1.23a9.89,9.89,0,0,1,1.89-.74c3.47-.25,6.61-1.86,10-2.37l1.46-.69h0A11.4,11.4,0,0,0,1777,677c3.42-.53,6.54-2.26,10-2.49.12,0,.21-.11.33-.15,1.14-.35,2.26-.78,3.42-1,3-.69,5.89-1.78,9-2.39,4.55-.89,8.84-2.83,13.49-3.45a7.12,7.12,0,0,0,1-.41l3.08-.89a14.31,14.31,0,0,0,3.1-.89c2.77-1.55,6.13-1.06,8.91-2.68,3.65,0,6.77-2.39,10.44-2.37.55,0,1.09-.46,1.66-.66s1.36-.42,2.05-.62c1.59-.47,3.2-.89,4.8-1.38a10.34,10.34,0,0,1,2-.69c3.37-.24,6.43-1.72,9.69-2.38a15.5,15.5,0,0,0,2.93-1.26,7.78,7.78,0,0,0,2.8-.24c2.68-1.36,5.73-1.35,8.46-2.51a30.19,30.19,0,0,1,4.1-1,7,7,0,0,0,1.23-.61,7.7,7.7,0,0,1,1.7-.49c3.83-.22,7.13-2.46,11-2.56a1.32,1.32,0,0,0,.67-.21c1.46-.89,3.15-1,4.75-1.37s3.09-.55,4.1-1.93c2-.58,3.9-1.16,5.85-1.78a6.79,6.79,0,0,1,1.4-.27,1.16,1.16,0,0,1,1.31,1,11.68,11.68,0,0,1,0,2.29V777.19c0,1.56,0,3.12,0,4.68-.07,1.87-.64,2.52-2.46,3l-6.24,1.7a13.53,13.53,0,0,0-3.86.35c-1.78.72-3.64,1-5.44,1.52-5,1.51-10,2.94-15,4a3,3,0,0,0-.89.57c-2.44.53-5,.63-7.27,1.78a7.44,7.44,0,0,1-2.09.4c-.71.09-1.41.23-2.11.39-1.95.56-3.87,1.19-5.83,1.74-2.67.75-5.28,1.46-7.91,2.18l-1.51.7a3.39,3.39,0,0,0-.64.06,9,9,0,0,0-1.79.2c-3.56,1.23-7.42,1.61-10.93,3.16-3.73.14-7,2.37-10.7,2.47a2.23,2.23,0,0,0-1,.29c-1.79,1-3.85,1.21-5.78,1.78a9.75,9.75,0,0,0-1.57.73c-2.74.71-5.47,1.47-8.22,2.14a29.48,29.48,0,0,0-6.45,1.89,3.65,3.65,0,0,1-1.38.27c-2.53.12-4.73,1.22-7,2.2h0a13.59,13.59,0,0,0-2.47.22c-4.27,1.09-8.51,2.26-12.76,3.38a4.63,4.63,0,0,0-2.79,1.45h-.67a8.85,8.85,0,0,0-4.58.63,7.83,7.83,0,0,1-2.4.72c-3.51.21-6.48,2.53-10,2.5-.33,0-.65.31-1,.41a28.15,28.15,0,0,1-2.74.76A15.85,15.85,0,0,0,1748.8,827.79Z"/><path id="Path_1054" data-name="Path 1054" class="cls-3" d="M1876.39,793.09a3,3,0,0,1,.89-.57c5.08-1.11,10.07-2.54,15-4,1.78-.55,3.66-.81,5.44-1.52a13.53,13.53,0,0,1,3.86-.35,1.42,1.42,0,0,1-.11.65,3.26,3.26,0,0,0-.7.07c-4.09,1.15-8.33,1.71-12.23,3.52a6.54,6.54,0,0,0-3.51.89l-8.68,2.07Z"/><path id="Path_1055" data-name="Path 1055" class="cls-3" d="M1901.64,642.44c-1,1.38-2.67,1.55-4.1,1.92-1.6.41-3.29.49-4.75,1.38a1.32,1.32,0,0,1-.67.21c-3.86.1-7.21,2.33-11,2.56a7.33,7.33,0,0,0-1.7.49l-1-.14a15.31,15.31,0,0,1,2.54-1.24c5.16-1.42,10.35-2.77,15.52-4.15a1.21,1.21,0,0,0,.3-.2Z"/><path id="Path_1056" data-name="Path 1056" class="cls-3" d="M1075.54,514.77h-.78c0-1.32-.08-2.68-.08-3.95V381.25c0-1.43,0-2.87.08-4.31a7.6,7.6,0,0,1,.55,1.67c.08,1,0,1.92,0,2.88V510.78C1075.35,512.14,1075.47,513.46,1075.54,514.77Z"/><path id="Path_1057" data-name="Path 1057" class="cls-3" d="M1067.47,793.15c-.8,0-1.63.06-2.16-.74C1066.11,792.42,1067,792.29,1067.47,793.15Z"/><path id="Path_1058" data-name="Path 1058" class="cls-3" d="M1570,190.42c-.08.09-.17.23-.26.24-2.62.28-5,1.38-7.56,2a40.25,40.25,0,0,0-4.45,1.39,2.24,2.24,0,0,0-1.48,2.27V784.76a2.78,2.78,0,0,1-2.15,2.93c-1.93.64-3.87,1.2-5.8,1.78a5.43,5.43,0,0,0,0-.8c1.41-1.3,3.32-1.27,5-1.84s2.1-1,2.22-2.81c.06-.84,0-1.68,0-2.52V195.42a2.57,2.57,0,0,1,2-2.67c3.43-.63,6.6-2.23,10.13-2.42Z"/><path id="Path_1059" data-name="Path 1059" class="cls-3" d="M1570,190.42l-2.31-.07a36.6,36.6,0,0,1,3.65-1.4c3.23-.89,6.49-1.59,9.72-2.45a20.46,20.46,0,0,0,2.6-1.1l2.86-.08a11.7,11.7,0,0,1-5.9,2.21,3.39,3.39,0,0,0-1.41.18C1576.34,189.16,1573,189.23,1570,190.42Z"/><path id="Path_1060" data-name="Path 1060" class="cls-3" d="M1548.31,788.68a5.29,5.29,0,0,0,0,.8l-2.07.11h-1.47l-.08-.08C1545.77,788.56,1547.09,788.85,1548.31,788.68Z"/><path id="Path_1061" data-name="Path 1061" class="cls-3" d="M1543.24,790.16l1.5-.65.08.08a4,4,0,0,0,0,.69h-1.42Z"/><path id="Path_1062" data-name="Path 1062" class="cls-3" d="M1528.12,202a1.09,1.09,0,0,0-.36,0l-8.58,2.27c-.69.19-1.36.45-2.06.61-4.62,1.13-9.19,2.53-13.8,3.69-2.87.72-5.59,2.14-8.64,2.15a7.17,7.17,0,0,0-1.7.54,34.28,34.28,0,0,1-5.16,1.42,7.05,7.05,0,0,0-3.57,1.55c-.14-1.36.64-1.87,1.78-2.14q5.15-1.23,10.27-2.56c1-.33,2-.71,3-1.13,1,0,2.08.18,2.9-.67h0a2.39,2.39,0,0,0,2.16-.73h0l2.29-.67a1.47,1.47,0,0,0,.59-.06,9.73,9.73,0,0,0,1.79-.11c2.88-.81,5.73-1.71,8.6-2.54s5.76-1.61,8.66-2.37a1.35,1.35,0,0,1,1.8.61.42.42,0,0,1,.06.14Z"/><path id="Path_1063" data-name="Path 1063" class="cls-3" d="M1543.36,790.29h1.41l-1.46.71C1543.32,790.74,1543.33,790.52,1543.36,790.29Z"/><path id="Path_1064" data-name="Path 1064" class="cls-3" d="M1805.06,532.1c2-1.14,4-2.22,6.32-2.19a2.22,2.22,0,0,0,1-.17c1.79-1.07,3.94-1,5.82-1.74,3.14-1.22,6.56-1.39,9.6-2.88,3.81.11,7-2.63,10.77-2.48,2-.81,4.16-1.13,6.15-1.83,3.17-1.12,6.57-1.39,9.63-2.84a4.71,4.71,0,0,1,1.4-.28,5.24,5.24,0,0,0,1.42-.11,75,75,0,0,1,9.61-2.83,2,2,0,0,0,1.62-2.12V379.71c0-.95,0-1.92-.07-2.87a1.1,1.1,0,0,0-1.19-1,1,1,0,0,0-.39.11,82.82,82.82,0,0,1-12.76,3.51c-2.86,1.62-6.31,1.27-9.22,2.77a11.64,11.64,0,0,1-3.13.7,5.16,5.16,0,0,0-1.41.2c-1.78,1.06-4,1-5.82,1.73-3.13,1.23-6.51,1.52-9.64,2.82-1.14.47-2.59.21-3.9.29a38.52,38.52,0,0,1,7.06-2.2,8.31,8.31,0,0,0,1.61-.64h0a2.22,2.22,0,0,0,2.14-.75h0l2.3-.63a1.11,1.11,0,0,0,.57-.09,2.72,2.72,0,0,0,2.24-.62l2.1-.74c1.22-.15,2.52.14,3.56-.74a2.45,2.45,0,0,0,2.14-.76,46.52,46.52,0,0,0,7.9-1.95c3.14-1,6.43-1.62,9.64-2.43a6.25,6.25,0,0,0,1.22-.66h0a2.45,2.45,0,0,0,2.17-.74h0l3.37.13c.06,1.08.16,2.16.16,3.23V511.16c0,1.2-.06,2.4-.08,3.57h0l-.67.77h0l-1.44.71a20.21,20.21,0,0,0-2.8.35c-3.32.9-6.61,1.86-9.92,2.78-.79.22-1.63.33-2.41.57-1.22.38-2.43.84-3.64,1.27-.94.15-1.9.21-2.81.45-4.23,1.14-8.46,2.32-12.7,3.46q-7.73,2.08-15.45,4.13c-.81,0-1.63-.09-2.16.71h0l-1.58.62-1.3.14c-1.26.26-2.52.54-3.78.78S1806.17,531.94,1805.06,532.1Z"/><path id="Path_1065" data-name="Path 1065" class="cls-3" d="M1903,240.05c3-1.25,3-1.25,3-4.27V101.18c-.08-1.27-.72-1.78-1.89-1.31-3.19,1.4-6.76,1.54-9.93,3a6.37,6.37,0,0,1-1.78.29,6.33,6.33,0,0,0-1.79.23c-2.93,1.46-6.24,1.74-9.27,2.75a21.79,21.79,0,0,1-3.49.61v-.64l6.64-2.15a20.79,20.79,0,0,0,2.47-.39c5.18-1.45,10.34-2.94,15.52-4.39,1.64-.45,3.3-.85,4.81.39v139c-.7.89-1.35,1.79-2.68,1.62Z"/><path id="Path_1066" data-name="Path 1066" class="cls-3" d="M1710.71,694.43a15.93,15.93,0,0,1-3,1.25c-3.26.68-6.35,2-9.69,2.42a32.83,32.83,0,0,0-4.46,1.37c-4.46,1.26-8.92,2.62-13.49,3.64-3,.68-5.92,1.73-9,2.32-2.76.53-5.49,1.59-8.26,2.31-4.16,1.08-8.32,2.16-12.49,3.27-.69.19-1.34.51-2,.74a9.29,9.29,0,0,1-2,.61c-3.2.27-4.38,0-4.32-3.8.11-7,0-13.93,0-20.89V581.43a31.54,31.54,0,0,1,.06-3.23,3.29,3.29,0,0,1,3.12-3.38,31.08,31.08,0,0,0,4.12-1.15,20.92,20.92,0,0,1,4.25-.43,2,2,0,0,1-.1.64,2.48,2.48,0,0,0-.61.07,2.36,2.36,0,0,0-2.23.65h0a2.45,2.45,0,0,0-2.17.74,2,2,0,0,0-.64.08c-1,0-2.1-.23-2.94.64h0a1.36,1.36,0,0,0-1.45,1.29.38.38,0,0,0,0,.15h0a7.4,7.4,0,0,0-.59,1.63,27.67,27.67,0,0,0,0,2.88V706.84c0,1.39-.53,2.9.6,4.14a1.94,1.94,0,0,0,2.28.51c3.3-1,6.57-2,9.88-3s6.44-1.64,9.63-2.53c1.47-.41,2.9-1,4.34-1.51a22.24,22.24,0,0,0,3.14-.38c3.73-1,7.44-2.19,11.16-3.29l2.25-.58,2.15-.75c1.4-.24,2.83-.37,4.19-.73,5.51-1.45,11-3,16.47-4.45a2.81,2.81,0,0,1,.71,0Z"/><path id="Path_1067" data-name="Path 1067" class="cls-3" d="M1643.47,577.51a1.38,1.38,0,0,1,1.31-1.45h.15a4.33,4.33,0,0,1,0,.72l-.72.7h-.35Z"/><path id="Path_1068" data-name="Path 1068" class="cls-3" d="M1644.92,311.48l-.71.73a4.21,4.21,0,0,0-.61,1.24c-.07,1-.09,1.92-.07,2.88V431.12c0,1.21.06,2.4.09,3.57l-.15.13c-.89-.89-.65-2-.65-3V315a15,15,0,0,1,.13-2.51,2,2,0,0,1,2-1.74Z"/><path id="Path_1069" data-name="Path 1069" class="cls-3" d="M1697.6,155.77c-3.3.95-6.58,2-9.91,2.84a118.32,118.32,0,0,0-11.59,3.22,12.42,12.42,0,0,1-2.08.44,7.11,7.11,0,0,0-1.78.22c-2.92,1.43-6.25,1.54-9.2,2.68h-2.27a15.2,15.2,0,0,1,2.25-1l10.35-2.67c1.73-.45,3.42-1,5.14-1.46,3.09-.9,6.19-1.66,9.28-2.54a12.82,12.82,0,0,0,1.92-.89l7.81-1.66.15.18a3,3,0,0,0-.07.66Z"/><path id="Path_1070" data-name="Path 1070" class="cls-3" d="M1602.44,181.68c-.89.21-1.87.38-2.78.63-3.3.89-6.59,1.93-9.92,2.79a15.4,15.4,0,0,1-3.18.18,35.64,35.64,0,0,1,3.91-1.4c4-.89,7.8-2.67,12-2.95C1602.42,181.22,1602.43,181.47,1602.44,181.68Z"/><path id="Path_1071" data-name="Path 1071" class="cls-3" d="M1751.68,546.58a5.54,5.54,0,0,1,1.17-.75,104.33,104.33,0,0,1,11-3c1.62-.4,3.19-1,4.78-1.46a8.18,8.18,0,0,1,2.06-.51,13.34,13.34,0,0,0,3.79-.89c3.18-1,6.41-1.78,9.64-2.67a19.56,19.56,0,0,0,3.07-.89,7.57,7.57,0,0,1,4.2-.58c-.52.26-1,.53-1.55.77-1,.44-1.91.89-2.87,1.3-1.17.22-2.36.37-3.51.67-4.06,1-8.1,2.06-12.13,3.18s-7.79,2.29-11.69,3.45a8.39,8.39,0,0,0-4.13.76A7.77,7.77,0,0,1,1751.68,546.58Z"/><path id="Path_1072" data-name="Path 1072" class="cls-3" d="M1774,677.77c-3.41.51-6.55,2.11-10,2.36a10.74,10.74,0,0,0-2,.74c-1.47.45-3,.86-4.46,1.23-2.3.59-4.63,1-6.91,1.71-3.31.89-6.56,2.07-9.88,3a24,24,0,0,1-4.23.38c.51-.24,1-.49,1.55-.7l3.56-1.42a22.28,22.28,0,0,0,2.82-.41c5.86-1.59,11.7-3.24,17.56-4.86q6.18-1.69,12.37-3.36a4.79,4.79,0,0,1,1.07,0v.71h0Z"/><path id="Path_1073" data-name="Path 1073" class="cls-3" d="M1710.71,694.43l-1-.14,7.51-2.17c1.15-.34,2.3-.69,3.45-1q7.21-2,14.46-4a6.83,6.83,0,0,1,1.43,0c-1.39,1.55-3.36,1.64-5.18,2.14-.89.25-1.82.47-2.72.74-.46.14-.9.53-1.32.53-3.68,0-6.82,2.13-10.42,2.43a4.29,4.29,0,0,0-1.67.56A8.71,8.71,0,0,1,1710.71,694.43Z"/><path id="Path_1074" data-name="Path 1074" class="cls-3" d="M1644.93,310.73a2,2,0,0,0-2,1.74,15,15,0,0,0-.14,2.51v116.8c0,1.05-.28,2.19.65,3a1.8,1.8,0,0,0,2.13.58l3-.67a4.91,4.91,0,0,1-4.83,1.6,2.33,2.33,0,0,1-2.13-2.51c0-.1,0-.2.05-.3.16-1.78.39-3.56.39-5.35V315.74c0-1.21,0-2.41.06-3.57a2.75,2.75,0,0,1,2.45-2.67c2.76-.26,5.15-1.89,8-1.88a8.4,8.4,0,0,0,3.35-1.21,6.73,6.73,0,0,1,3.51-.6v.75a107.86,107.86,0,0,1-13.55,3.74,4.77,4.77,0,0,0-1,.43Z"/><path id="Path_1075" data-name="Path 1075" class="cls-3" d="M1702,420.49a11.08,11.08,0,0,1-2.86,1.37c-3,.52-5.82,2-9,2.25-1.14.07-2.21.89-3.35,1.19-2.63.73-5.44.83-7.89,2.18-3.57-.27-6.49,2.43-10,2.38-2.28,1.5-5.07,1.16-7.52,2.1s-4.82,1.31-7.19,2.11a13.18,13.18,0,0,1-5.64.69c1.78-.62,3.57-1.33,5.35-1.83,3.35-.89,6.75-1.67,10.11-2.54,2.09-.53,4.16-1.16,6.25-1.78l19.39-5.4a7.94,7.94,0,0,0,1.38-.09c3.37-.89,6.73-1.87,10.09-2.82Z"/><path id="Path_1076" data-name="Path 1076" class="cls-3" d="M1775.49,677.07v-.71c3.1-.84,6.25-1.65,9.31-2.54a18.19,18.19,0,0,0,2.26-1,26.87,26.87,0,0,0,8.62-2.26,18.83,18.83,0,0,0,2.8-.37c3.65-1,7.27-2.16,10.9-3.25a10.55,10.55,0,0,0,2.1-.15l9.13-2.68c1.56-.46,3.13-.89,4.7-1.35l2.14-.76a5.05,5.05,0,0,0,3-.7.93.93,0,0,0,.55,0,2.38,2.38,0,0,0,2.18-.75h0l2.29-.68c1.79,0,3.57-.13,5-1.39a1.4,1.4,0,0,0,.64-.11,4.27,4.27,0,0,0,3-.62c.78-.05,1.61,0,2.13-.78h0l2.28-.68a1,1,0,0,0,.58,0c1.27-.24,2.57-.43,3.84-.73,3-.73,6-1.51,9-2.27l.95.15a14.31,14.31,0,0,1-2.93,1.26c-3.27.66-6.33,2.14-9.7,2.38a10.47,10.47,0,0,0-2,.69c-1.61.47-3.21.89-4.81,1.38-.68.2-1.37.38-2,.62s-1.1.66-1.66.66c-3.66,0-6.78,2.33-10.43,2.38-2.74,1.59-6.1,1.1-8.91,2.67a13.55,13.55,0,0,1-3.1.89c-1,.28-2.06.56-3.08.89a6.08,6.08,0,0,1-1,.41c-4.65.63-8.92,2.59-13.49,3.45-3.07.59-6,1.7-9,2.39-1.15.26-2.28.69-3.41,1.05-.12,0-.21.14-.33.14-3.49.23-6.62,2-10,2.5a13.66,13.66,0,0,1-1.43,0Z"/><path id="Path_1077" data-name="Path 1077" class="cls-3" d="M1831.81,119.12a19.61,19.61,0,0,1-6.41,2.08,3,3,0,0,0-.72.09c-2.48,1.25-5.34,1.36-7.87,2.3a13.36,13.36,0,0,1-5.2,1.24,1.57,1.57,0,0,0-.71.1c-2,1.11-4.33,1.25-6.49,1.91-4,1.22-8,2.33-12.05,3.29-3.36.8-6.64,1.89-10,2.79-3.57,1-7.14,1.73-10.7,2.76-2.17.64-4.39,1.14-6.5,1.89-3.15,1.11-6.5,1.49-9.61,2.79-1.14.47-2.58.19-3.89.26a38.82,38.82,0,0,1,7.09-2.2,7.72,7.72,0,0,0,1.61-.64l18.73-5.1a2.22,2.22,0,0,0,2.16-.69h0l1.6-.64a1,1,0,0,0,.56,0,4.09,4.09,0,0,0,3-.67,1.21,1.21,0,0,0,.59-.1l1.49-.65h0l3-.72a1.19,1.19,0,0,0,.59-.07c2.74-.65,5.5-1.23,8.23-2,3.57-1,7-2.06,10.51-3.12a16.28,16.28,0,0,0,2.1-.26q6.57-1.7,13.13-3.45c1.62-.43,3.21-.9,4.82-1.35Z"/><path id="Path_1078" data-name="Path 1078" class="cls-3" d="M1735.15,145.73c-.18.15-.36.41-.56.42-2.15.16-4.1,1.06-6.15,1.53a48.33,48.33,0,0,0-6.15,1.72c-2,.72-4.28.48-6.12,1.78-3,.12-5.7,1.48-8.53,2.33a8.94,8.94,0,0,1-2.13.11v-.7c2.87-.77,5.75-1.49,8.6-2.31a26.43,26.43,0,0,0,3-1.24,18.5,18.5,0,0,0,3.15-.33c3.29-.89,6.53-2,9.81-2.89a29.18,29.18,0,0,1,3.48-.51Z"/><path id="Path_1079" data-name="Path 1079" class="cls-3" d="M1735.15,145.73l-1.62-.11a17.39,17.39,0,0,1,2.26-1q7.21-2,14.44-4a5.7,5.7,0,0,1,1.43,0,4.55,4.55,0,0,1-3.11,1.54C1744,143.15,1739.6,144.47,1735.15,145.73Z"/><path id="Path_1080" data-name="Path 1080" class="cls-3" d="M1659.41,306.52v-.75l1.37-.08.78-.65c.23,0,.45-.05.68-.06l1.48-.67,2.11-.07,1.49-.64c.23,0,.46,0,.69-.05l1.46-.71c.89-.18,1.87-.33,2.78-.58,5.6-1.52,11.19-3.08,16.8-4.59,2.86-.76,5.73-1.42,8.59-2.2,1.6-.44,3.15-1.05,4.76-1.48a30.56,30.56,0,0,1,3.14-.49v.7c-4.23,1.61-8.67,2.41-13,3.71-3.85,1.15-7.9,1.67-11.6,3.46a12.5,12.5,0,0,0-4.45.79c-3.14,1-6.34,1.85-9.53,2.73-1.48.41-3,.78-4.45,1.11C1661.5,306.24,1660.45,306.36,1659.41,306.52Z"/><path id="Path_1081" data-name="Path 1081" class="cls-3" d="M1705.54,294.22v-.71c3.74-1.05,7.47-2.13,11.22-3.15,1-.27,2.09-.35,3.13-.53h1.42l.19.2-3.16,1.23c-3,.76-6,1.56-9,2.28C1708.11,293.83,1706.82,294,1705.54,294.22Z"/><path id="Path_1082" data-name="Path 1082" class="cls-3" d="M1702,420.49l-.89-.15a2.48,2.48,0,0,1,.15-.61c2.82-.14,5.35-1.35,8-2.17a1.26,1.26,0,0,0,.61-.07,2.33,2.33,0,0,0,2.16-.7l1.64-.65a17.2,17.2,0,0,0,2.86-.27c3.13-.83,6.24-1.78,9.33-2.63s6-1.57,9-2.37q8.13-2.21,16.28-4.46c.2-.06.36-.3.55-.45l2-.13.14.16a4.6,4.6,0,0,0,0,.64,14,14,0,0,1-2,.75c-5.84,1.16-11.52,2.9-17.22,4.51-5.35,1.52-10.83,2.62-16.1,4.46-2.68.89-5.51,1.38-8.25,2.1a23.27,23.27,0,0,0-4.08,1.28A12.91,12.91,0,0,1,1702,420.49Z"/><path id="Path_1083" data-name="Path 1083" class="cls-3" d="M1713.66,416.19l-1.64.64v-.71Z"/><path id="Path_1084" data-name="Path 1084" class="cls-3" d="M1807.9,391.51c-.75,1.08-1.92,1.27-3.1,1.55a84.74,84.74,0,0,0-9.65,2.46c-3.26,1.18-6.76,1.5-9.92,3a6,6,0,0,1-1.78.3,6,6,0,0,0-1.79.24c-2.93,1.42-6.18,1.78-9.24,2.74s-6.17,1.79-9.28,2.63a12.69,12.69,0,0,1-2.14.15v-.7l19.6-5.48c1.7-.48,3.57-.29,5-1.63,1.22-.19,2.54.07,3.63-.75,3.57-1,7.31-1.46,10.7-3a4.19,4.19,0,0,0,3-.61l2.15-.75Z"/><path id="Path_1085" data-name="Path 1085" class="cls-3" d="M1761.06,403.84v.69a3.42,3.42,0,0,1-.64,0l-.81.66a5.19,5.19,0,0,1-.68.05h-2.15l-.1-.12A7.89,7.89,0,0,1,1761.06,403.84Z"/><path id="Path_1086" data-name="Path 1086" class="cls-3" d="M1756.72,405.94l-2,.12-.8-.05-.14-.17a4.59,4.59,0,0,1,2.94-.65l.1.12Q1756.74,405.63,1756.72,405.94Z"/><path id="Path_1087" data-name="Path 1087" class="cls-3" d="M1815.14,530c.53-.79,1.35-.74,2.15-.7a3.45,3.45,0,0,1,0,.64Z"/><path id="Path_1088" data-name="Path 1088" class="cls-3" d="M1903,240.05l1.65.18c-2.37.7-4.74,1.48-7.14,2.08a6.86,6.86,0,0,0-3.22,1.37,1.68,1.68,0,0,0-.59.08l-2.25.56-1.35.19-1.51.59-2.24.74c-1.28.19-2.59.32-3.84.61-1.85.44-3.67,1-5.49,1.51l-12.26,3.57c-.93.17-1.89.29-2.81.53-3.12.8-6.25,1.65-9.35,2.47v-.68c1.58-.49,3.16-1,4.75-1.46,2.05-.58,4.12-1.07,6.17-1.64,3.1-.84,6.25-1.62,9.26-2.62s6.32-1.27,9.22-2.75c2.45.09,4.59-1.1,6.88-1.68s4.33-1.27,6.52-1.84C1897.94,241.21,1900.47,240.65,1903,240.05Z"/><path id="Path_1089" data-name="Path 1089" class="cls-3" d="M1852.62,253.85v.68l-11.89,3.39-6.1,1.72-7.2,1.48v-.78a3.77,3.77,0,0,1,1-.44c4.62-.69,9-2.41,13.46-3.57C1845.41,255.46,1849,254.68,1852.62,253.85Z"/><path id="Path_1090" data-name="Path 1090" class="cls-3" d="M1705.53,152.9v.69a3,3,0,0,0-.67.06l-1.48.69h0l-2.09.08-.17-.2a6.07,6.07,0,0,1,4.41-1.32Z"/><path id="Path_1091" data-name="Path 1091" class="cls-3" d="M1701.19,155l-2.09.1h-1.43l-.15-.18c1.07-.84,2.37-.55,3.56-.74l.17.19a3.28,3.28,0,0,0-.06.63Z"/><path id="Path_1092" data-name="Path 1092" class="cls-3" d="M1862.79,653.37l-1-.15,5.91-2.11a12.68,12.68,0,0,0,5.15-1.11,16.07,16.07,0,0,1,5.52-1.11l1,.14a7,7,0,0,1-1.23.61,28.77,28.77,0,0,0-4.1,1c-2.73,1.16-5.78,1.15-8.45,2.51A10.22,10.22,0,0,1,1862.79,653.37Z"/><path id="Path_1093" data-name="Path 1093" class="cls-3" d="M1729.27,287c.18-.15.34-.39.56-.44a90.62,90.62,0,0,0,12.72-3.57,8.26,8.26,0,0,1,1.79-.29,5.13,5.13,0,0,0,1.78-.23c1.78-1,3.94-1,5.8-1.72,3.13-1.23,6.51-1.49,9.61-2.82,1.5-.65,3.4-.4,4.86-1.1,2.86-1.36,6.08-1.14,8.91-2.55,1.34-.66,3-.64,4.53-.93v.73l-6.52,2.15a4,4,0,0,0-2.94.64,159.43,159.43,0,0,0-18.08,5.06H1752l-.31.07a2.2,2.2,0,0,0-2.19.69h0a2.41,2.41,0,0,0-2.18.73h0c-1.23.08-2.55-.23-3.56.76-3.11.84-6.25,1.71-9.34,2.51a27,27,0,0,1-2.82.43Z"/><path id="Path_1094" data-name="Path 1094" class="cls-3" d="M1729.27,287l2.29.09a7.84,7.84,0,0,1-4.4,1.4v-.73h0l1.46-.69Z"/><path id="Path_1095" data-name="Path 1095" class="cls-3" d="M1723.56,288.45l1.38-.07,1.65.16c-.89.77-1.93.61-2.94.72l-.17-.18A2.22,2.22,0,0,0,1723.56,288.45Z"/><path id="Path_1096" data-name="Path 1096" class="cls-3" d="M1726.59,288.54l-1.65-.16a2.52,2.52,0,0,1,2.23-.65v.73a1.41,1.41,0,0,1-.58.08Z"/><path id="Path_1097" data-name="Path 1097" class="cls-3" d="M1723.64,289.26l-2.13.75-.19-.2a2.36,2.36,0,0,0,.07-.65h0l2.09-.08Z"/><path id="Path_1098" data-name="Path 1098" class="cls-3" d="M1877.87,106.11v.64c-3.5,1-7,2.11-10.51,3.12-2.27.65-4.55,1.29-6.85,1.78a13.37,13.37,0,0,1-2.83.12,1.55,1.55,0,0,1,.13-.63c2.67-.65,5.35-1.25,8-2,3.46-1,6.89-2,10.34-3a9.66,9.66,0,0,1,1.7-.12Z"/><path id="Path_1099" data-name="Path 1099" class="cls-3" d="M1779.8,274.06v-.73c1.59-.49,3.18-1,4.79-1.45,2.54-.68,5.18-1.06,7.62-2,3.16-1.16,6.51-1.53,9.63-2.82,1.15-.47,2.6-.2,3.91-.28-1.89.67-3.76,1.4-5.68,2-2.28.67-4.64,1.1-6.88,1.86-1.34.46-2.93,0-4,1.18h0l-1.6.68c-1.59.27-3.17.54-4.74.84C1781.8,273.52,1780.81,273.82,1779.8,274.06Z"/><path id="Path_1100" data-name="Path 1100" class="cls-3" d="M1805.75,266.82c2-1.88,4.54-2.15,7.14-2.21h.78l.14.14a2.92,2.92,0,0,1-.21.56,1.5,1.5,0,0,0-.63.08c-1.26.26-2.52.54-3.78.78S1806.9,266.62,1805.75,266.82Z"/><path id="Path_1101" data-name="Path 1101" class="cls-3" d="M1867,516.27l1.44-.71v.72Z"/><path id="Path_1102" data-name="Path 1102" class="cls-3" d="M1831.81,119.11l-1-.18a4,4,0,0,1,.24-.51,8.23,8.23,0,0,0,1.78-.2c3.69-1.29,7.6-1.78,11.21-3.38a23.21,23.21,0,0,0,2.48-.38c3-.82,6-1.72,9-2.51a10.9,10.9,0,0,1,2.14-.15,23.54,23.54,0,0,1-3.2,1.44c-3,.84-5.93,1.53-8.91,2.31-.89.23-1.79.55-2.74.81l-9.59,2.67A6.83,6.83,0,0,1,1831.81,119.11Z"/><path id="Path_1103" data-name="Path 1103" class="cls-3" d="M1827.35,260.34v.78a77,77,0,0,1-7.88,2.13l-.94-.13c1.43-1.22,3.23-1.54,5-2C1824.8,260.78,1826.1,260.59,1827.35,260.34Z"/><path id="Path_1104" data-name="Path 1104" class="cls-3" d="M1818.59,263.12l.94.13c-.89.79-1.93.62-3,.66v-.7Z"/><path id="Path_1105" data-name="Path 1105" class="cls-3" d="M1813.69,264c.22,0,.44-.05.67-.06h1.46l.07.1a1.43,1.43,0,0,1-.08.58l-2,.2-.13-.14C1813.68,264.42,1813.69,264.2,1813.69,264Z"/><path id="Path_1106" data-name="Path 1106" class="cls-3" d="M1816.57,263.21v.7a2.16,2.16,0,0,1-.67.08l-.07-.1v-.65a4.58,4.58,0,0,1,.74,0Z"/><path id="Path_1107" data-name="Path 1107" class="cls-3" d="M1787.56,272.51l1.59-.68v.73Z"/><path id="Path_1108" data-name="Path 1108" class="cls-3" d="M1492.09,897.69c.79-1,2-1.21,3.13-1.52,4-1.08,8.08-2,12.06-3.34,3.26-1.05,6.7-1.64,10-2.48,2.77-.71,5.53-1.5,8.29-2.26q5.51-1.49,11-3l11.72-3.23v.66l-.75.69h0l-2.24.69c-2.82,0-5.28,1.38-7.94,2.07-1.12.25-2.25.49-3.38.76s-2.48.62-3.72.94l-6.58,1.92a37.56,37.56,0,0,0-7.93,2.17c-3.4.89-6.94,1.21-10.09,2.89-1.19.23-2.55-.24-3.53.84h0a2.37,2.37,0,0,0-2.15.73h0c-1,0-2.11-.16-3,.65a3.4,3.4,0,0,0-.64.09l-1.49.65h0Z"/><path id="Path_1109" data-name="Path 1109" class="cls-3" d="M1494.31,898.42c-.8,1-1.9.62-2.92.67C1492.19,898.11,1493.3,898.48,1494.31,898.42Z"/><path id="Path_1110" data-name="Path 1110" class="cls-3" d="M1835.46,659.81l-2.3.68v-.72Z"/><path id="Path_1111" data-name="Path 1111" class="cls-3" d="M1848.43,656.23l-2.27.68v-.73Z"/><path id="Path_1112" data-name="Path 1112" class="cls-3" d="M1813.56,530.62l1.58-.63q0,.35,0,.69Z"/><path id="Path_1113" data-name="Path 1113" class="cls-3" d="M1648.51,575.35a2.46,2.46,0,0,1,2.18-.74v.72Z"/><path id="Path_1114" data-name="Path 1114" class="cls-3" d="M1782.84,131.35l-1.6.64v-.7Z"/><path id="Path_1115" data-name="Path 1115" class="cls-3" d="M1747.32,283.33a2.4,2.4,0,0,1,2.17-.72v.74Z"/><path id="Path_1116" data-name="Path 1116" class="cls-3" d="M1831.72,384.35a2.25,2.25,0,0,1-2.14.75,4.21,4.21,0,0,1,0-.71Z"/><path id="Path_1117" data-name="Path 1117" class="cls-3" d="M1865.63,375a2.44,2.44,0,0,1-2.17.74V375Z"/><path id="Path_1118" data-name="Path 1118" class="cls-3" d="M1788.49,129.88l-1.49.65v-.69Z"/><path id="Path_1119" data-name="Path 1119" class="cls-3" d="M1504.4,207a2.41,2.41,0,0,1-2.17.73c0-.24,0-.48,0-.71l1.39-.06Z"/><path id="Path_1120" data-name="Path 1120" class="cls-3" d="M1868.48,515.55l.67-.77v.77h-.67Z"/><path id="Path_1121" data-name="Path 1121" class="cls-3" d="M1547.62,883.24l.75-.69.72.06v.62Z"/><path id="Path_1122" data-name="Path 1122" class="cls-3" d="M1586.35,872.5h0c-.07-.11-.15-.23-.21-.34L1586,872Z"/><path id="Path_1123" data-name="Path 1123" class="cls-3" d="M1817.24,809a9.75,9.75,0,0,1,1.57-.73c1.93-.55,4-.77,5.78-1.78a2.14,2.14,0,0,1,1-.29c3.75-.1,7-2.33,10.7-2.47,3.51-1.55,7.34-1.93,10.94-3.16a8.83,8.83,0,0,1,1.78-.2v.7c-5.42,1.46-10.85,2.9-16.27,4.4a31.69,31.69,0,0,0-3.31,1.32,13.85,13.85,0,0,0-3.45.52,39.88,39.88,0,0,1-7.14,1.78Z"/><path id="Path_1124" data-name="Path 1124" class="cls-3" d="M1876.39,793.09v.71l-1.53.61a6.36,6.36,0,0,0-1.07.11l-12.66,3.57-7.86,1.86c-.68.16-1.38.27-2.07.4l-.09-.1a3.82,3.82,0,0,0,.06-.68c2.67-.72,5.28-1.43,7.92-2.18,2-.55,3.87-1.18,5.83-1.74a21,21,0,0,1,2.1-.39,7.88,7.88,0,0,0,2.1-.4C1871.41,793.72,1873.94,793.61,1876.39,793.09Z"/><path id="Path_1125" data-name="Path 1125" class="cls-3" d="M1849,801.06v-.69a2.79,2.79,0,0,1,.64-.07h1.45l.09.1A2.41,2.41,0,0,1,1849,801.06Z"/><path id="Path_1126" data-name="Path 1126" class="cls-3" d="M1586.35,872.49l-.41-.55c.56-1.37,2-1.35,3-1.52a12.76,12.76,0,0,0,4.1-1.21.93.93,0,0,1,.34-.13c3.56.1,6.5-2.32,10-2.48a5.62,5.62,0,0,0,1.69-.57c.55-.21,1.11-.66,1.66-.65,3.66,0,6.79-2.34,10.42-2.38,2.17-1.07,4.62-1.2,6.84-2,3-1.15,6.33-1.31,9.24-2.79,4.64-.6,9-2.34,13.46-3.56,3.46-.9,7-1.68,10.43-2.54a7.73,7.73,0,0,0,1.66-.68,5.68,5.68,0,0,1,3.48-.59v.68l-6.52,2.11a8.83,8.83,0,0,0-4.37,1.38c-1.51.27-3,.45-4.52.83-3.56.89-7.13,1.78-10.62,2.91-3.82,1.25-7.91,1.62-11.54,3.47-3.07-.06-5.78,1.32-8.64,2.18a9.5,9.5,0,0,0-5,1.49c-1,0-2.08-.14-2.92.67L1603,868h-.28l-.28.09a9.08,9.08,0,0,0-4.38,1.36c-1.79,0-3.61.12-5.07,1.42-1.21.16-2.5-.06-3.57.76Z"/><path id="Path_1127" data-name="Path 1127" class="cls-3" d="M1691.11,843.6c1.37-1.62,3.2-1.55,5.07-1.42l-1.48.7-1.49.69Z"/><path id="Path_1128" data-name="Path 1128" class="cls-3" d="M1670.2,849.37c1.26-1.43,3.09-1.57,4.76-2.06,1.33-.4,2.75-.57,4.07-1a9.35,9.35,0,0,1,4.16-.53,1.41,1.41,0,0,1-.11.61,11.8,11.8,0,0,0-1.78.18c-2.27.57-4.53,1.14-6.78,1.79a14.31,14.31,0,0,0-2.17,1Z"/><path id="Path_1129" data-name="Path 1129" class="cls-3" d="M1662.28,851.54v-.69c.78-.23,1.59-.42,2.36-.71a11.25,11.25,0,0,1,5.53-.78C1667.65,850.43,1665.13,851.59,1662.28,851.54Z"/><path id="Path_1130" data-name="Path 1130" class="cls-3" d="M1817.24,809l1.59.08-3.69,1.47a2.27,2.27,0,0,0-2.2.62h0l-1.57.67h-.29l-.29.06c-1,.06-2.12-.1-3,.68a1.62,1.62,0,0,0-.62.07l-10.8,2.94-2.18-.09c2.24-1,4.46-2.08,7-2.2a3.65,3.65,0,0,0,1.38-.27,30.24,30.24,0,0,1,6.45-1.9C1811.77,810.44,1814.5,809.68,1817.24,809Z"/><path id="Path_1131" data-name="Path 1131" class="cls-3" d="M1748.8,827.79a14.56,14.56,0,0,1,6-2.21c.89-.21,1.84-.48,2.75-.76.33-.11.66-.42,1-.41,3.56,0,6.52-2.29,10-2.51a8.09,8.09,0,0,0,2.4-.71,9,9,0,0,1,4.58-.64,5,5,0,0,1-.1.66,1.59,1.59,0,0,0-.65.07c-.82-.06-1.63-.11-2.19.68l-12.41,3.16a2.33,2.33,0,0,0-.59.39,2.59,2.59,0,0,0-2.19.74,1.53,1.53,0,0,0-.64.08l-4.15.74Z"/><path id="Path_1132" data-name="Path 1132" class="cls-3" d="M1757.38,826.26a2.53,2.53,0,0,1,2.19-.74v.74Z"/><path id="Path_1133" data-name="Path 1133" class="cls-3" d="M1776.18,820.52a4.63,4.63,0,0,1,2.79-1.45c4.25-1.12,8.5-2.28,12.76-3.38a14.74,14.74,0,0,1,2.48-.21l-4.46,2c-3,.09-5.82,1.27-8.63,2.23a4.81,4.81,0,0,0-.65.08c-.79,0-1.62,0-2.13.75h0Z"/><path id="Path_1134" data-name="Path 1134" class="cls-3" d="M1683.18,845.75c2.33-1.89,5.11-2.12,7.94-2.14-.47.24-.95.5-1.44.71s-1,.39-1.54.58C1686.47,845,1684.94,846.13,1683.18,845.75Z"/><path id="Path_1135" data-name="Path 1135" class="cls-3" d="M1776.18,820.52h2.18a3.75,3.75,0,0,1,0,.67h-2.9a3.51,3.51,0,0,0,.09-.65A4.42,4.42,0,0,0,1776.18,820.52Z"/><path id="Path_1136" data-name="Path 1136" class="cls-3" d="M1778.37,820.55c.52-.8,1.35-.74,2.14-.75a3.68,3.68,0,0,1-.06.66Z"/><path id="Path_1137" data-name="Path 1137" class="cls-3" d="M1500.06,896.23c.54-.76,1.35-.72,2.15-.73v.71Z"/><path id="Path_1138" data-name="Path 1138" class="cls-3" d="M1811.38,811.81l1.57-.67c0,.24,0,.48,0,.71Z"/><path id="Path_1139" data-name="Path 1139" class="cls-3" d="M1495,897.62l1.49-.65c0,.23,0,.45,0,.67Z"/><path id="Path_1140" data-name="Path 1140" class="cls-3" d="M1723.48,289.08l-2.09.08c.53-.83,1.37-.72,2.17-.71A2.65,2.65,0,0,1,1723.48,289.08Z"/><path id="Path_1141" data-name="Path 1141" class="cls-3" d="M1701.19,155a4.52,4.52,0,0,1,.08-.63l2.09-.07C1702.84,155.18,1702,155.06,1701.19,155Z"/><path id="Path_1142" data-name="Path 1142" class="cls-3" d="M1756.72,406c0-.22,0-.43.06-.64h2.15C1758.36,406.05,1757.53,406,1756.72,406Z"/><path id="Path_1143" data-name="Path 1143" class="cls-3" d="M1703.41,154.33l1.47-.68Z"/><path id="Path_1144" data-name="Path 1144" class="cls-3" d="M1697.67,155.14h1.43l-1.51.63a3.38,3.38,0,0,1,.07-.63Z"/><path id="Path_1145" data-name="Path 1145" class="cls-3" d="M1663.72,304.33l-1.47.67Z"/><path id="Path_1146" data-name="Path 1146" class="cls-3" d="M1728.62,287l-1.46.7Z"/><path id="Path_1147" data-name="Path 1147" class="cls-3" d="M1774,677.77l1.45-.7Z"/><path id="Path_1148" data-name="Path 1148" class="cls-3" d="M1667.33,303.62l-1.49.64Z"/><path id="Path_1149" data-name="Path 1149" class="cls-3" d="M1669.53,302.86l-1.47.7Z"/><path id="Path_1150" data-name="Path 1150" class="cls-3" d="M1851.11,800.28h-1.45l1.51-.7A4.14,4.14,0,0,1,1851.11,800.28Z"/><path id="Path_1151" data-name="Path 1151" class="cls-3" d="M1544.77,790.28q0-.35,0-.69h1.48Z"/><path id="Path_1152" data-name="Path 1152" class="cls-3" d="M1721.39,289.16a2.36,2.36,0,0,1-.07.65h-1.42Z"/><path id="Path_1153" data-name="Path 1153" class="cls-3" d="M1815.85,263.24v.65h-1.46Z"/><path id="Path_1154" data-name="Path 1154" class="cls-3" d="M1661.56,305.05l-.77.65Z"/><path id="Path_1155" data-name="Path 1155" class="cls-3" d="M1759.58,405.22l.82-.65Z"/><path id="Path_1156" data-name="Path 1156" class="cls-3" d="M1813.69,264v.66h-.78Z"/><path id="Path_1157" data-name="Path 1157" class="cls-3" d="M1753.88,406l.8.05-.89.59A3.4,3.4,0,0,1,1753.88,406Z"/></g></svg>