<svg xmlns="http://www.w3.org/2000/svg" width="223.392" height="261.134" viewBox="0 0 223.392 261.134"><defs><style>.a{fill:#ffaf12;}.b{fill:#f80;}.c{fill:#005ed2;}.d{fill:#004eb1;}.e{fill:#ffdaa8;}.f{fill:#ffc373;}.g{fill:#08f;}.h{fill:#006ef4;}</style></defs><g transform="translate(0)"><path class="a" d="M223.392,348.359v50.483H0V348.359a67.275,67.275,0,0,1,67.314-67.308h88.765a67.275,67.275,0,0,1,67.314,67.308Zm0,0" transform="translate(0 -137.707)"/><path class="b" d="M330.7,348.359v50.483H219V281.051h44.382A67.275,67.275,0,0,1,330.7,348.359Zm0,0" transform="translate(-107.304 -137.707)"/><path class="b" d="M365,21h15.3V69.453H365Zm0,0" transform="translate(-178.84 -10.289)"/><path class="c" d="M97.5,0H221.437V81.094H97.5Zm0,0" transform="translate(-47.772)"/><path class="c" d="M221.4,283.157l-61.122,82.651L99.16,283.157a67.129,67.129,0,0,1,16.739-2.106h88.765a67.13,67.13,0,0,1,16.739,2.106Zm0,0" transform="translate(-48.586 -137.707)"/><path class="d" d="M263.383,281.051a67.132,67.132,0,0,1,16.739,2.106L219,365.807V281.051Zm0,0" transform="translate(-107.304 -137.707)"/><path class="d" d="M219,0h61.968V81.094H219Zm0,0" transform="translate(-107.304)"/><path class="e" d="M97.5,144v23.232a61.968,61.968,0,0,0,123.937,0V144Zm0,0" transform="translate(-47.772 -70.556)"/><path class="f" d="M219,144v85.2a62.039,62.039,0,0,0,61.968-61.968V144Zm0,0" transform="translate(-107.304 -70.556)"/><path class="g" d="M16.5,0H223.061V15.3H16.5Zm0,0" transform="translate(-8.085)"/><path class="h" d="M219,0H322.281V15.3H219Zm0,0" transform="translate(-107.304)"/></g></svg>