<svg id="Group_750" data-name="Group 750" xmlns="http://www.w3.org/2000/svg" width="106.995" height="151.025" viewBox="0 0 106.995 151.025">
  <path id="Path_615" data-name="Path 615" d="M53.877,192.111l-43.7-12.13L.445,70.766h107l-9.748,109.2Z" transform="translate(-0.445 -41.086)" fill="#264de4"/>
  <path id="Path_616" data-name="Path 616" d="M163.405,185.372l8.329-93.315H128v103.13l35.405-9.815Z" transform="translate(-74.502 -53.447)" fill="#2965f1"/>
  <path id="Path_617" data-name="Path 617" d="M50.329,151.106l1.2,13.395H81.5V151.106ZM47.917,124l1.218,13.395H81.5V124Zm33.588,61.9-.059.016-14.918-4.028L65.575,171.2H52.128L54,192.23l27.438,7.616.062-.017Z" transform="translate(-28.007 -71.99)" fill="#ebebeb"/>
  <path id="Path_618" data-name="Path 618" d="M60.484,0H76.707V6.784H67.268v6.784h9.439v6.784H60.484ZM79.952,0H96.175V5.9H86.736v1.18h9.439V20.648H79.952v-6.2h9.439v-1.18h-9.44V0ZM99.42,0h16.223V5.9H106.2v1.18h9.439V20.648H99.42v-6.2h9.439v-1.18H99.42V0Z" transform="translate(-35.303)" fill="#fff"/>
  <path id="Path_619" data-name="Path 619" d="M159.025,151.106,161.443,124H127.889V137.39h18.874l-1.219,13.716H127.889V164.5h16.494l-1.555,17.372-14.939,4.032V199.84l27.46-7.61.2-2.263L158.7,154.7Z" transform="translate(-74.438 -71.99)" fill="#fff"/>
</svg>
