<svg xmlns="http://www.w3.org/2000/svg" width="67.866" height="67.866" viewBox="0 0 67.866 67.866"><defs><style>.a{fill:#1877f2;}.b{fill:#fff;}</style></defs><path class="a" d="M67.866,33.933A33.933,33.933,0,1,0,28.631,67.454V43.742H20.015V33.933h8.616V26.457c0-8.5,5.066-13.2,12.817-13.2a52.181,52.181,0,0,1,7.6.663v8.351H44.765c-4.215,0-5.53,2.616-5.53,5.3v6.365h9.411l-1.5,9.809H39.235V67.454A33.941,33.941,0,0,0,67.866,33.933Z"/><path class="b" d="M329.127,230.487l1.5-9.809H321.22v-6.365c0-2.683,1.315-5.3,5.53-5.3h4.279v-8.351a52.183,52.183,0,0,0-7.6-.663c-7.751,0-12.817,4.7-12.817,13.2v7.476H302v9.809h8.616V254.2a34.29,34.29,0,0,0,10.6,0V230.487Z" transform="translate(-281.985 -186.745)"/></svg>