<svg xmlns="http://www.w3.org/2000/svg" xmlns:xlink="http://www.w3.org/1999/xlink" width="147.602" height="141.143" viewBox="0 0 147.602 141.143"><defs><style>.a{fill:url(#a);}</style><linearGradient id="a" x1="0.335" y1="-0.287" x2="1" y2="0.5" gradientUnits="objectBoundingBox"><stop offset="0" stop-color="#6a11cb"/><stop offset="1" stop-color="#2575fc"/></linearGradient></defs><g transform="translate(0)"><path class="a" d="M28.98,38.711c.711-.207,1.494-.431,2.326-.676V57.277c5.16-.4,11.12-.652,17.907-.729l4.469-34.861h-.053l-2.143-4.263c-15.463.812-32.313,6.866-33.072,7.138a8.633,8.633,0,0,0-1.249.723c-.431.266-.883.478-1.284.776a9.206,9.206,0,0,0-1.172,1.4,7.279,7.279,0,0,0-.824,1.151,7.452,7.452,0,0,0-.587,1.762,7.383,7.383,0,0,0-.357,1.128L9.762,60.187a133.863,133.863,0,0,1,17.122-2.562Z" transform="translate(19.056 30.783)"/><path class="a" d="M39,47.527c11.681,0,21.163-13.571,21.163-25.266a21.166,21.166,0,0,0-42.332,0C17.828,33.959,27.3,47.527,39,47.527Z" transform="translate(34.801 -1.094)"/><path class="a" d="M40.375,33.77,34.2,28.911l.7,6.3c2.093.192,4.168.4,6.1.635Z" transform="translate(66.77 53.206)"/><path class="a" d="M46.434,35.382,34.274,25.867a7.784,7.784,0,0,1-2.769.493A7.872,7.872,0,0,1,26.032,24.1l2.483,19.4q9.693.12,17.919.738V35.382Z" transform="translate(50.816 43.824)"/><path class="a" d="M25.406,21.687h-.047l.738,5.762a7.861,7.861,0,0,1,6.728-3.973A7.962,7.962,0,0,1,40.783,31.4L65.321,50.614l.635,1.573,2.323,7.758c.369.062.661.148,1.01.236L66.1,31.5a6.8,6.8,0,0,0-.372-1.16,7.772,7.772,0,0,0-.549-1.718,7.558,7.558,0,0,0-.874-1.193,8.817,8.817,0,0,0-1.125-1.34,7.85,7.85,0,0,0-1.346-.8,6.837,6.837,0,0,0-1.193-.723c-.765-.272-17.618-6.326-33.089-7.138Z" transform="translate(49.502 30.783)"/><path class="a" d="M115.786,61s-2.825-2.329-13.526-4.337L99.308,46.8a.923.923,0,0,0-.3-.458L73.684,26.529a4.148,4.148,0,0,0,.31-1.511,4.36,4.36,0,1,0-1.287,3.052L97.649,47.61l2.6,8.7c-8.3-1.411-20.67-2.595-39.112-2.595-45.783,0-54.651,7.283-54.651,7.283V75.852h109.3Z" transform="translate(12.657 37.199)"/><path class="a" d="M0,46.75,10.928,65.274H136.662L147.6,46.75V40.521H0Z" transform="translate(0 75.869)"/></g></svg>