<svg xmlns="http://www.w3.org/2000/svg" width="66.462" height="67.803" viewBox="0 0 66.462 67.803"><defs><style>.a{fill:#4285f4;}.b{fill:#34a853;}.c{fill:#fbbc04;}.d{fill:#ea4335;}</style></defs><path class="a" d="M304.661,229.988a39.868,39.868,0,0,0-.585-6.888H272.1v13.054h18.311a15.692,15.692,0,0,1-6.776,10.3v8.47h10.924C300.974,249.022,304.661,240.3,304.661,229.988Z" transform="translate(-238.199 -195.307)"/><path class="b" d="M59.194,351.7c9.143,0,16.854-3,22.472-8.184l-10.924-8.47A20.561,20.561,0,0,1,40.173,324.3H28.9v8.732A33.905,33.905,0,0,0,59.194,351.7Z" transform="translate(-25.294 -283.901)"/><path class="c" d="M14.817,171.712a20.306,20.306,0,0,1,0-12.98V150H3.556a33.929,33.929,0,0,0,0,30.444Z" transform="translate(0.05 -131.313)"/><path class="d" d="M59.194,13.4a18.422,18.422,0,0,1,13,5.082h0L81.878,8.8A32.582,32.582,0,0,0,59.194-.016,33.894,33.894,0,0,0,28.9,18.669L40.161,27.4A20.277,20.277,0,0,1,59.194,13.4Z" transform="translate(-25.294 0.018)"/></svg>