<svg xmlns="http://www.w3.org/2000/svg" xmlns:xlink="http://www.w3.org/1999/xlink" width="261.08" height="167.067" viewBox="0 0 261.08 167.067"><defs><style>.a{fill:url(#a);}</style><linearGradient id="a" x1="0.5" x2="0.5" y2="1" gradientUnits="objectBoundingBox"><stop offset="0" stop-color="#8e2de2"/><stop offset="1" stop-color="#0065ff"/></linearGradient></defs><g transform="translate(0 -92.184)"><g transform="translate(73.578 92.184)"><path class="a" d="M246.237,186.3l-22.223-9.877a4.354,4.354,0,0,1-2.584-3.976v-6.1a32.387,32.387,0,0,0,12.264-25.373v-8.591a7.925,7.925,0,0,0,4.088-6.926v-.834a32.475,32.475,0,0,0-32.438-32.438h-8.175a32.475,32.475,0,0,0-32.438,32.438v7.565a8.02,8.02,0,0,0,3.052,6.426,7.463,7.463,0,0,0,1.036.671v1.689a32.386,32.386,0,0,0,12.263,25.372v6.1a4.355,4.355,0,0,1-2.584,3.976L156.273,186.3a20.192,20.192,0,0,0-11.981,18.436v50.688a3.824,3.824,0,1,0,7.649,0V204.737a12.509,12.509,0,0,1,.077-1.316l10.24,10.24a8.385,8.385,0,0,1,2.472,5.967v35.8a3.824,3.824,0,0,0,7.649,0v-35.8a15.981,15.981,0,0,0-4.712-11.375l-12.208-12.209a12.493,12.493,0,0,1,3.921-2.755l21.849-9.71,16.2,16.2v55.642a3.824,3.824,0,0,0,7.649,0V199.783l16.2-16.2,21.848,9.71a12.486,12.486,0,0,1,3.921,2.755l-12.208,12.208a15.981,15.981,0,0,0-4.712,11.375v35.8a3.824,3.824,0,0,0,7.649,0v-35.8a8.383,8.383,0,0,1,2.472-5.967l10.24-10.24a12.485,12.485,0,0,1,.078,1.315v50.688a3.824,3.824,0,1,0,7.649,0V204.737A20.2,20.2,0,0,0,246.237,186.3Zm-44.982,6.489-14.217-14.218a11.979,11.979,0,0,0,1.691-6.125v-1.556a32.411,32.411,0,0,0,25.052,0v1.556a11.976,11.976,0,0,0,1.692,6.125Zm0-27.029a24.816,24.816,0,0,1-24.789-24.788v-1.72a22.61,22.61,0,0,0,6.946-4.509,3.825,3.825,0,0,0-5.188-5.621,13.737,13.737,0,0,1-5.679,3.391.618.618,0,0,1-.1.019.777.777,0,0,1-.065-.346v-7.565a24.817,24.817,0,0,1,24.789-24.789h8.175a24.817,24.817,0,0,1,24.789,24.789v.834a.246.246,0,0,1-.172.251c-22.9,4.523-34.388-4-38.263-7.877a3.824,3.824,0,1,0-5.408,5.408c11.876,11.876,29.206,12.09,39.756,10.823v6.911A24.817,24.817,0,0,1,201.255,165.761Z" transform="translate(-144.292 -92.184)"/></g><g transform="translate(0 112.622)"><g transform="translate(0 0)"><path class="a" d="M68.963,185.142v-8.177a28.344,28.344,0,0,0-13-23.814,16.086,16.086,0,1,0-30.707,0,28.343,28.343,0,0,0-13,23.813v8.175a28.335,28.335,0,0,0,12.263,23.325v8.41a4.327,4.327,0,0,1-2.4,3.892L8.893,227.381A16,16,0,0,0,0,241.771v33.3a3.824,3.824,0,0,0,7.649,0V243.425l6.23,6.23a8.385,8.385,0,0,1,2.472,5.967v19.446a3.824,3.824,0,0,0,7.649,0V255.623a15.983,15.983,0,0,0-4.712-11.375l-8.671-8.671c-.042-.042-.087-.078-.13-.117a8.528,8.528,0,0,1,1.827-1.235l13.228-6.614a12.18,12.18,0,0,0,1.9-1.184l9.35,9.351v39.292a3.824,3.824,0,1,0,7.649,0V235.776l9.351-9.351a12.128,12.128,0,0,0,1.9,1.184l3.647,1.824a3.824,3.824,0,1,0,3.421-6.841l-3.647-1.824a4.327,4.327,0,0,1-2.405-3.891v-8.41A28.335,28.335,0,0,0,68.963,185.142Zm-28.35-45.228a8.448,8.448,0,0,1,8.438,8.438,8.571,8.571,0,0,1-.134,1.507,28.348,28.348,0,0,0-16.6,0,8.386,8.386,0,0,1,8.293-9.941Zm0,16.351a20.725,20.725,0,0,1,20.7,20.7v1.386c-15.922,4.875-25.412-7.237-25.817-7.768a3.824,3.824,0,0,0-5.764-.409,25.019,25.019,0,0,1-9.808,6.261A20.721,20.721,0,0,1,40.613,156.265Zm0,72.519-8.837-8.837a12.11,12.11,0,0,0,.4-3.069v-4.668a28.4,28.4,0,0,0,16.876,0v4.668a12.107,12.107,0,0,0,.4,3.069Zm0-22.941a20.725,20.725,0,0,1-20.7-20.7v-.792A30.665,30.665,0,0,0,32.2,178.225a34.507,34.507,0,0,0,7.092,5.163,30.419,30.419,0,0,0,14.616,3.772,32.043,32.043,0,0,0,7.373-.883A20.727,20.727,0,0,1,40.613,205.842Z" transform="translate(0 -132.265)"/></g></g><g transform="translate(183.943 120.798)"><path class="a" d="M428.972,227.064l-21.4-10.7a4.327,4.327,0,0,1-2.4-3.891v-5.42a24.205,24.205,0,0,0,8.175-18.141v-4.353l.263,0a3.825,3.825,0,0,0,3.824-3.824v-8.175A24.29,24.29,0,0,0,393.164,148.3h-8.175a24.29,24.29,0,0,0-24.263,24.263v8.175a3.825,3.825,0,0,0,3.824,3.824c.032,0,.123,0,.263-.007v4.357a24.206,24.206,0,0,0,8.176,18.141v5.42a4.326,4.326,0,0,1-2.405,3.891A3.825,3.825,0,1,0,374,223.2a12.181,12.181,0,0,0,1.9-1.184l9.351,9.351v51.555a3.824,3.824,0,1,0,7.649,0V231.371l9.35-9.351a12.127,12.127,0,0,0,1.9,1.184l20.711,10.356-6.282,6.282a15.983,15.983,0,0,0-4.712,11.375v31.709a3.824,3.824,0,0,0,7.649,0V251.216a8.384,8.384,0,0,1,2.472-5.967l5.95-5.95a8.523,8.523,0,0,1,.279,2.154v41.473a3.824,3.824,0,0,0,7.649,0V241.453A16,16,0,0,0,428.972,227.064Zm-60.6-50.94V172.56h0a16.633,16.633,0,0,1,16.614-16.614h8.175a16.633,16.633,0,0,1,16.614,16.614v4.248c-16.625-.9-26.658-7.366-26.755-7.43a3.824,3.824,0,0,0-4.826.478A25.048,25.048,0,0,1,368.374,176.124Zm20.7,48.254-8.837-8.837a12.109,12.109,0,0,0,.4-3.069v-.814a24.242,24.242,0,0,0,16.876,0v.814a12.087,12.087,0,0,0,.4,3.069Zm0-18.853a16.632,16.632,0,0,1-16.614-16.614v-6.165h0a32.364,32.364,0,0,0,8.975-5.478,67.945,67.945,0,0,0,24.252,6.895v4.748A16.633,16.633,0,0,1,389.076,205.525Z" transform="translate(-360.726 -148.298)"/></g></g></svg>