<svg xmlns="http://www.w3.org/2000/svg" width="27.595" height="25.036" viewBox="0 0 27.595 25.036">
  <g id="Group_868" data-name="Group 868" transform="translate(0.51 0.5)">
    <g id="star" transform="translate(0.003)">
      <path id="Path_68" data-name="Path 68" d="M13.913.848l3.38,7.583,8.652.7a.64.64,0,0,1,.389,1.133l-6.563,5.39,1.967,8.019a.674.674,0,0,1-1.016.7l-7.436-4.251L5.85,24.377a.674.674,0,0,1-1.016-.7L6.8,15.659.236,10.267A.64.64,0,0,1,.625,9.134l8.652-.7L12.657.848a.7.7,0,0,1,1.256,0Z" transform="translate(0 -0.452)" fill="none" stroke="#ffca36" stroke-width="1"/>
    </g>
    <path id="Subtraction_1" data-name="Subtraction 1" d="M5.567,24.019a.724.724,0,0,1-.541-.245.6.6,0,0,1-.13-.551L6.882,15.2.24,9.814a.612.612,0,0,1-.2-.691.676.676,0,0,1,.6-.442l8.755-.7L12.81.4a.679.679,0,0,1,.633-.4V19.676L5.92,23.926A.719.719,0,0,1,5.567,24.019Z" transform="translate(0 0.001)" fill="#ffca36"/>
  </g>
</svg>
