<svg id="Group_749" data-name="Group 749" xmlns="http://www.w3.org/2000/svg" width="106.995" height="151.025" viewBox="0 0 106.995 151.025">
  <path id="Path_620" data-name="Path 620" d="M107.441,70.766l-9.748,109.2L53.877,192.111l-43.7-12.13L.445,70.766h107Z" transform="translate(-0.445 -41.086)" fill="#e44d26"/>
  <path id="Path_621" data-name="Path 621" d="M128,195.187l35.405-9.815,8.33-93.315H128Z" transform="translate(-74.502 -53.447)" fill="#f16529"/>
  <path id="Path_622" data-name="Path 622" d="M62.556,137.39H81.5V124H47.917l.32,3.593L51.53,164.5H81.5V151.106H63.78ZM65.575,171.2H52.128L54,192.23l27.438,7.617.062-.017V185.894l-.059.016-14.918-4.028L65.575,171.2Z" transform="translate(-28.007 -71.99)" fill="#ebebeb"/>
  <path id="Path_623" data-name="Path 623" d="M24.18,0h6.807V6.725h6.227V0h6.807V20.366H37.214v-6.82H30.987v6.82H24.18V0ZM52.973,6.754H46.981V0h18.8V6.754h-6V20.366H52.974V6.754h0ZM68.759,0h7.1l4.366,7.156L84.585,0h7.1V20.366H84.906V10.271l-4.683,7.241h-.117l-4.686-7.241V20.366h-6.66ZM95.073,0h6.809V13.634h9.573v6.732H95.073V0Z" transform="translate(-14.225)" fill="#fff"/>
  <path id="Path_624" data-name="Path 624" d="M127.889,164.5h16.494l-1.555,17.372-14.939,4.032V199.84l27.46-7.61.2-2.263L158.7,154.7l.327-3.6H127.889Zm0-27.144v.033h32.355l.268-3.01.611-6.791.32-3.594H127.889v13.362Z" transform="translate(-74.438 -71.99)" fill="#fff"/>
</svg>
