<svg xmlns="http://www.w3.org/2000/svg" xmlns:xlink="http://www.w3.org/1999/xlink" width="169.571" height="169.858" viewBox="0 0 169.571 169.858"><defs><style>.a{fill:url(#a);}</style><linearGradient id="a" x1="0.5" x2="0.5" y2="1" gradientUnits="objectBoundingBox"><stop offset="0" stop-color="#8e2de2"/><stop offset="1" stop-color="#0065ff"/></linearGradient></defs><path class="a" d="M166.123,103.072l-5.61-2.473a2.5,2.5,0,1,0-2.019,4.58l5.61,2.476c.381.166.46.4.46.57s-.079.4-.46.568l-45.858,20.223a1.219,1.219,0,0,1-.945,0c-14.4-6.351-9.683-4.27-22.445-9.9l16.637-7.656c6,3.639,15.918.866,15.918-5.247,0-3.853-4.232-6.871-9.636-6.871-6.073,0-10.52,3.789-9.49,8.083L88.74,116.42l-17.3-7.626c-.616-.27-.619-.866,0-1.138L117.3,87.433a1.225,1.225,0,0,1,.947,0c22.525,9.931-1.445-.636,31.084,13.707a2.5,2.5,0,1,0,2.019-4.582l-18.1-7.98V29.9a8.277,8.277,0,0,0-8.267-8.268H102.158v-7.86A13.79,13.79,0,0,0,88.386,0H78.925a2.5,2.5,0,1,0,0,5.006h9.461a8.778,8.778,0,0,1,8.766,8.768v7.86H93.089v-7.86a4.71,4.71,0,0,0-4.7-4.705H44.861a4.713,4.713,0,0,0-4.705,4.705v7.86H36.094v-7.86a8.78,8.78,0,0,1,8.767-8.768H68.911a2.5,2.5,0,1,0,0-5.006H44.861A13.793,13.793,0,0,0,31.086,13.775v7.86H8.268A8.277,8.277,0,0,0,0,29.9V90.623a2.5,2.5,0,0,0,5.006,0V62.283A27,27,0,0,0,21.016,72.93v7.341a5.356,5.356,0,0,0,5.35,5.348h7.52a5.356,5.356,0,0,0,5.35-5.348V73.585H94.012v6.687A5.355,5.355,0,0,0,99.36,85.62h7.521a5.355,5.355,0,0,0,5.348-5.348V72.93a26.985,26.985,0,0,0,16.011-10.647V86.368l-7.974-3.515a6.227,6.227,0,0,0-4.987,0L69.426,103.072a5.573,5.573,0,0,0,0,10.3l8.737,3.851v1.642H19.839A14.846,14.846,0,0,1,5.006,104.04v-3.4a2.5,2.5,0,0,0-5.006,0v3.4a19.858,19.858,0,0,0,19.839,19.835H78.164v18.561c0,3.682,3.191,6.658,8.283,8.908v3.3L78,165.849a2.5,2.5,0,1,0,4,3.012l4.444-5.9v4.393a2.5,2.5,0,1,0,5.006,0v-4.391l4.442,5.9a2.5,2.5,0,1,0,4-3.012l-8.442-11.207v-1.485c23.293,6.912,65.932,2.729,65.932-10.721V117.227l8.737-3.851a5.573,5.573,0,0,0,0-10.3Zm-48.348,1.276c3.038,0,4.629,1.385,4.629,1.865s-1.591,1.864-4.629,1.864c-3.014,0-4.63-1.38-4.63-1.864S114.736,104.349,117.775,104.349ZM45.161,14.076H88.083v7.559H45.161Zm-10.932,66.2a.344.344,0,0,1-.343.342h-7.52a.344.344,0,0,1-.343-.342v-6.7c.3.009.6.016.9.016h7.308Zm0-11.693H26.921c-.3,0-.6-.012-.9-.023V61.72a.344.344,0,0,1,.343-.343h7.52a.344.344,0,0,1,.343.343Zm72.995,11.693a.343.343,0,0,1-.342.342h-7.52a.343.343,0,0,1-.342-.342V73.585h7.308q.449,0,.9-.016Zm0-11.716c-.3.012-.6.023-.9.023H99.018V61.72a.344.344,0,0,1,.342-.343h7.521a.343.343,0,0,1,.342.343Zm5.007-.792V61.718a5.355,5.355,0,0,0-5.35-5.348h-7.52a5.355,5.355,0,0,0-5.35,5.348v6.859H39.235V61.718a5.355,5.355,0,0,0-5.35-5.348h-7.52a5.355,5.355,0,0,0-5.35,5.348v6.045a21.95,21.95,0,0,1-16.01-21.1V29.9a3.263,3.263,0,0,1,3.262-3.261H124.98a3.253,3.253,0,0,1,3.261,3.261V46.664a21.949,21.949,0,0,1-16.01,21.1ZM86.447,145.79c-2.483-1.4-3.277-2.657-3.277-3.354v-23l3.277,1.445Zm65.931-3.354c0,1.085-1.919,3.517-9.108,5.747-13.835,4.287-37.152,4.5-51.817-.264V123.048c2.382,1.1-1.089-.441,23.828,10.546a6.182,6.182,0,0,0,4.985,0l32.111-14.158Zm0,0" transform="translate(0 0)"/></svg>