<svg id="Group_751" data-name="Group 751" xmlns="http://www.w3.org/2000/svg" width="107.346" height="151.105" viewBox="0 0 107.346 151.105">
  <path id="Path_610" data-name="Path 610" d="M107.345,489.9H0L10.064,599.028l43.6,12.366,43.6-12.366Z" transform="translate(0 -460.289)" fill="#e6a329"/>
  <path id="Path_611" data-name="Path 611" d="M887.9,637V740.356l35.329-10.009L931.823,637Z" transform="translate(-834.233 -598.498)" fill="#f1bf22"/>
  <path id="Path_612" data-name="Path 612" d="M449.7,858.5H395.384L391.6,899.359l.079-.254h46.148l-1.505,17.286L421.6,920.629l-14.941-4.3-.895-10.463H392.2l1.934,20.907,27.465,7.8,27.477-7.8,3.784-41.034H403.882l.629-13.672h33.981L439,879.9h13.684Z" transform="translate(-367.931 -806.61)" fill="#fff"/>
  <path id="Path_613" data-name="Path 613" d="M421.61,858.5H395.384L391.6,899.359l.078-.254H421.61V885.777H405.792l.629-13.672H421.61Zm-15.818,47.362H392.2l1.934,20.895,27.465,7.785v-13.9l-14.941-4.315Z" transform="translate(-367.931 -806.61)" fill="#ebebeb"/>
  <path id="Path_614" data-name="Path 614" d="M566.656,13.515H557.1v6.86h16.392V0h-6.836ZM597.095.109H580.437V7.241c2.224,2.224,3.385,3.294,6.661,6.516h-6.661v6.5h16.658V13.769l-6.661-6.516h6.661Z" transform="translate(-523.428 0)" fill="#fff"/>
</svg>
