<svg xmlns="http://www.w3.org/2000/svg" xmlns:xlink="http://www.w3.org/1999/xlink" width="139.406" height="137.043" viewBox="0 0 139.406 137.043"><defs><style>.a{fill:url(#a);}</style><linearGradient id="a" x1="0.5" x2="0.5" y2="1" gradientUnits="objectBoundingBox"><stop offset="0" stop-color="#6a11cb"/><stop offset="1" stop-color="#2575fc"/></linearGradient></defs><g transform="translate(0)"><path class="a" d="M41.177,14a4.724,4.724,0,0,0-4.726,4.726,4.632,4.632,0,0,0,.189,1.248A34.379,34.379,0,0,0,27,43.906v3.173h4.726V43.906A29.69,29.69,0,0,1,40,23.286,4.718,4.718,0,1,0,41.177,14Z" transform="translate(32.07 11.991)"/><path class="a" d="M135.318,54.576V69.159h-4.726V59.708h-4.726v9.451H111.69V51.717l6.032,3.015a2.36,2.36,0,0,0,1.961.071,2.368,2.368,0,0,0,1.337-1.434l4.033-12.1a13.738,13.738,0,0,1,10.264,13.305ZM101.057,40.805l4.681,6.24-4.482,2.242-2.826-8.483Zm16.54,0h2.63L117.4,49.288l-4.482-2.242ZM109.327,3a14.192,14.192,0,0,1,13.936,11.63,20.288,20.288,0,0,1-11.857-5.805l-.4-.406a2.429,2.429,0,0,0-3.346,0l-.4.4A20.273,20.273,0,0,1,95.4,14.627,14.183,14.183,0,0,1,109.327,3Zm-14,16.414a24.938,24.938,0,0,0,14-6.065,24.948,24.948,0,0,0,14,6.065,14.177,14.177,0,0,1-28,0Zm14,16.665a18.79,18.79,0,0,0,4.726-.621v2.2l-4.726,6.3-4.726-6.3v-2.2A18.79,18.79,0,0,0,109.327,36.079Zm-25.991,18.5A13.743,13.743,0,0,1,93.6,41.268l4.033,12.1A2.368,2.368,0,0,0,98.973,54.8a2.3,2.3,0,0,0,.9.182,2.366,2.366,0,0,0,1.056-.248l6.032-3.017V69.159H92.787V59.708H88.061v9.451H83.336ZM54.982,64.433H69.159v4.726H54.982ZM43.168,109.327a7.088,7.088,0,1,1,7.088,7.088A7.1,7.1,0,0,1,43.168,109.327Zm-33.079,0a7.088,7.088,0,1,1,7.088,7.088A7.1,7.1,0,0,1,10.088,109.327ZM3,135.318a14.177,14.177,0,0,1,28.354,0v4.726H3Zm33.079,0a14.177,14.177,0,0,1,28.354,0v4.726H36.079Zm61.433,4.726H69.159v-4.726a14.177,14.177,0,0,1,28.354,0ZM76.247,109.327a7.088,7.088,0,1,1,7.088,7.088A7.1,7.1,0,0,1,76.247,109.327Zm59.07,25.991H102.238a18.914,18.914,0,0,0-11.093-17.194,11.814,11.814,0,1,0-15.618,0,19,19,0,0,0-8.731,8.064,19.021,19.021,0,0,0-8.731-8.064,11.738,11.738,0,0,0-3.083-19.609V83.336h80.336Zm4.726-61.433V78.61H50.256V73.885Z" transform="translate(-0.637 -3)"/><path class="a" d="M49.256,13.451V8.726A4.724,4.724,0,0,0,44.531,4H6.726A4.724,4.724,0,0,0,2,8.726V37.079a4.724,4.724,0,0,0,4.726,4.726H44.531a4.724,4.724,0,0,0,4.726-4.726V32.354L58.708,22.9ZM42.168,34.717H9.088V29.991H42.168ZM13.814,25.265V20.54H37.442v4.726Zm28.354-9.451H9.088V11.088H42.168Z" transform="translate(-2 -1.637)"/></g></svg>