<svg xmlns="http://www.w3.org/2000/svg" width="37.357" height="34.124" viewBox="0 0 37.357 34.124"><defs><style>.a{fill:#4e4e4e;}</style></defs><g transform="translate(0 0)"><g transform="translate(0 0)"><path class="a" d="M1.213,202.5H6.07a1.213,1.213,0,0,0,1.213-1.213V180.063A1.213,1.213,0,0,0,6.07,178.85H1.213A1.213,1.213,0,0,0,0,180.063v21.227A1.213,1.213,0,0,0,1.213,202.5Z" transform="translate(0 -168.379)"/><path class="a" d="M1.213,30.655H6.07a1.213,1.213,0,0,0,1.213-1.213V25.129A1.213,1.213,0,0,0,6.07,23.916H1.213A1.213,1.213,0,0,0,0,25.129v4.313A1.213,1.213,0,0,0,1.213,30.655Z" transform="translate(0 -23.916)"/><path class="a" d="M204.8,172.729a7.384,7.384,0,0,0-3.019-2.216,10.931,10.931,0,0,0-4.406-.868,10.79,10.79,0,0,0-8.292,3.735c-.451.5-.779.387-.779-.283V171.48a1.213,1.213,0,0,0-1.213-1.213h-4.338a1.213,1.213,0,0,0-1.213,1.213v21.227a1.213,1.213,0,0,0,1.213,1.213h4.856a1.213,1.213,0,0,0,1.213-1.213v-7.382a23.751,23.751,0,0,1,.557-6.324,5.223,5.223,0,0,1,2.06-2.747,5.84,5.84,0,0,1,3.4-1.037,4.333,4.333,0,0,1,2.527.726,4.044,4.044,0,0,1,1.516,2.034,21.7,21.7,0,0,1,.467,5.767v8.963a1.213,1.213,0,0,0,1.213,1.213h4.856a1.213,1.213,0,0,0,1.213-1.213V180.686a22.768,22.768,0,0,0-.4-4.9A8.023,8.023,0,0,0,204.8,172.729Z" transform="translate(-169.275 -159.796)"/></g></g></svg>