<svg xmlns="http://www.w3.org/2000/svg" width="69.591" height="69.591" viewBox="0 0 69.591 69.591"><defs><style>.a{fill:#007ab9;}.b{fill:#f1f2f2;}</style></defs><g transform="translate(0 0.001)"><circle class="a" cx="34.795" cy="34.795" r="34.795" transform="translate(0 -0.001)"/><g transform="translate(16.789 14.867)"><path class="b" d="M65.864,46.7V61.042H57.547V47.658c0-3.361-1.2-5.656-4.212-5.656a4.549,4.549,0,0,0-4.266,3.041,5.693,5.693,0,0,0-.275,2.027V61.041H40.476s.112-22.668,0-25.015h8.318v3.545c-.017.028-.04.055-.055.082h.055v-.082a8.258,8.258,0,0,1,7.5-4.132c5.472,0,9.574,3.575,9.574,11.257ZM31.775,23.969c-2.845,0-4.707,1.868-4.707,4.321a4.308,4.308,0,0,0,4.6,4.323h.054c2.9,0,4.7-1.922,4.7-4.323a4.321,4.321,0,0,0-4.649-4.321ZM27.562,61.042h8.315V36.027H27.562Z" transform="translate(-27.068 -23.969)"/></g></g></svg>