<svg xmlns="http://www.w3.org/2000/svg" width="321" height="53.684" viewBox="0 0 321 53.684"><defs><style>.a{fill:#fff;}</style></defs><g transform="translate(-10.724 -17.81)"><path class="a" d="M255.138,51.508a11.216,11.216,0,0,0,.164-1.873q.013-14.607,0-29.214c0-2.227.381-2.605,2.554-2.611h3.795a1.662,1.662,0,0,1,1.892,1.785c-.114,11.493.523,23.006-.284,34.476a18.4,18.4,0,0,1-20,17.369,18.931,18.931,0,0,1-18.006-19.913c.4-12.371,12.69-21.245,23.98-17.285.206.074.413.147.619.228,4.655,1.848,5.184,2.615,5.184,7.537,0,.934,0,1.871-.011,2.805-1.437,1.281-1.926,1.332-3.371.069a10.613,10.613,0,0,0-10.268-2.522,9.626,9.626,0,0,0-7.042,9.111,14.718,14.718,0,0,0,.207,3.942,10.358,10.358,0,0,0,15.972,5.538,11.327,11.327,0,0,0,3.881-6.423C254.665,53.541,254.857,52.831,255.138,51.508Z" transform="translate(-173.691 0)"/><path class="a" d="M19.7,121.025c.624,5.087,6.043,9.368,11.467,9.057,5.241-.3,8.882-3.285,10.848-8.892.8-2.284,1.372-2.51,3.426-1.378.048.027.091.063.139.089,3.73,2.069,3.73,2.069,2.067,6.081-3.312,7.993-10.087,12.234-18.752,11.729a19.033,19.033,0,1,1,12.325-34.086,23.714,23.714,0,0,1,5.593,6.867c.381.653.367.965-.322,1.41-7.192,4.665-14.356,9.377-21.538,14.059a1.667,1.667,0,0,1-2.615-.712c-.845-1.412-1.7-2.817-2.554-4.223-.19-1.075.679-1.418,1.332-1.859,4.061-2.727,8.138-5.432,12.207-8.148a7.636,7.636,0,0,0,.683-.459c.4-.333,1.125-.464,1.016-1.142-.084-.531-.672-.719-1.125-.868-3.146-1.024-6.294-1.169-9.219.59a10.109,10.109,0,0,0-5.023,8.924C19.636,119.05,19.807,120.036,19.7,121.025Z" transform="translate(0 -66.272)"/><path class="a" d="M691.553,48.24c-1.161-.893-1.96-1.566-2.817-2.156a11.761,11.761,0,0,0-14.245.533,12.391,12.391,0,0,0-3.013,14.6,11.77,11.77,0,0,0,12.751,6.444c4.967-.887,8.083-4.16,9.251-9.706a23.668,23.668,0,0,0,.483-4.912c0-9.687.027-19.375-.034-29.062,0-1.4.4-1.858,1.759-1.713,1.41.154,3.235-.571,4.145.278s.284,2.718.284,4.124c.011,9.851.086,19.706-.069,29.555A17.655,17.655,0,0,1,685.727,73.6c-9.638,1.955-19.222-4.094-21.3-13.446C662.2,50.128,667.953,40.5,677.547,38.275a15.565,15.565,0,0,1,13.02,2.522,1.983,1.983,0,0,1,1.007,1.886C691.494,44.424,691.553,46.165,691.553,48.24Z" transform="translate(-528.901 -3.49)"/><path class="a" d="M495.576,116.569c-.19,3.22.4,7.2-.3,11.126-1.523,8.58-8.374,13.724-17.087,12.93-8.918-.815-14.481-6.9-14.634-16.2-.1-6.324,0-12.651-.03-18.977,0-1.547.735-2.183,2.223-2.151,1.266.029,2.531,0,3.795,0,1.76.019,2.244.493,2.248,2.242V122.7a13.916,13.916,0,0,0,.877,5.167,6.823,6.823,0,0,0,7.2,4.63,7.619,7.619,0,0,0,7.015-5.542,15.862,15.862,0,0,0,.436-4.088q-.017-8.578,0-17.161c0-1.928.483-2.4,2.438-2.411q1.734-.011,3.466,0c1.926.013,2.345.419,2.35,2.3C495.576,109.019,495.576,112.429,495.576,116.569Z" transform="translate(-366.611 -69.211)"/><path class="a" d="M1509.859,122.333a17.523,17.523,0,0,1,13.166-16.721,17.824,17.824,0,0,1,20.469,8.888c.381.691.314,1-.337,1.424q-10.306,6.684-20.573,13.433c-.584.381-.866.381-1.3-.236-2.518-3.561-2.548-3.563,1.018-5.968,4.147-2.8,8.29-5.6,12.491-8.321,1.108-.718.971-1.106.086-1.856-4.783-4.046-12.729-2.855-16.467,2.493-4.908,7.03-1.049,17.487,7.249,19.641,6.334,1.644,12.331-1.663,14.986-8.267,1.007-2.5.936-2.343,3.373-1.266,1.781.788,1.753,1.724,1.165,3.262-3.085,8.07-8.785,12.18-17.129,12.238a18.2,18.2,0,0,1-17.013-11.4A18.922,18.922,0,0,1,1509.859,122.333Z" transform="translate(-1213.818 -70.61)"/><path class="a" d="M1329.359,108.34c3.144,0,3.14,0,4.147,2.925q3.94,11.442,7.9,22.878c.272.778.31,2.063,1.332,2.035.973-.03,1.009-1.29,1.288-2.094,2.832-8.077,5.668-16.152,8.433-24.251.381-1.117.847-1.629,2.069-1.523a28.992,28.992,0,0,0,3.793,0c1-.046,1.092.335.792,1.169-3.6,10.02-7.147,20.062-10.8,30.07-1.332,3.669-3.957,4.885-7.725,3.9a4.232,4.232,0,0,1-2.813-2.583c-1.494-3.3-2.547-6.772-3.778-10.173q-3.711-10.3-7.388-20.615c-.619-1.73-.615-1.732,1.256-1.738Z" transform="translate(-1065.153 -73.266)"/><path class="a" d="M1127.663,71.654c0-5.557.03-11.113-.025-16.668-.013-1.153.31-1.58,1.473-1.462,1.464.15,3.365-.6,4.3.3s.245,2.813.295,4.278c.053,1.595.065,3.194,0,4.785-.044.969.316,1.209,1.229,1.191,2.855-.049,5.721.011,8.58-.034.925-.015,1.351.122,1.368,1.226.065,4.265.11,4.263-4.136,4.265-1.979,0-3.96.017-5.94,0-.739-.011-1.109.19-1.091,1.022.135,5.769-.28,11.549.238,17.319.3,3.275,1.642,4.568,4.857,4.988a28.547,28.547,0,0,0,4.935.211c.874-.034,1.092.3,1.125,1.142.164,4.263.19,4.248-4.1,4.269a21.239,21.239,0,0,1-6.989-.934c-3.882-1.311-5.877-4.073-6.02-9.052-.162-5.6-.038-11.219-.038-16.828Z" transform="translate(-904.344 -28.794)"/><path class="a" d="M993.984,143.122a17.368,17.368,0,0,1-15.1-6.22c-5.16-5.807-4.916-15.8.316-22.2,3.791-4.642,8.755-6.176,14.44-6.168h.824c4.457,0,4.433,0,4.187,4.49-.044.816-.31,1-1.062,1a34.03,34.03,0,0,0-6.09.274c-6.2,1.115-10.161,5.82-10,12,.162,6.22,4.176,10.45,10.557,11.216a38.372,38.372,0,0,0,5.43.207c.815-.019,1.125.179,1.159,1.081.171,4.324.2,4.324-4.172,4.324Z" transform="translate(-780.869 -73.454)"/><path class="a" d="M903.856,125.213c0-5.279.029-10.561-.023-15.84-.011-1.113.238-1.606,1.446-1.5a22.364,22.364,0,0,0,3.462,0c1.011-.067,1.332.282,1.309,1.3-.057,3.355-.021,6.711-.021,10.066,0,7.261-.027,14.521.027,21.78,0,1.2-.245,1.738-1.523,1.57-1.505-.19-3.525.674-4.4-.369-.742-.889-.261-2.828-.266-4.3C903.846,133.685,903.856,129.45,903.856,125.213Z" transform="translate(-723.042 -72.91)"/><path class="a" d="M1266.4,125.285c0,5.279-.051,10.561.036,15.838.021,1.357-.423,1.694-1.665,1.587a26.6,26.6,0,0,0-3.462,0c-.839.038-1.151-.23-1.142-1.113q.036-16.253,0-32.5c0-.912.364-1.121,1.176-1.091a36.017,36.017,0,0,0,3.793,0c1.03-.07,1.3.287,1.294,1.3C1266.377,114.615,1266.4,119.95,1266.4,125.285Z" transform="translate(-1011.651 -73.021)"/><path class="a" d="M1257.2,32.38a4.507,4.507,0,0,1-.021,9.014,4.507,4.507,0,0,1,.021-9.014Z" transform="translate(-1005.628 -11.797)"/><path class="a" d="M900.974,41.332a4.486,4.486,0,1,1,3.178-1.376A4.514,4.514,0,0,1,900.974,41.332Z" transform="translate(-717.094 -11.736)"/></g></svg>