<svg xmlns="http://www.w3.org/2000/svg" width="50.324" height="41.866" viewBox="0 0 50.324 41.866"><defs><style>.a{fill:rgba(70,70,70,0.84);}</style></defs><g transform="translate(0 0)"><path class="a" d="M49.52,60.324,31.346,42.15a2.762,2.762,0,0,0-3.9,0L25.8,43.8a2.734,2.734,0,0,0-.8,1.947,2.788,2.788,0,0,0,.8,1.97L36.4,58.344H2.719A2.688,2.688,0,0,0,0,61.052v2.333a2.791,2.791,0,0,0,2.719,2.828h33.8L25.8,76.9a2.728,2.728,0,0,0,0,3.868l1.65,1.645a2.763,2.763,0,0,0,3.9,0L49.52,64.233a2.778,2.778,0,0,0,0-3.909Z" transform="translate(0 -41.346)"/></g></svg>