<svg xmlns="http://www.w3.org/2000/svg" xmlns:xlink="http://www.w3.org/1999/xlink" width="140.28" height="136.748" viewBox="0 0 140.28 136.748"><defs><style>.a{fill:url(#a);}</style><linearGradient id="a" x1="0.5" x2="0.5" y2="1" gradientUnits="objectBoundingBox"><stop offset="0" stop-color="#6a11cb"/><stop offset="1" stop-color="#2575fc"/></linearGradient></defs><g transform="translate(0)"><path class="a" d="M215.612,65.121h-.839V62.079a4.759,4.759,0,0,1,1.756-3.7,8.85,8.85,0,0,0,3.267-6.883V23.266a5.854,5.854,0,0,0-7.6-5.586V9.66a5.842,5.842,0,0,0-8.006-5.437,5.844,5.844,0,0,0-10.891,0A5.838,5.838,0,0,0,185.395,8.6a5.84,5.84,0,0,0-7.7,5.548V36.082a2.052,2.052,0,1,0,4.1,0V14.151a1.747,1.747,0,0,1,3.494,0V30.467a2.053,2.053,0,1,0,4.105,0V9.66a1.747,1.747,0,1,1,3.494,0V30.467a2.052,2.052,0,1,0,4.1,0V6.352a1.748,1.748,0,1,1,3.5,0V30.467a2.052,2.052,0,1,0,4.1,0V9.66a1.747,1.747,0,1,1,3.494,0V37.032a2.905,2.905,0,0,1-1.818,2.7l-4.945,2.009a6.216,6.216,0,0,0-3.894,5.783v1.839a2.053,2.053,0,1,0,4.105,0V47.525a2.128,2.128,0,0,1,1.332-1.98l4.946-2.009a6.992,6.992,0,0,0,4.378-6.5V23.266a1.747,1.747,0,1,1,3.494,0V51.494a4.757,4.757,0,0,1-1.757,3.7,8.849,8.849,0,0,0-3.266,6.883v3.042H186.561V61.969a8.885,8.885,0,0,0-3.1-6.744A4.773,4.773,0,0,1,181.8,51.6V45.2a2.053,2.053,0,1,0-4.105,0v6.4a8.886,8.886,0,0,0,3.1,6.744,4.773,4.773,0,0,1,1.66,3.621v3.164a4.994,4.994,0,0,0-4.762,4.98v65.082a2.053,2.053,0,1,0,4.105,0v-49.7h34.7v49.7a2.053,2.053,0,1,0,4.106,0V70.112a5,5,0,0,0-4.994-4.992ZM181.8,81.388V70.114a.889.889,0,0,1,.887-.888h32.927a.889.889,0,0,1,.887.888V81.388Zm0,0" transform="translate(-129.009 -0.5)"/><path class="a" d="M393.3,190.829h-.839v-3.042a4.757,4.757,0,0,1,1.757-3.7,8.852,8.852,0,0,0,3.266-6.883V148.974a5.854,5.854,0,0,0-7.6-5.586v-8.022a5.842,5.842,0,0,0-8.006-5.436,5.845,5.845,0,0,0-10.892,0,5.836,5.836,0,0,0-7.9,4.379,5.841,5.841,0,0,0-7.7,5.548v37.454a8.865,8.865,0,0,0,3.074,6.719l.028.025a4.773,4.773,0,0,1,1.66,3.621v3.163a5,5,0,0,0-4.762,4.981v30.64a2.053,2.053,0,0,0,4.106,0V211.2h34.7v15.261a2.053,2.053,0,0,0,4.106,0V195.82a5,5,0,0,0-4.993-4.992ZM359.488,207.1V195.822a.889.889,0,0,1,.887-.888h16.463a2.052,2.052,0,1,0,0-4.1H364.25v-3.152a8.861,8.861,0,0,0-3.074-6.719l-.027-.025a4.77,4.77,0,0,1-1.661-3.621V139.859a1.747,1.747,0,1,1,3.494,0v16.316a2.053,2.053,0,1,0,4.105,0V135.367a1.747,1.747,0,0,1,3.495,0v20.808a2.053,2.053,0,1,0,4.105,0V132.06a1.747,1.747,0,1,1,3.494,0v24.115a2.052,2.052,0,1,0,4.1,0V135.367a1.748,1.748,0,0,1,3.5,0V162.74a2.9,2.9,0,0,1-1.819,2.7l-4.945,2.009a6.216,6.216,0,0,0-3.894,5.783v1.839a2.053,2.053,0,1,0,4.105,0v-1.839a2.128,2.128,0,0,1,1.332-1.98l4.946-2.009a6.992,6.992,0,0,0,4.378-6.5V148.974a1.747,1.747,0,1,1,3.494,0V177.2a4.76,4.76,0,0,1-1.757,3.7,8.847,8.847,0,0,0-3.266,6.882v3.042h-2.828a2.052,2.052,0,0,0,0,4.1H393.3a.889.889,0,0,1,.887.888V207.1Zm0,0" transform="translate(-258.013 -91.766)"/><path class="a" d="M37.919,190.829h-.84v-3.042a4.757,4.757,0,0,1,1.757-3.7A8.849,8.849,0,0,0,42.1,177.2V148.974a5.853,5.853,0,0,0-7.6-5.586v-8.022a5.843,5.843,0,0,0-8.007-5.436,5.844,5.844,0,0,0-10.891,0A5.838,5.838,0,0,0,7.7,134.311a5.8,5.8,0,0,0-1.847-.3A5.859,5.859,0,0,0,0,139.859v37.454a8.861,8.861,0,0,0,3.074,6.719l.027.025a4.774,4.774,0,0,1,1.661,3.621v3.163A5,5,0,0,0,0,195.82v30.64a2.052,2.052,0,1,0,4.1,0V211.2H7.2a2.052,2.052,0,1,0,0-4.1H4.1V195.82a.888.888,0,0,1,.887-.887H37.919a.888.888,0,0,1,.887.887V207.1H15.23a2.052,2.052,0,1,0,0,4.1H38.806v15.261a2.052,2.052,0,1,0,4.1,0V195.82a5,5,0,0,0-4.992-4.992Zm-29.052,0v-3.152a8.861,8.861,0,0,0-3.074-6.719l-.027-.025A4.774,4.774,0,0,1,4.1,177.313V139.859a1.748,1.748,0,0,1,3.5,0v16.316a2.052,2.052,0,1,0,4.1,0V135.367a1.747,1.747,0,0,1,3.494,0v20.808a2.053,2.053,0,0,0,4.106,0V132.06a1.747,1.747,0,1,1,3.494,0v24.115a2.052,2.052,0,1,0,4.1,0V135.367a1.748,1.748,0,0,1,3.5,0V162.74a2.905,2.905,0,0,1-1.818,2.7l-4.946,2.009a6.216,6.216,0,0,0-3.893,5.783v1.839a2.052,2.052,0,1,0,4.1,0v-1.839a2.128,2.128,0,0,1,1.332-1.98l4.946-2.009a6.992,6.992,0,0,0,4.378-6.5V148.974a1.747,1.747,0,1,1,3.494,0V177.2a4.763,4.763,0,0,1-1.756,3.7,8.848,8.848,0,0,0-3.268,6.882v3.042Zm0,0" transform="translate(0 -91.766)"/></g></svg>