<svg xmlns="http://www.w3.org/2000/svg" width="266.024" height="298.355" viewBox="0 0 266.024 298.355"><defs><style>.a{fill:#5f6e9b;}.b{fill:#414b82;}.c{fill:#1e2d64;}.d{fill:#ffb69e;}.e{fill:#ba6746;}.f{fill:#1e73be;}.g{fill:#2896ff;}.h{fill:#243678;}</style></defs><g transform="translate(0)"><path class="a" d="M364.992,97.3,341.156,95.41c-10.264-.812-19.246,6.846-20.1,20.471l-6.866,85.946,0,42.268L289.946,291.8a14.154,14.154,0,1,0,25.236,12.827L340.964,253.9a14.16,14.16,0,0,0,1.536-6.4l.031-46.075h33.905l5.693-84.277A18.651,18.651,0,0,0,364.992,97.3Z" transform="translate(-136.51 -39.788)"/><path class="b" d="M424.711,368.419a14.156,14.156,0,0,1-13.955-11.89l-9.568-58.991L378.423,249.93a14.155,14.155,0,0,1,25.54-12.213l23.642,49.44a14.166,14.166,0,0,1,1.2,3.841l9.894,61a14.156,14.156,0,0,1-11.706,16.238A14.3,14.3,0,0,1,424.711,368.419Z" transform="translate(-173.493 -95.834)"/><path class="c" d="M394.925,201.429H332.712l6.9-88.862a18.653,18.653,0,0,1,20.068-17.151L383.479,97.3a18.654,18.654,0,0,1,17.14,19.853Z" transform="translate(-154.998 -39.791)"/><ellipse class="d" cx="24.025" cy="24.025" rx="24.025" ry="24.025" transform="translate(191.726)"/><path class="a" d="M66.741,418.459a13.475,13.475,0,0,1-12.446-18.6L77.7,343.048l1.771-42.315a13.466,13.466,0,1,1,26.909,1.126l-1.87,44.687a13.45,13.45,0,0,1-1,4.567L79.2,410.119A13.47,13.47,0,0,1,66.741,418.459Z" transform="translate(-38.397 -120.104)"/><path class="b" d="M189.918,409.543a13.47,13.47,0,0,1-13.326-11.652l-8.655-63.58-18.245-49.743a13.467,13.467,0,0,1,25.286-9.274l18.748,51.115a13.475,13.475,0,0,1,.7,2.82l8.852,65.028a13.482,13.482,0,0,1-13.361,15.285Z" transform="translate(-78.283 -111.187)"/><path class="c" d="M160.1,239.1H98.194V155.147a16.364,16.364,0,0,1,16.364-16.364H143.74A16.364,16.364,0,0,1,160.1,155.147V239.1Z" transform="translate(-57.14 -57.911)"/><ellipse class="e" cx="24.224" cy="24.224" rx="24.224" ry="24.224" transform="translate(51.685 24.236)"/><path class="f" d="M333.5,154.99q-1.622,0-3.255-.108l-11.095-.735.54-8.141,11.095.735a40.007,40.007,0,0,0,42.566-37.273A10.468,10.468,0,0,0,363.6,98.329l-40.568-2.689.54-8.141,40.567,2.689a18.649,18.649,0,0,1,17.355,19.82A48.171,48.171,0,0,1,333.5,154.99Z" transform="translate(-149.338 -36.511)"/><path class="g" d="M324.877,150.015a18.419,18.419,0,1,1-36.757-2.436l4.015-60.572a18.419,18.419,0,1,1,36.757,2.436Z" transform="translate(-136.374 -29.128)"/><g transform="translate(29.015 76.372)"><path class="f" d="M280.373,181.318l2.007-30.287-5.337-.354a5.893,5.893,0,0,0-6.27,5.49l-1.247,18.814a5.893,5.893,0,0,0,5.49,6.27l5.344.354C280.366,181.511,280.366,181.415,280.373,181.318Z" transform="translate(-157.642 -139.24)"/><path class="f" d="M90.981,198.363q-1.169,0-2.342-.055l-11.106-.528.388-8.15,11.106.528A40.007,40.007,0,0,0,130.89,152.1a10.468,10.468,0,0,0-9.959-10.955L80.32,139.21l.388-8.15,40.611,1.931a18.628,18.628,0,0,1,17.722,19.492,48.171,48.171,0,0,1-48.059,45.88Z" transform="translate(-77.533 -131.06)"/></g><path class="g" d="M83.345,193.3a18.42,18.42,0,0,1-36.8-1.751l2.884-60.637a18.419,18.419,0,1,1,36.8,1.75Z" transform="translate(-35.58 -47.304)"/><path class="f" d="M38.71,225.634l1.442-30.319-5.342-.254a5.893,5.893,0,0,0-6.166,5.606l-.9,18.834a5.893,5.893,0,0,0,5.606,6.166l5.35.255C38.707,225.826,38.706,225.731,38.71,225.634Z" transform="translate(-27.741 -81.391)"/><path class="d" d="M432.986,193.028a10.607,10.607,0,0,1-9,.052L385.4,175.329a10.632,10.632,0,0,1-6.165-8.943l-3.253-48.1a10.632,10.632,0,0,1,21.215-1.434l2.827,41.8,32.853,15.112a10.632,10.632,0,0,1,.111,19.266Z" transform="translate(-173.042 -44.622)"/><path class="h" d="M423.987,193.079,385.4,175.329a10.631,10.631,0,0,1-6.165-8.943l-3.253-48.1a10.632,10.632,0,0,1,21.215-1.434l2.827,41.8,32.854,15.112Z" transform="translate(-173.042 -44.622)"/><path class="e" d="M173.462,201.645a10.771,10.771,0,0,1-8.257-3.856L135.577,162.42a10.773,10.773,0,1,1,16.517-13.836l18.249,21.786,10.242-24.549a10.773,10.773,0,0,1,19.885,8.3l-17.065,40.9a10.778,10.778,0,0,1-9.944,6.625Z" transform="translate(-71.689 -58.082)"/><path class="h" d="M165.2,201.752l-29.627-35.369a10.773,10.773,0,0,1,16.517-13.836l18.249,21.786,10.242-24.548,19.885,8.3-17.065,40.9A10.776,10.776,0,0,1,165.2,201.752Z" transform="translate(-71.689 -62.045)"/></g></svg>