<svg id="_045---Wisdom" data-name="045---Wisdom" xmlns="http://www.w3.org/2000/svg" width="157.632" height="152.378" viewBox="0 0 157.632 152.378">
  <defs>
    <style>
      .cls-1 {
        fill: #c7804c;
      }

      .cls-2 {
        fill: #a1693e;
      }

      .cls-3 {
        fill: #f4edc7;
      }

      .cls-4 {
        fill: #393f4b;
      }

      .cls-5 {
        fill: #f1d24b;
      }

      .cls-6 {
        fill: #5f3e23;
      }

      .cls-7 {
        fill: #2c2f38;
      }

      .cls-8 {
        fill: #464f5e;
      }

      .cls-9 {
        fill: #ed9a00;
      }
    </style>
  </defs>
  <path id="Shape" class="cls-1" d="M106.571,39.272a26.319,26.319,0,0,1-19.6,25.4,25.4,25.4,0,0,1-6.673.867,26.062,26.062,0,0,1-16.446-5.806l3.205-11.56a2.906,2.906,0,0,0-2.837-3.652H54.342A2.906,2.906,0,0,0,51.5,48.178l3.205,11.56a26.062,26.062,0,0,1-16.446,5.806,25.4,25.4,0,0,1-6.673-.867,26.272,26.272,0,0,1,4.046-51.546C36.5,13.053,37.371,13,38.264,13H80.3c.893,0,1.76.053,2.627.131a26.288,26.288,0,0,1,23.645,26.141Z" transform="translate(19.534 21.153)"/>
  <path id="Shape-2" data-name="Shape" class="cls-2" d="M64.9,48.8a44.51,44.51,0,0,1-8.223,25.825A27.173,27.173,0,0,1,38.364,85.342q-1.182.158-2.364.236c.342-.368.657-.736,1-1.1A53.981,53.981,0,0,0,49.136,49.428a59.637,59.637,0,0,0-1.209-12.006A26.03,26.03,0,0,0,60.617,29.75,44.1,44.1,0,0,1,64.9,48.8Z" transform="translate(58.579 48.409)"/>
  <path id="Shape-3" data-name="Shape" class="cls-3" d="M76.8,47.735A53.981,53.981,0,0,1,64.667,82.782c-.342.368-.657.736-1,1.1-.315.026-31.211.026-31.526,0-.315-.342-.657-.709-.972-1.077A53.734,53.734,0,0,1,19.006,47.735a59.638,59.638,0,0,1,1.209-12.006,25.4,25.4,0,0,0,6.673.867A26.062,26.062,0,0,0,43.334,30.79L45.068,37.1a2.956,2.956,0,0,0,5.675,0l1.734-6.305A26.062,26.062,0,0,0,68.923,36.6a25.4,25.4,0,0,0,6.673-.867A59.637,59.637,0,0,1,76.8,47.735Z" transform="translate(30.911 50.101)"/>
  <path id="Shape-4" data-name="Shape" class="cls-2" d="M41.9,85.578q-1.182-.079-2.364-.236A27.173,27.173,0,0,1,21.223,74.623,44.6,44.6,0,0,1,17.282,29.75a26.03,26.03,0,0,0,12.689,7.671,59.637,59.637,0,0,0-1.209,12.006A53.734,53.734,0,0,0,40.927,84.5c.315.368.657.736.972,1.077Z" transform="translate(21.153 48.409)"/>
  <path id="Shape-5" data-name="Shape" class="cls-2" d="M64.035,59.028A7.847,7.847,0,0,1,50.4,64.361a7.853,7.853,0,0,1-14.765,0A7.847,7.847,0,0,1,22,59.028s0-5.6,2.89-8.118q1.182.158,2.364.236c.315.026,31.211.026,31.526,0q1.182-.079,2.364-.236C64.035,53.432,64.035,59.028,64.035,59.028Z" transform="translate(35.798 82.841)"/>
  <path id="Shape-6" data-name="Shape" class="cls-4" d="M68.29,6.62V23.513c-.867-.079-1.734-.131-2.627-.131H23.627c-.893,0-1.76.053-2.627.131V6.62Z" transform="translate(34.171 10.772)"/>
  <path id="Shape-7" data-name="Shape" class="cls-5" d="M49.225,23.022A2.627,2.627,0,0,1,47.044,24.2a2.467,2.467,0,0,1-1.445-.447,8.005,8.005,0,0,1-3.6-6.7V7.942l3.31-.893A2.551,2.551,0,0,0,47.254,4.5V17.058A2.8,2.8,0,0,0,48.515,19.4a2.59,2.59,0,0,1,.709,3.626Z" transform="translate(68.342 7.322)"/>
  <path id="Shape-8" data-name="Shape" class="cls-5" d="M46.593,38.469a15.85,15.85,0,1,0-1.55,3.021" transform="translate(25.944 27.553)"/>
  <path id="Shape-9" data-name="Shape" class="cls-6" d="M33.39,52.781a18.39,18.39,0,1,1,17.2-11.864,2.436,2.436,0,0,1-.118.263L48.917,44.2a2.363,2.363,0,0,1-.139.239A18.32,18.32,0,0,1,33.39,52.781Zm0-31.526A13.136,13.136,0,1,0,44.306,41.681l1.413-2.756A13.136,13.136,0,0,0,33.39,21.254Z" transform="translate(24.408 26.035)"/>
  <circle id="Oval" class="cls-7" cx="5.254" cy="5.254" r="5.254" transform="translate(52.544 55.171)"/>
  <path id="Shape-10" data-name="Shape" class="cls-5" d="M34.577,41.238a15.571,15.571,0,1,0-1.55-3.021" transform="translate(52.068 27.805)"/>
  <circle id="Oval-2" data-name="Oval" class="cls-7" cx="5.254" cy="5.254" r="5.254" transform="translate(94.579 55.171)"/>
  <path id="Shape-11" data-name="Shape" class="cls-6" d="M155,55.254H2.627a2.627,2.627,0,1,1,0-5.254H155a2.627,2.627,0,1,1,0,5.254Z" transform="translate(0 81.36)"/>
  <path id="Shape-12" data-name="Shape" class="cls-8" d="M89.589,11.822a2.551,2.551,0,0,1-1.944,2.548l-3.31.893-7.882,2.128L53.465,23.566a2.777,2.777,0,0,1-1.314,0L29.163,17.392,17.972,14.371a2.627,2.627,0,0,1,0-5.1l34.18-9.2a2.777,2.777,0,0,1,1.314,0l30.87,8.3,3.31.893A2.551,2.551,0,0,1,89.589,11.822Z" transform="translate(26.008 0)"/>
  <path id="Shape-13" data-name="Shape" class="cls-6" d="M34.023,44.548a2.366,2.366,0,0,1-.139-.239l-1.55-3.021a2.438,2.438,0,0,1-.118-.263,18.475,18.475,0,1,1,1.808,3.528Zm2.251-10.054a13.1,13.1,0,0,0,.807,4.535l1.413,2.756a13.136,13.136,0,1,0-2.22-7.29Z" transform="translate(50.423 25.932)"/>
  <path id="Shape-14" data-name="Shape" class="cls-9" d="M42.653,28.652l-3.205,11.56-1.734,6.305a2.956,2.956,0,0,1-5.675,0l-1.734-6.305L27.1,28.652A2.906,2.906,0,0,1,29.938,25h9.878a2.906,2.906,0,0,1,2.837,3.652Z" transform="translate(43.939 40.68)"/>
</svg>
